<svg width="3773" height="869" viewBox="0 0 3773 869" fill="none" xmlns="http://www.w3.org/2000/svg">
<g id="diseno">
<path id="p_salud" d="M1288.33 606.636L1128.42 519.976L970.355 606.784V778.104L1130.34 864.838L1286.41 778.253L1288.33 606.636Z" stroke="#2AA2A0" stroke-width="6"/>
<path id="p_calendario" d="M970.281 606.487L812.367 519.827L654.305 606.636V777.956L814.293 864.69L970.355 778.104L970.281 606.487Z" stroke="#2AA2A0" stroke-width="6"/>
<path id="p_ubicacion" d="M654.231 606.339L496.317 519.679L338.255 606.487V777.807L498.243 864.541L654.305 777.956L654.231 606.339Z" stroke="#2AA2A0" stroke-width="6"/>
<path id="p_transporte" d="M812.293 348.211L654.379 261.551L496.317 348.359V519.679L656.305 606.413L812.367 519.827L812.293 348.211Z" stroke="#2AA2A0" stroke-width="6"/>
<path id="p_medicamentos" d="M1128.34 348.359L970.429 261.699L812.367 348.507V519.827L972.355 606.562L1128.42 519.976L1128.34 348.359Z" stroke="#2AA2A0" stroke-width="6"/>
<path id="p_adn" d="M970.355 90.0823L812.441 3.42236L654.379 90.2308V261.551L814.367 348.285L970.429 261.699L970.355 90.0823Z" stroke="#2AA2A0" stroke-width="6"/>
<path id="l_1" d="M1286.33 778.235C3772.43 776.27 3772.43 776.27 3772.43 776.27" stroke="#2AA2A0" stroke-width="6"/>
<path id="l_2" d="M338.255 777.807L267.595 776.253L95.8062 777.622" stroke="#2AA2A0" stroke-width="6"/>
<g id="salud">
<path id="path1012" d="M1079.15 623.63C1076.99 616.843 1067.14 616.466 1054.23 627.464C1048.91 642.891 1057.86 687.076 1065.73 727.241L1135.39 726.602C1149.31 651.326 1148.2 633.235 1141.14 626.186C1134.08 619.136 1126.23 617.713 1120.69 623.63" stroke="#2AA2A0" stroke-width="12.2"/>
<path id="path1014" d="M1186.51 716.933C1195.22 818.655 1089.16 801.441 1100.32 725.88L1135.39 726.602" stroke="#2AA2A0" stroke-width="12.2"/>
<g id="path1016">
<path d="M1203.19 698.187C1203.19 702.815 1201.39 707.26 1198.18 710.573C1194.97 713.887 1190.61 715.806 1186.01 715.923C1181.42 716.039 1176.96 714.343 1173.59 711.196C1170.22 708.049 1168.2 703.701 1167.97 699.079C1167.74 694.457 1169.31 689.927 1172.35 686.456C1175.39 682.984 1179.66 680.846 1184.24 680.497C1188.82 680.148 1193.36 681.617 1196.88 684.589C1200.41 687.561 1202.64 691.802 1203.1 696.407" fill="#F8FBFD"/>
<path d="M1203.19 698.187C1203.19 702.815 1201.39 707.26 1198.18 710.573C1194.97 713.887 1190.61 715.806 1186.01 715.923C1181.42 716.039 1176.96 714.343 1173.59 711.196C1170.22 708.049 1168.2 703.701 1167.97 699.079C1167.74 694.457 1169.31 689.927 1172.35 686.456C1175.39 682.984 1179.66 680.846 1184.24 680.497C1188.82 680.148 1193.36 681.617 1196.88 684.589C1200.41 687.561 1202.64 691.802 1203.1 696.407" stroke="#2AA2A0" stroke-width="12.2" stroke-linecap="round" stroke-linejoin="round"/>
</g>
</g>
<g id="transporte">
<path id="rect1029" d="M680.884 377.559H566.612V452.738H680.884V377.559Z" fill="#F8FBFD" stroke="#2AA2A0" stroke-width="10.0084" stroke-linecap="round" stroke-linejoin="round"/>
<g id="path1031">
<path d="M612.532 477.392C612.532 481.069 610.951 484.6 608.127 487.233C605.302 489.866 601.458 491.391 597.414 491.483C593.369 491.576 589.445 490.228 586.479 487.728C583.513 485.228 581.738 481.773 581.535 478.1C581.332 474.428 582.715 470.828 585.391 468.07C588.066 465.312 591.821 463.613 595.856 463.336C599.89 463.059 603.883 464.225 606.984 466.587C610.085 468.949 612.048 472.318 612.454 475.977" fill="#B1D8EF"/>
<path d="M612.532 477.392C612.532 481.069 610.951 484.6 608.127 487.233C605.302 489.866 601.458 491.391 597.414 491.483C593.369 491.576 589.445 490.228 586.479 487.728C583.513 485.228 581.738 481.773 581.535 478.1C581.332 474.428 582.715 470.828 585.391 468.07C588.066 465.312 591.821 463.613 595.856 463.336C599.89 463.059 603.883 464.225 606.984 466.587C610.085 468.949 612.048 472.318 612.454 475.977" stroke="#2AA2A0" stroke-width="10.0084" stroke-linecap="round" stroke-linejoin="round"/>
</g>
<g id="path1031-4">
<path d="M725.441 478.001C725.441 481.678 723.86 485.209 721.036 487.842C718.211 490.474 714.367 492 710.323 492.092C706.278 492.185 702.354 490.837 699.388 488.337C696.421 485.836 694.647 482.381 694.444 478.709C694.241 475.036 695.624 471.437 698.3 468.679C700.975 465.92 704.73 464.222 708.764 463.945C712.798 463.667 716.792 464.834 719.893 467.196C722.994 469.557 724.957 472.927 725.363 476.586" fill="#B1D8EF"/>
<path d="M725.441 478.001C725.441 481.678 723.86 485.209 721.036 487.842C718.211 490.474 714.367 492 710.323 492.092C706.278 492.185 702.354 490.837 699.388 488.337C696.421 485.836 694.647 482.381 694.444 478.709C694.241 475.036 695.624 471.437 698.3 468.679C700.975 465.92 704.73 464.222 708.764 463.945C712.798 463.667 716.792 464.834 719.893 467.196C722.994 469.557 724.957 472.927 725.363 476.586" stroke="#2AA2A0" stroke-width="10.0084" stroke-linecap="round" stroke-linejoin="round"/>
</g>
<g id="path1048">
<path d="M568.244 465.065L744.55 466.631Z" fill="#B1D8EF"/>
<path d="M568.244 465.065L744.55 466.631" stroke="#2AA2A0" stroke-width="12.7607" stroke-linecap="round"/>
</g>
<path id="path1050" d="M697.209 460.569V393.221L715.377 391.452L738.232 429.245L739.441 466.631C721.809 465.721 712.989 442.828 697.209 460.569Z" fill="#5EA5BC" stroke="#2AA2A0" stroke-width="2.5021"/>
<path id="path1052" d="M703.739 430.811L702.318 403.025L715.377 401.255L728.014 429.245L703.739 430.811Z" fill="#2AA2A0" stroke="#2AA2A0" stroke-width="2.5021" stroke-linejoin="round"/>
</g>
<g id="ubicacion">
<path id="path1054" d="M492.902 799.274C492.902 799.274 547.734 723.104 551.432 679.012C559.146 587.026 434.625 563.846 432.403 681.574C431.676 720.092 492.902 799.274 492.902 799.274V799.274Z" fill="#B1D8EF" stroke="#2AA2A0" stroke-width="12.4457" stroke-linecap="round"/>
<g id="path1056">
<path d="M524.747 666.31C524.747 674.828 521.275 683.008 515.071 689.106C508.866 695.204 500.422 698.736 491.538 698.95C482.654 699.165 474.035 696.043 467.519 690.252C461.003 684.46 457.106 676.458 456.659 667.951C456.213 659.444 459.252 651.107 465.129 644.718C471.005 638.329 479.254 634.394 488.115 633.752C496.976 633.111 505.748 635.813 512.56 641.283C519.371 646.754 523.683 654.558 524.575 663.033" fill="#F8FBFD"/>
<path d="M524.747 666.31C524.747 674.828 521.275 683.008 515.071 689.106C508.866 695.204 500.422 698.736 491.538 698.95C482.654 699.165 474.035 696.043 467.519 690.252C461.003 684.46 457.106 676.458 456.659 667.951C456.213 659.444 459.252 651.107 465.129 644.718C471.005 638.329 479.254 634.394 488.115 633.752C496.976 633.111 505.748 635.813 512.56 641.283C519.371 646.754 523.683 654.558 524.575 663.033" stroke="#2AA2A0" stroke-width="10.5771" stroke-linecap="round" stroke-linejoin="round"/>
</g>
</g>
<g id="calendario">
<path id="rect1058" d="M857.495 622.04H757.103C738.939 622.04 724.215 635.682 724.215 652.51V742.315C724.215 759.143 738.939 772.784 757.103 772.784H857.495C875.658 772.784 890.382 759.143 890.382 742.315V652.51C890.382 635.682 875.658 622.04 857.495 622.04Z" fill="#F8FBFD" stroke="#2AA2A0" stroke-width="10.4282" stroke-linecap="round" stroke-linejoin="round"/>
<g id="15">
<path d="M786.199 672.324V748.166H777.015V681.953H776.571L758.055 694.247V684.915L777.015 672.324H786.199ZM831.712 749.203C827.366 749.203 823.453 748.338 819.972 746.61C816.491 744.882 813.702 742.512 811.603 739.5C809.505 736.488 808.357 733.057 808.159 729.205H817.047C817.393 732.637 818.948 735.476 821.713 737.723C824.503 739.945 827.836 741.056 831.712 741.056C834.822 741.056 837.587 740.327 840.007 738.871C842.451 737.414 844.364 735.414 845.747 732.871C847.154 730.304 847.857 727.403 847.857 724.169C847.857 720.861 847.129 717.911 845.673 715.318C844.241 712.701 842.266 710.64 839.747 709.134C837.229 707.628 834.353 706.863 831.119 706.838C828.798 706.813 826.416 707.171 823.972 707.912C821.528 708.628 819.516 709.554 817.936 710.689L809.344 709.652L813.936 672.324H853.338V680.471H821.639L818.973 702.839H819.417C820.972 701.604 822.923 700.58 825.268 699.765C827.613 698.95 830.057 698.543 832.6 698.543C837.242 698.543 841.377 699.654 845.006 701.876C848.66 704.073 851.524 707.085 853.597 710.912C855.696 714.738 856.745 719.108 856.745 724.021C856.745 728.86 855.659 733.18 853.486 736.982C851.338 740.759 848.376 743.747 844.599 745.944C840.821 748.116 836.526 749.203 831.712 749.203Z" fill="#B1D8EF"/>
<path d="M786.199 672.324H789.003V669.521H786.199V672.324ZM786.199 748.166V750.969H789.003V748.166H786.199ZM777.015 748.166H774.212V750.969H777.015V748.166ZM777.015 681.953H779.819V679.149H777.015V681.953ZM776.571 681.953V679.149H775.725L775.02 679.617L776.571 681.953ZM758.055 694.247H755.252V699.474L759.606 696.583L758.055 694.247ZM758.055 684.915L756.504 682.58L755.252 683.411V684.915H758.055ZM777.015 672.324V669.521H776.169L775.464 669.989L777.015 672.324ZM783.396 672.324V748.166H789.003V672.324H783.396ZM786.199 745.362H777.015V750.969H786.199V745.362ZM779.819 748.166V681.953H774.212V748.166H779.819ZM777.015 679.149H776.571V684.756H777.015V679.149ZM775.02 679.617L756.504 691.912L759.606 696.583L778.122 684.288L775.02 679.617ZM760.859 694.247V684.915H755.252V694.247H760.859ZM759.606 687.251L778.566 674.66L775.464 669.989L756.504 682.58L759.606 687.251ZM777.015 675.128H786.199V669.521H777.015V675.128ZM819.972 746.61L818.726 749.121L818.726 749.121L819.972 746.61ZM811.603 739.5L813.903 737.898L813.903 737.898L811.603 739.5ZM808.159 729.205V726.402H805.208L805.359 729.349L808.159 729.205ZM817.047 729.205L819.836 728.924L819.582 726.402H817.047V729.205ZM821.713 737.723L819.945 739.898L819.956 739.907L819.966 739.916L821.713 737.723ZM840.007 738.871L838.571 736.462L838.561 736.469L840.007 738.871ZM845.747 732.871L843.288 731.524L843.284 731.532L845.747 732.871ZM845.673 715.318L843.213 716.664L843.221 716.678L843.228 716.692L845.673 715.318ZM831.119 706.838L831.089 709.641L831.098 709.641L831.119 706.838ZM823.972 707.912L824.76 710.602L824.772 710.599L824.785 710.595L823.972 707.912ZM817.936 710.689L817.6 713.473L818.685 713.604L819.572 712.966L817.936 710.689ZM809.344 709.652L806.562 709.31L806.219 712.099L809.008 712.436L809.344 709.652ZM813.936 672.324V669.521H811.456L811.154 671.982L813.936 672.324ZM853.338 672.324H856.142V669.521H853.338V672.324ZM853.338 680.471V683.275H856.142V680.471H853.338ZM821.639 680.471V677.668H819.15L818.855 680.139L821.639 680.471ZM818.973 702.839L816.189 702.507L815.815 705.642H818.973V702.839ZM819.417 702.839V705.642H820.394L821.16 705.035L819.417 702.839ZM845.006 701.876L843.542 704.267L843.552 704.273L843.561 704.278L845.006 701.876ZM853.597 710.912L851.133 712.247L851.139 712.26L853.597 710.912ZM853.486 736.982L851.052 735.591L851.049 735.596L853.486 736.982ZM844.599 745.944L845.996 748.374L846.008 748.367L844.599 745.944ZM831.712 746.399C827.747 746.399 824.269 745.613 821.219 744.099L818.726 749.121C822.638 751.064 826.985 752.006 831.712 752.006V746.399ZM821.219 744.099C818.134 742.568 815.717 740.5 813.903 737.898L809.303 741.103C811.687 744.524 814.848 747.196 818.726 749.121L821.219 744.099ZM813.903 737.898C812.12 735.338 811.131 732.417 810.959 729.062L805.359 729.349C805.582 733.696 806.889 737.639 809.303 741.103L813.903 737.898ZM808.159 732.009H817.047V726.402H808.159V732.009ZM814.257 729.486C814.681 733.687 816.622 737.199 819.945 739.898L823.481 735.547C821.273 733.753 820.104 731.587 819.836 728.924L814.257 729.486ZM819.966 739.916C823.296 742.568 827.26 743.859 831.712 743.859V738.252C828.411 738.252 825.709 737.321 823.459 735.53L819.966 739.916ZM831.712 743.859C835.278 743.859 838.553 743.018 841.453 741.272L838.561 736.469C836.621 737.636 834.366 738.252 831.712 738.252V743.859ZM841.442 741.279C844.326 739.56 846.591 737.188 848.21 734.211L843.284 731.532C842.137 733.641 840.575 735.268 838.571 736.462L841.442 741.279ZM848.205 734.219C849.862 731.196 850.661 727.824 850.661 724.169H845.054C845.054 726.982 844.446 729.412 843.288 731.524L848.205 734.219ZM850.661 724.169C850.661 720.435 849.835 717.002 848.117 713.945L843.228 716.692C844.424 718.819 845.054 721.287 845.054 724.169H850.661ZM848.132 713.973C846.465 710.925 844.141 708.495 841.186 706.728L838.309 711.54C840.391 712.785 842.017 714.477 843.213 716.664L848.132 713.973ZM841.186 706.728C838.197 704.94 834.821 704.063 831.14 704.035L831.098 709.641C833.885 709.663 836.262 710.316 838.309 711.54L841.186 706.728ZM831.149 704.035C828.516 704.007 825.849 704.414 823.159 705.229L824.785 710.595C826.983 709.929 829.081 709.62 831.089 709.641L831.149 704.035ZM823.184 705.222C820.524 706.001 818.202 707.045 816.299 708.413L819.572 712.966C820.829 712.062 822.531 711.255 824.76 710.602L823.184 705.222ZM818.272 707.906L809.68 706.869L809.008 712.436L817.6 713.473L818.272 707.906ZM812.127 709.995L816.719 672.667L811.154 671.982L806.562 709.31L812.127 709.995ZM813.936 675.128H853.338V669.521H813.936V675.128ZM850.535 672.324V680.471H856.142V672.324H850.535ZM853.338 677.668H821.639V683.275H853.338V677.668ZM818.855 680.139L816.189 702.507L821.756 703.17L824.423 680.803L818.855 680.139ZM818.973 705.642H819.417V700.035H818.973V705.642ZM821.16 705.035C822.415 704.038 824.069 703.149 826.188 702.413L824.348 697.117C821.776 698.01 819.529 699.17 817.674 700.643L821.16 705.035ZM826.188 702.413C828.23 701.704 830.363 701.346 832.6 701.346V695.739C829.752 695.739 826.996 696.197 824.348 697.117L826.188 702.413ZM832.6 701.346C836.773 701.346 840.393 702.339 843.542 704.267L846.47 699.485C842.36 696.969 837.71 695.739 832.6 695.739V701.346ZM843.561 704.278C846.777 706.212 849.292 708.851 851.133 712.247L856.062 709.576C853.755 705.318 850.543 701.934 846.451 699.473L843.561 704.278ZM851.139 712.26C852.984 715.623 853.942 719.519 853.942 724.021H859.549C859.549 718.697 858.408 713.853 856.056 709.564L851.139 712.26ZM853.942 724.021C853.942 728.424 852.958 732.256 851.052 735.591L855.92 738.373C858.36 734.104 859.549 729.295 859.549 724.021H853.942ZM851.049 735.596C849.148 738.94 846.541 741.571 843.189 743.52L846.008 748.367C850.211 745.922 853.529 742.578 855.923 738.368L851.049 735.596ZM843.201 743.514C839.892 745.416 836.088 746.399 831.712 746.399V752.006C836.964 752.006 841.75 750.816 845.996 748.374L843.201 743.514Z" fill="#2AA2A0"/>
</g>
<path id="path1064" d="M746.717 646.303L866.15 647.907" stroke="#2AA2A0" stroke-width="5.21409"/>
<path id="path1066" d="M757.103 607.559L757.551 631.247" stroke="#2AA2A0" stroke-width="8.71903" stroke-linecap="round"/>
<path id="path1066-3" d="M779.38 606.989L779.829 630.677" stroke="#2AA2A0" stroke-width="8.71903" stroke-linecap="round"/>
<path id="path1066-0" d="M807.828 605.67L808.276 629.358" stroke="#2AA2A0" stroke-width="8.71903" stroke-linecap="round"/>
<path id="path1066-3-1" d="M830.105 605.1L830.554 628.788" stroke="#2AA2A0" stroke-width="8.71903" stroke-linecap="round"/>
<path id="path1066-3-1-4" d="M852.078 606.989L852.527 630.677" stroke="#2AA2A0" stroke-width="8.71903" stroke-linecap="round"/>
</g>
<g id="adn">
<g id="g1158">
<path id="path912" d="M749.055 233.149C748.227 127.311 838.415 134.794 898.74 123.863" stroke="#2AA2A0" stroke-width="10.7"/>
<path id="path912-7" d="M854.085 137.336C838.703 201.175 827.326 197.376 755.474 210.224" stroke="#2AA2A0" stroke-width="10.7"/>
<path id="path944" d="M792.194 202.519L763.159 175.484" stroke="#2AA2A0" stroke-width="10.7"/>
<path id="path946" d="M816.194 198.519L776.09 158.118" stroke="#2AA2A0" stroke-width="10.7"/>
<path id="path946-2" d="M833.831 184.08L795.467 145.716" stroke="#2AA2A0" stroke-width="10.7"/>
<path id="path944-5" d="M844.272 165.938L816.127 137.793" stroke="#2AA2A0" stroke-width="10.7"/>
</g>
<path id="path1171" d="M856.084 123.336C862.934 100.048 862.934 100.048 862.934 100.048" stroke="#2AA2A0" stroke-width="10.7" stroke-linejoin="bevel"/>
<path id="path1173" d="M745.474 206.224L720.749 221.173" stroke="#2AA2A0" stroke-width="10.7"/>
</g>
<g id="medicamentos">
<path id="path978" d="M960.526 432.074L1045.54 432.294C1043.69 413.407 1030.98 391.571 1005.1 391.863C979.23 392.154 962.181 412.692 960.526 432.074Z" fill="#2AA2A0" stroke="#2AA2A0" stroke-width="7"/>
<path id="path978-1" d="M960.526 444.074L1045.54 443.854C1043.71 463.837 1024.63 483.782 1005.1 484.285C985.575 484.788 962.181 463.456 960.526 444.074Z" fill="#2AA2A0" stroke="#2AA2A0" stroke-width="7"/>
<path id="path995" d="M900.934 429.828L948.142 430.467C950.16 460.161 953.006 491.663 926.414 491.983C899.822 492.302 898.643 462.83 900.934 429.828V429.828Z" fill="#2AA2A0" stroke="#2AA2A0" stroke-width="7"/>
<path id="path995-2" d="M900.387 430.477L947.595 429.838C948.974 392.973 953.098 369.562 925.867 368.322C898.636 367.082 898.096 385.971 900.387 430.477V430.477Z" fill="#B1D8EF" stroke="#2AA2A0" stroke-width="7"/>
</g>
<g id="inicio">
<path d="M98.1048 776.688C98.1048 788.522 93.4716 799.887 85.1936 808.359C76.9157 816.832 65.6483 821.74 53.7953 822.037C41.9423 822.335 30.442 817.998 21.7479 809.951C13.0538 801.905 7.85425 790.787 7.25841 778.968C6.66257 767.149 10.7177 755.566 18.5586 746.689C26.3995 737.813 37.4055 732.345 49.2285 731.454C61.0516 730.562 72.7557 734.317 81.844 741.917C90.9322 749.517 96.685 760.361 97.8752 772.135" fill="#B1D8EF"/>
<path d="M98.1048 776.688C98.1048 788.522 93.4716 799.887 85.1936 808.359C76.9157 816.832 65.6483 821.74 53.7953 822.037C41.9423 822.335 30.442 817.998 21.7479 809.951C13.0538 801.905 7.85425 790.787 7.25841 778.968C6.66257 767.149 10.7177 755.566 18.5586 746.689C26.3995 737.813 37.4055 732.345 49.2285 731.454C61.0516 730.562 72.7557 734.317 81.844 741.917C90.9322 749.517 96.685 760.361 97.8752 772.135" stroke="#2AA2A0" stroke-width="14.4009" stroke-linecap="round" stroke-linejoin="round"/>
</g>
</g>
</svg>
