<svg width="3772" height="353" viewBox="0 0 3772 353" fill="none" xmlns="http://www.w3.org/2000/svg">
<g id="diseno05" clip-path="url(#clip0_1_2)">
<path id="p_salud" d="M2221.21 90.5276L2061.3 3.86767L1903.24 90.6761V261.996L2063.23 348.73L2219.29 262.144L2221.21 90.5276Z" stroke="#2AA2A0" stroke-width="6"/>
<path id="p_calendario" d="M1903.16 90.3792L1745.25 3.71924L1587.19 90.5276V261.847L1747.18 348.582L1903.24 261.996L1903.16 90.3792Z" stroke="#2AA2A0" stroke-width="6"/>
<path id="p_ubicacion" d="M1587.11 90.2307L1429.2 3.5708L1271.14 90.3792V261.699L1431.12 348.433L1587.19 261.847L1587.11 90.2307Z" stroke="#2AA2A0" stroke-width="6"/>
<path id="p_transporte" d="M1271.06 90.0823L1113.15 3.42236L955.087 90.2308V261.551L1115.07 348.285L1271.14 261.699L1271.06 90.0823Z" stroke="#2AA2A0" stroke-width="6"/>
<path id="p_medicamentos" d="M953.087 90.2308L795.173 3.57081L637.111 90.3792V261.699L797.099 348.433L953.161 261.848L953.087 90.2308Z" stroke="#2AA2A0" stroke-width="6"/>
<path id="p_adn" d="M637.037 90.0823L479.123 3.42237L321.061 90.2308V261.551L481.049 348.285L637.111 261.699L637.037 90.0823Z" stroke="#2AA2A0" stroke-width="6"/>
<path id="l_2" d="M2221.51 260.166L3771.31 260.163" stroke="#2AA2A0" stroke-width="5.91634"/>
<path id="l_1" d="M321.126 261.703L256.76 260.141L100.272 261.517" stroke="#2AA2A0" stroke-width="5.73992"/>
<g id="salud">
<path id="path1012" d="M2012.03 107.522C2009.87 100.735 2000.02 100.358 1987.11 111.356C1981.79 126.783 1990.74 170.968 1998.61 211.133L2068.27 210.494C2082.19 135.218 2081.08 117.127 2074.02 110.078C2066.96 103.028 2059.11 101.605 2053.57 107.522" stroke="#2AA2A0" stroke-width="12.2"/>
<path id="path1014" d="M2119.4 200.825C2128.1 302.546 2022.04 285.333 2033.2 209.772L2068.27 210.494" stroke="#2AA2A0" stroke-width="12.2"/>
<g id="path1016">
<path d="M2136.07 182.079C2136.07 186.707 2134.27 191.152 2131.07 194.465C2127.86 197.779 2123.49 199.698 2118.89 199.815C2114.3 199.931 2109.84 198.235 2106.47 195.088C2103.1 191.941 2101.08 187.593 2100.85 182.971C2100.62 178.349 2102.19 173.819 2105.23 170.347C2108.27 166.876 2112.54 164.738 2117.12 164.389C2121.71 164.04 2126.24 165.509 2129.77 168.481C2133.29 171.453 2135.52 175.694 2135.98 180.299" fill="#F8FBFD"/>
<path d="M2136.07 182.079C2136.07 186.707 2134.27 191.152 2131.07 194.465C2127.86 197.779 2123.49 199.698 2118.89 199.815C2114.3 199.931 2109.84 198.235 2106.47 195.088C2103.1 191.941 2101.08 187.593 2100.85 182.971C2100.62 178.349 2102.19 173.819 2105.23 170.347C2108.27 166.876 2112.54 164.738 2117.12 164.389C2121.71 164.04 2126.24 165.509 2129.77 168.481C2133.29 171.453 2135.52 175.694 2135.98 180.299" stroke="#2AA2A0" stroke-width="12.2" stroke-linecap="round" stroke-linejoin="round"/>
</g>
</g>
<g id="transporte">
<path id="rect1029" d="M1139.65 119.431H1025.38V194.61H1139.65V119.431Z" fill="#F8FBFD" stroke="#2AA2A0" stroke-width="10.0084" stroke-linecap="round" stroke-linejoin="round"/>
<g id="path1031">
<path d="M1071.3 219.263C1071.3 222.941 1069.72 226.472 1066.9 229.105C1064.07 231.737 1060.23 233.263 1056.18 233.355C1052.14 233.447 1048.22 232.1 1045.25 229.6C1042.28 227.099 1040.51 223.644 1040.31 219.972C1040.1 216.299 1041.49 212.7 1044.16 209.942C1046.84 207.183 1050.59 205.484 1054.63 205.207C1058.66 204.93 1062.65 206.097 1065.75 208.459C1068.85 210.82 1070.82 214.19 1071.22 217.848" fill="#B1D8EF"/>
<path d="M1071.3 219.263C1071.3 222.941 1069.72 226.472 1066.9 229.105C1064.07 231.737 1060.23 233.263 1056.18 233.355C1052.14 233.447 1048.22 232.1 1045.25 229.6C1042.28 227.099 1040.51 223.644 1040.31 219.972C1040.1 216.299 1041.49 212.7 1044.16 209.942C1046.84 207.183 1050.59 205.484 1054.63 205.207C1058.66 204.93 1062.65 206.097 1065.75 208.459C1068.85 210.82 1070.82 214.19 1071.22 217.848" stroke="#2AA2A0" stroke-width="10.0084" stroke-linecap="round" stroke-linejoin="round"/>
</g>
<g id="path1031-4">
<path d="M1184.21 219.872C1184.21 223.549 1182.63 227.081 1179.81 229.714C1176.98 232.346 1173.14 233.871 1169.09 233.964C1165.05 234.056 1161.12 232.709 1158.16 230.208C1155.19 227.708 1153.42 224.253 1153.21 220.581C1153.01 216.908 1154.39 213.309 1157.07 210.55C1159.74 207.792 1163.5 206.093 1167.53 205.816C1171.57 205.539 1175.56 206.706 1178.66 209.068C1181.76 211.429 1183.73 214.799 1184.13 218.457" fill="#B1D8EF"/>
<path d="M1184.21 219.872C1184.21 223.549 1182.63 227.081 1179.81 229.714C1176.98 232.346 1173.14 233.871 1169.09 233.964C1165.05 234.056 1161.12 232.709 1158.16 230.208C1155.19 227.708 1153.42 224.253 1153.21 220.581C1153.01 216.908 1154.39 213.309 1157.07 210.55C1159.74 207.792 1163.5 206.093 1167.53 205.816C1171.57 205.539 1175.56 206.706 1178.66 209.068C1181.76 211.429 1183.73 214.799 1184.13 218.457" stroke="#2AA2A0" stroke-width="10.0084" stroke-linecap="round" stroke-linejoin="round"/>
</g>
<g id="path1048">
<path d="M1027.01 206.937L1203.32 208.503Z" fill="#B1D8EF"/>
<path d="M1027.01 206.937L1203.32 208.503" stroke="#2AA2A0" stroke-width="12.7607" stroke-linecap="round"/>
</g>
<path id="path1050" d="M1155.98 202.441V135.093L1174.15 133.324L1197 171.116L1198.21 208.503C1180.58 207.593 1171.76 184.7 1155.98 202.441Z" fill="#5EA5BC" stroke="#2AA2A0" stroke-width="2.5021"/>
<path id="path1052" d="M1162.51 172.682L1161.09 144.896L1174.15 143.127L1186.78 171.116L1162.51 172.682Z" fill="#2AA2A0" stroke="#2AA2A0" stroke-width="2.5021" stroke-linejoin="round"/>
</g>
<g id="ubicacion">
<path id="path1054" d="M1425.78 283.166C1425.78 283.166 1480.62 206.996 1484.31 162.904C1492.03 70.9178 1367.51 47.7377 1365.29 165.466C1364.56 203.984 1425.78 283.166 1425.78 283.166Z" fill="#B1D8EF" stroke="#2AA2A0" stroke-width="12.4457" stroke-linecap="round"/>
<g id="path1056">
<path d="M1457.63 150.202C1457.63 158.719 1454.16 166.9 1447.95 172.997C1441.75 179.095 1433.3 182.628 1424.42 182.842C1415.54 183.056 1406.92 179.935 1400.4 174.143C1393.89 168.352 1389.99 160.349 1389.54 151.843C1389.09 143.336 1392.13 134.999 1398.01 128.61C1403.89 122.221 1412.14 118.286 1421 117.644C1429.86 117.002 1438.63 119.705 1445.44 125.175C1452.25 130.645 1456.57 138.45 1457.46 146.925" fill="#F8FBFD"/>
<path d="M1457.63 150.202C1457.63 158.719 1454.16 166.9 1447.95 172.997C1441.75 179.095 1433.3 182.628 1424.42 182.842C1415.54 183.056 1406.92 179.935 1400.4 174.143C1393.89 168.352 1389.99 160.349 1389.54 151.843C1389.09 143.336 1392.13 134.999 1398.01 128.61C1403.89 122.221 1412.14 118.286 1421 117.644C1429.86 117.002 1438.63 119.705 1445.44 125.175C1452.25 130.645 1456.57 138.45 1457.46 146.925" stroke="#2AA2A0" stroke-width="10.5771" stroke-linecap="round" stroke-linejoin="round"/>
</g>
</g>
<g id="calendario">
<path id="rect1058" d="M1790.38 105.932H1689.98C1671.82 105.932 1657.1 119.574 1657.1 136.402V226.207C1657.1 243.034 1671.82 256.676 1689.98 256.676H1790.38C1808.54 256.676 1823.26 243.034 1823.26 226.207V136.402C1823.26 119.574 1808.54 105.932 1790.38 105.932Z" fill="#F8FBFD" stroke="#2AA2A0" stroke-width="10.4282" stroke-linecap="round" stroke-linejoin="round"/>
<g id="text1062">
<path d="M1697.81 140.967V170.058H1694.28V144.66H1694.11L1687.01 149.376V145.796L1694.28 140.967H1697.81ZM1715.26 170.455C1713.6 170.455 1712.1 170.124 1710.76 169.461C1709.43 168.798 1708.36 167.889 1707.55 166.734C1706.75 165.578 1706.31 164.262 1706.23 162.785H1709.64C1709.77 164.101 1710.37 165.19 1711.43 166.052C1712.5 166.904 1713.78 167.33 1715.26 167.33C1716.46 167.33 1717.52 167.051 1718.45 166.492C1719.38 165.933 1720.12 165.166 1720.65 164.191C1721.19 163.206 1721.46 162.094 1721.46 160.853C1721.46 159.584 1721.18 158.452 1720.62 157.458C1720.07 156.454 1719.31 155.664 1718.35 155.086C1717.38 154.508 1716.28 154.215 1715.04 154.205C1714.15 154.196 1713.23 154.333 1712.3 154.617C1711.36 154.892 1710.59 155.247 1709.98 155.683L1706.68 155.285L1708.45 140.967H1723.56V144.092H1711.4L1710.38 152.671H1710.55C1711.14 152.198 1711.89 151.805 1712.79 151.492C1713.69 151.18 1714.63 151.023 1715.6 151.023C1717.39 151.023 1718.97 151.45 1720.36 152.302C1721.76 153.145 1722.86 154.3 1723.66 155.768C1724.46 157.236 1724.87 158.912 1724.87 160.796C1724.87 162.652 1724.45 164.309 1723.62 165.768C1722.79 167.217 1721.66 168.362 1720.21 169.205C1718.76 170.039 1717.11 170.455 1715.26 170.455Z" fill="#B1D8EF"/>
<path d="M1697.81 140.967H1700.61V138.163H1697.81V140.967ZM1697.81 170.058V172.861H1700.61V170.058H1697.81ZM1694.28 170.058H1691.48V172.861H1694.28V170.058ZM1694.28 144.66H1697.09V141.856H1694.28V144.66ZM1694.11 144.66V141.856H1693.27L1692.56 142.324L1694.11 144.66ZM1687.01 149.376H1684.21V154.602L1688.56 151.711L1687.01 149.376ZM1687.01 145.796L1685.46 143.461L1684.21 144.293V145.796H1687.01ZM1694.28 140.967V138.163H1693.44L1692.73 138.631L1694.28 140.967ZM1695 140.967V170.058H1700.61V140.967H1695ZM1697.81 167.254H1694.28V172.861H1697.81V167.254ZM1697.09 170.058V144.66H1691.48V170.058H1697.09ZM1694.28 141.856H1694.11V147.463H1694.28V141.856ZM1692.56 142.324L1685.46 147.04L1688.56 151.711L1695.66 146.995L1692.56 142.324ZM1689.81 149.376V145.796H1684.21V149.376H1689.81ZM1688.56 148.132L1695.83 143.302L1692.73 138.631L1685.46 143.461L1688.56 148.132ZM1694.28 143.77H1697.81V138.163H1694.28V143.77ZM1710.76 169.461L1709.51 171.972L1709.51 171.972L1710.76 169.461ZM1707.55 166.734L1709.85 165.131L1709.85 165.131L1707.55 166.734ZM1706.23 162.785V159.981H1703.28L1703.43 162.928L1706.23 162.785ZM1709.64 162.785L1712.43 162.504L1712.17 159.981H1709.64V162.785ZM1711.43 166.052L1709.66 168.228L1709.67 168.236L1709.68 168.245L1711.43 166.052ZM1718.45 166.492L1717.01 164.084L1717 164.09L1718.45 166.492ZM1720.65 164.191L1718.19 162.844L1718.18 162.852L1720.65 164.191ZM1720.62 157.458L1718.16 158.804L1718.17 158.818L1718.17 158.831L1720.62 157.458ZM1715.04 154.205L1715.01 157.009L1715.02 157.009L1715.04 154.205ZM1712.3 154.617L1713.08 157.308L1713.1 157.304L1713.11 157.3L1712.3 154.617ZM1709.98 155.683L1709.64 158.466L1710.73 158.597L1711.62 157.959L1709.98 155.683ZM1706.68 155.285L1703.9 154.943L1703.56 157.731L1706.35 158.068L1706.68 155.285ZM1708.45 140.967V138.163H1705.97L1705.66 140.624L1708.45 140.967ZM1723.56 140.967H1726.36V138.163H1723.56V140.967ZM1723.56 144.092V146.895H1726.36V144.092H1723.56ZM1711.4 144.092V141.288H1708.91L1708.62 143.76L1711.4 144.092ZM1710.38 152.671L1707.59 152.339L1707.22 155.475H1710.38V152.671ZM1710.55 152.671V155.475H1711.53L1712.29 154.867L1710.55 152.671ZM1720.36 152.302L1718.9 154.693L1718.91 154.699L1718.92 154.704L1720.36 152.302ZM1723.66 155.768L1721.19 157.104L1721.2 157.116L1723.66 155.768ZM1723.62 165.768L1721.18 164.377L1721.18 164.382L1723.62 165.768ZM1720.21 169.205L1721.6 171.635L1721.62 171.629L1720.21 169.205ZM1715.26 167.652C1713.98 167.652 1712.91 167.399 1712.01 166.95L1709.51 171.972C1711.28 172.849 1713.22 173.259 1715.26 173.259V167.652ZM1712.01 166.95C1711.07 166.484 1710.37 165.877 1709.85 165.131L1705.25 168.336C1706.34 169.901 1707.78 171.112 1709.51 171.972L1712.01 166.95ZM1709.85 165.131C1709.36 164.428 1709.08 163.623 1709.03 162.641L1703.43 162.928C1703.53 164.901 1704.13 166.729 1705.25 168.336L1709.85 165.131ZM1706.23 165.588H1709.64V159.981H1706.23V165.588ZM1706.85 163.066C1707.06 165.151 1708.04 166.913 1709.66 168.228L1713.2 163.876C1712.69 163.467 1712.48 163.051 1712.43 162.504L1706.85 163.066ZM1709.68 168.245C1711.29 169.527 1713.2 170.134 1715.26 170.134V164.527C1714.35 164.527 1713.7 164.281 1713.18 163.859L1709.68 168.245ZM1715.26 170.134C1716.91 170.134 1718.48 169.742 1719.89 168.894L1717 164.09C1716.55 164.36 1716 164.527 1715.26 164.527V170.134ZM1719.88 168.9C1721.26 168.079 1722.34 166.94 1723.11 165.53L1718.18 162.852C1717.89 163.393 1717.51 163.788 1717.01 164.084L1719.88 168.9ZM1723.11 165.538C1723.9 164.099 1724.26 162.514 1724.26 160.853H1718.65C1718.65 161.673 1718.48 162.314 1718.19 162.844L1723.11 165.538ZM1724.26 160.853C1724.26 159.158 1723.88 157.544 1723.06 156.085L1718.17 158.831C1718.47 159.361 1718.65 160.01 1718.65 160.853H1724.26ZM1723.08 156.112C1722.29 154.678 1721.19 153.518 1719.79 152.68L1716.91 157.492C1717.44 157.809 1717.85 158.23 1718.16 158.804L1723.08 156.112ZM1719.79 152.68C1718.35 151.82 1716.75 151.415 1715.06 151.402L1715.02 157.009C1715.81 157.015 1716.41 157.196 1716.91 157.492L1719.79 152.68ZM1715.07 151.402C1713.86 151.389 1712.67 151.576 1711.48 151.934L1713.11 157.3C1713.8 157.091 1714.43 157.002 1715.01 157.009L1715.07 151.402ZM1711.51 151.927C1710.35 152.264 1709.27 152.738 1708.34 153.406L1711.62 157.959C1711.9 157.755 1712.36 157.519 1713.08 157.308L1711.51 151.927ZM1710.32 152.899L1707.02 152.502L1706.35 158.068L1709.64 158.466L1710.32 152.899ZM1709.47 155.627L1711.23 141.309L1705.66 140.624L1703.9 154.943L1709.47 155.627ZM1708.45 143.77H1723.56V138.163H1708.45V143.77ZM1720.76 140.967V144.092H1726.36V140.967H1720.76ZM1723.56 141.288H1711.4V146.895H1723.56V141.288ZM1708.62 143.76L1707.59 152.339L1713.16 153.003L1714.18 144.423L1708.62 143.76ZM1710.38 155.475H1710.55V149.868H1710.38V155.475ZM1712.29 154.867C1712.59 154.632 1713.04 154.374 1713.71 154.14L1711.87 148.844C1710.75 149.235 1709.7 149.764 1708.81 150.475L1712.29 154.867ZM1713.71 154.14C1714.31 153.933 1714.93 153.827 1715.6 153.827V148.22C1714.32 148.22 1713.08 148.426 1711.87 148.844L1713.71 154.14ZM1715.6 153.827C1716.92 153.827 1717.99 154.135 1718.9 154.693L1721.83 149.911C1719.95 148.765 1717.85 148.22 1715.6 148.22V153.827ZM1718.92 154.704C1719.88 155.284 1720.63 156.066 1721.19 157.104L1726.12 154.432C1725.09 152.533 1723.65 151.006 1721.81 149.899L1718.92 154.704ZM1721.2 157.116C1721.75 158.121 1722.06 159.323 1722.06 160.796H1727.67C1727.67 158.501 1727.18 156.35 1726.12 154.42L1721.2 157.116ZM1722.06 160.796C1722.06 162.217 1721.75 163.385 1721.18 164.377L1726.05 167.159C1727.15 165.233 1727.67 163.088 1727.67 160.796H1722.06ZM1721.18 164.382C1720.6 165.398 1719.82 166.187 1718.8 166.782L1721.62 171.629C1723.49 170.538 1724.98 169.035 1726.05 167.154L1721.18 164.382ZM1718.81 166.775C1717.83 167.339 1716.67 167.652 1715.26 167.652V173.259C1717.55 173.259 1719.69 172.738 1721.6 171.635L1718.81 166.775Z" fill="#2AA2A0"/>
</g>
<path id="path1064" d="M1679.6 130.195L1799.03 131.798" stroke="#2AA2A0" stroke-width="5.21409"/>
<path id="path1066" d="M1689.98 91.4508L1690.43 115.138" stroke="#2AA2A0" stroke-width="8.71903" stroke-linecap="round"/>
<path id="path1066-3" d="M1712.26 90.8809L1712.71 114.569" stroke="#2AA2A0" stroke-width="8.71903" stroke-linecap="round"/>
<path id="path1066-0" d="M1740.71 89.5622L1741.16 113.25" stroke="#2AA2A0" stroke-width="8.71903" stroke-linecap="round"/>
<path id="path1066-3-1" d="M1762.99 88.9923L1763.44 112.68" stroke="#2AA2A0" stroke-width="8.71903" stroke-linecap="round"/>
<path id="path1066-3-1-4" d="M1784.96 90.8809L1785.41 114.569" stroke="#2AA2A0" stroke-width="8.71903" stroke-linecap="round"/>
</g>
<g id="adn">
<g id="g1158">
<path id="path912" d="M415.737 233.149C414.909 127.311 505.097 134.794 565.422 123.863" stroke="#2AA2A0" stroke-width="10.7"/>
<path id="path912-7" d="M520.767 137.336C505.385 201.175 494.008 197.376 422.156 210.224" stroke="#2AA2A0" stroke-width="10.7"/>
<path id="path944" d="M458.876 202.519L429.841 175.484" stroke="#2AA2A0" stroke-width="10.7"/>
<path id="path946" d="M482.876 198.519L442.772 158.118" stroke="#2AA2A0" stroke-width="10.7"/>
<path id="path946-2" d="M500.513 184.08L462.149 145.716" stroke="#2AA2A0" stroke-width="10.7"/>
<path id="path944-5" d="M510.954 165.938L482.809 137.793" stroke="#2AA2A0" stroke-width="10.7"/>
</g>
<path id="path1171" d="M522.767 123.336C529.616 100.048 529.616 100.048 529.616 100.048" stroke="#2AA2A0" stroke-width="10.7" stroke-linejoin="bevel"/>
<path id="path1173" d="M412.156 206.224L387.431 221.173" stroke="#2AA2A0" stroke-width="10.7"/>
</g>
<g id="medicamentos">
<path id="path978" d="M785.27 173.945L870.28 174.166C868.436 155.278 855.723 133.442 829.848 133.734C803.974 134.026 786.925 154.563 785.27 173.945Z" fill="#2AA2A0" stroke="#2AA2A0" stroke-width="7"/>
<path id="path978-1" d="M785.27 185.946L870.28 185.725C868.457 205.709 849.377 225.654 829.848 226.157C810.319 226.659 786.925 205.328 785.27 185.946Z" fill="#2AA2A0" stroke="#2AA2A0" stroke-width="7"/>
<path id="path995" d="M725.679 171.699L772.887 172.339C774.905 202.033 777.75 233.535 751.158 233.854C724.566 234.174 723.387 204.702 725.679 171.699V171.699Z" fill="#2AA2A0" stroke="#2AA2A0" stroke-width="7"/>
<path id="path995-2" d="M725.131 172.349L772.339 171.71C773.718 134.845 777.842 111.434 750.611 110.194C723.38 108.954 722.84 127.843 725.131 172.349V172.349Z" fill="#B1D8EF" stroke="#2AA2A0" stroke-width="7"/>
</g>
<g id="inicio">
<path d="M3763.9 257.363C3763.9 269.197 3759.27 280.562 3750.99 289.035C3742.71 297.507 3731.45 302.415 3719.59 302.712C3707.74 303.01 3696.24 298.673 3687.55 290.627C3678.85 282.58 3673.65 271.462 3673.06 259.643C3672.46 247.824 3676.52 236.241 3684.36 227.364C3692.2 218.488 3703.2 213.021 3715.03 212.129C3726.85 211.237 3738.55 214.992 3747.64 222.592C3756.73 230.192 3762.48 241.036 3763.67 252.81" fill="#B1D8EF"/>
<path d="M3763.9 257.363C3763.9 269.197 3759.27 280.562 3750.99 289.035C3742.71 297.507 3731.45 302.415 3719.59 302.712C3707.74 303.01 3696.24 298.673 3687.55 290.627C3678.85 282.58 3673.65 271.462 3673.06 259.643C3672.46 247.824 3676.52 236.241 3684.36 227.364C3692.2 218.488 3703.2 213.021 3715.03 212.129C3726.85 211.237 3738.55 214.992 3747.64 222.592C3756.73 230.192 3762.48 241.036 3763.67 252.81" stroke="#2AA2A0" stroke-width="14.4009" stroke-linecap="round" stroke-linejoin="round"/>
</g>
</g>
<defs>
<clipPath id="clip0_1_2">
<rect width="3771.31" height="352.152" fill="white"/>
</clipPath>
</defs>
</svg>
