<svg width="541" height="164" viewBox="0 0 541 164" fill="none" xmlns="http://www.w3.org/2000/svg">
<path id="efectividad" d="M49.5324 46.08C50.1324 45.84 50.6324 45.72 51.0324 45.72C51.6724 45.72 52.1524 45.96 52.4724 46.44C52.7924 46.92 52.9524 47.54 52.9524 48.3C52.9524 49.5 52.6524 50.52 52.0524 51.36C51.4924 52.2 50.5124 52.96 49.1124 53.64C46.7524 54.76 43.6924 55.66 39.9324 56.34C36.1724 56.98 32.4724 57.3 28.8324 57.3C23.7924 57.3 19.5724 56.74 16.1724 55.62C12.7724 54.46 10.2324 52.88 8.55242 50.88C6.91242 48.88 6.09242 46.62 6.09242 44.1C6.09242 40.66 7.19242 37.74 9.39242 35.34C11.6324 32.9 14.9124 31.14 19.2324 30.06C16.8724 29.38 15.0524 28.18 13.7724 26.46C12.5324 24.74 11.9124 22.82 11.9124 20.7C11.9124 17.82 12.8124 15.28 14.6124 13.08C16.4524 10.84 18.9124 9.12 21.9924 7.92C25.0724 6.72 28.4524 6.12 32.1324 6.12C37.0924 6.12 40.8124 7.2 43.2924 9.36C45.7724 11.48 47.0124 14.24 47.0124 17.64C47.0124 20 46.5724 21.92 45.6924 23.4C44.8524 24.84 43.6324 25.56 42.0324 25.56C40.9124 25.56 40.0324 25.32 39.3924 24.84C38.7524 24.32 38.4324 23.56 38.4324 22.56C38.4324 21.88 38.5324 21.14 38.7324 20.34C38.9324 19.02 39.0324 18.12 39.0324 17.64C39.0324 16.2 38.4924 15.04 37.4124 14.16C36.3324 13.24 34.5324 12.78 32.0124 12.78C28.6124 12.78 25.8924 13.5 23.8524 14.94C21.8124 16.38 20.7924 18.32 20.7924 20.76C20.7924 22.64 21.5524 24.2 23.0724 25.44C24.6324 26.64 27.1524 27.3 30.6324 27.42C31.5124 27.46 32.1324 27.66 32.4924 28.02C32.8524 28.38 33.0324 28.98 33.0324 29.82C33.0324 32.46 31.8324 33.8 29.4324 33.84C26.1124 33.92 23.3524 34.38 21.1524 35.22C18.9924 36.06 17.4124 37.14 16.4124 38.46C15.4524 39.74 14.9724 41.12 14.9724 42.6C14.9724 45.08 16.1324 46.96 18.4524 48.24C20.7724 49.48 24.4524 50.1 29.4924 50.1C32.8124 50.1 36.3124 49.72 39.9924 48.96C43.7124 48.16 46.8924 47.2 49.5324 46.08ZM72.1852 40.2C73.3052 40.2 73.8652 41.04 73.8652 42.72C73.8652 45.88 71.3852 47.46 66.4252 47.46C65.4652 47.46 64.0852 47.28 62.2852 46.92C62.8052 49.4 63.2252 52.16 63.5452 55.2C63.9052 58.2 64.0852 60.68 64.0852 62.64C64.0852 66.96 63.3852 70.26 61.9852 72.54C60.5852 74.82 58.7452 75.96 56.4652 75.96C53.5852 75.96 51.5252 73.92 50.2852 69.84C49.0852 65.76 48.4852 59.6 48.4852 51.36C48.4852 43.68 49.3052 35.9 50.9452 28.02C52.6252 20.1 54.9052 13.56 57.7852 8.4C60.7052 3.2 63.9052 0.599997 67.3852 0.599997C69.2652 0.599997 70.7252 1.44 71.7652 3.12C72.8452 4.8 73.3852 7.06 73.3852 9.9C73.3852 19.3 67.7652 29.54 56.5252 40.62C56.1252 44.54 55.9252 47.98 55.9252 50.94C55.9252 55.06 56.0652 59.28 56.3452 63.6C56.6252 67.96 57.0852 70.14 57.7252 70.14C58.9252 70.14 59.5252 68.06 59.5252 63.9C59.5252 60.78 59.3052 57.76 58.8652 54.84C58.4652 51.92 57.9052 48.84 57.1852 45.6C57.1452 45.08 57.3052 44.42 57.6652 43.62C58.0652 42.82 58.5452 42.12 59.1052 41.52C59.6652 40.92 60.1652 40.62 60.6052 40.62C61.4052 40.62 62.3652 40.66 63.4852 40.74C63.8452 40.78 64.2652 40.8 64.7452 40.8C66.3452 40.8 68.1252 40.66 70.0852 40.38C70.4052 40.34 70.7452 40.3 71.1052 40.26C71.4652 40.22 71.8252 40.2 72.1852 40.2ZM66.1252 6.54C65.4052 6.54 64.5052 7.76 63.4252 10.2C62.3852 12.64 61.3452 15.88 60.3052 19.92C59.2652 23.92 58.3652 28.16 57.6052 32.64C60.8052 29 63.2652 25.22 64.9852 21.3C66.7052 17.34 67.5852 13.64 67.6252 10.2C67.6252 7.76 67.1252 6.54 66.1252 6.54ZM96.099 43.62C96.619 43.62 97.019 43.86 97.299 44.34C97.619 44.82 97.779 45.48 97.779 46.32C97.779 47.92 97.399 49.16 96.639 50.04C95.159 51.84 93.059 53.5 90.339 55.02C87.659 56.54 84.779 57.3 81.699 57.3C77.499 57.3 74.239 56.16 71.919 53.88C69.599 51.6 68.439 48.48 68.439 44.52C68.439 41.76 69.019 39.2 70.179 36.84C71.339 34.44 72.939 32.54 74.979 31.14C77.059 29.74 79.399 29.04 81.999 29.04C84.319 29.04 86.179 29.74 87.579 31.14C88.979 32.5 89.679 34.36 89.679 36.72C89.679 39.48 88.679 41.86 86.679 43.86C84.719 45.82 81.379 47.38 76.659 48.54C77.659 50.38 79.559 51.3 82.359 51.3C84.159 51.3 86.199 50.68 88.479 49.44C90.799 48.16 92.799 46.5 94.479 44.46C94.959 43.9 95.499 43.62 96.099 43.62ZM80.979 34.92C79.499 34.92 78.239 35.78 77.199 37.5C76.199 39.22 75.699 41.3 75.699 43.74V43.86C78.059 43.3 79.919 42.46 81.279 41.34C82.639 40.22 83.319 38.92 83.319 37.44C83.319 36.68 83.099 36.08 82.659 35.64C82.259 35.16 81.699 34.92 80.979 34.92ZM104.354 57.3C100.434 57.3 97.3737 56.2 95.1737 54C93.0137 51.76 91.9337 48.82 91.9337 45.18C91.9337 41.94 92.5737 39.1 93.8537 36.66C95.1337 34.22 96.7937 32.34 98.8337 31.02C100.874 29.7 103.014 29.04 105.254 29.04C107.454 29.04 109.154 29.7 110.354 31.02C111.594 32.3 112.214 33.96 112.214 36C112.214 37.68 111.834 39.1 111.074 40.26C110.354 41.42 109.394 42 108.194 42C107.434 42 106.814 41.82 106.334 41.46C105.894 41.1 105.674 40.6 105.674 39.96C105.674 39.68 105.714 39.36 105.794 39C105.874 38.64 105.934 38.38 105.974 38.22C106.174 37.62 106.274 37.06 106.274 36.54C106.274 36.02 106.134 35.62 105.854 35.34C105.614 35.06 105.254 34.92 104.774 34.92C103.854 34.92 102.994 35.34 102.194 36.18C101.394 36.98 100.754 38.08 100.274 39.48C99.7937 40.88 99.5537 42.42 99.5537 44.1C99.5537 48.74 101.574 51.06 105.614 51.06C107.254 51.06 109.014 50.52 110.894 49.44C112.814 48.32 114.694 46.66 116.534 44.46C117.014 43.9 117.554 43.62 118.154 43.62C118.674 43.62 119.074 43.86 119.354 44.34C119.674 44.82 119.834 45.48 119.834 46.32C119.834 47.84 119.454 49.08 118.694 50.04C116.814 52.36 114.554 54.16 111.914 55.44C109.314 56.68 106.794 57.3 104.354 57.3ZM142.036 43.62C142.556 43.62 142.956 43.86 143.236 44.34C143.556 44.82 143.716 45.48 143.716 46.32C143.716 47.92 143.336 49.16 142.576 50.04C140.856 52.16 138.976 53.9 136.936 55.26C134.896 56.62 132.556 57.3 129.916 57.3C121.756 57.3 117.676 51.56 117.676 40.08C117.676 38.32 117.736 36.54 117.856 34.74H115.516C114.316 34.74 113.496 34.52 113.056 34.08C112.656 33.64 112.456 32.94 112.456 31.98C112.456 29.74 113.356 28.62 115.156 28.62H118.576C119.256 24.22 120.296 20.2 121.696 16.56C123.096 12.92 124.776 10.02 126.736 7.86C128.736 5.7 130.876 4.62 133.156 4.62C134.836 4.62 136.156 5.36 137.116 6.84C138.076 8.32 138.556 10.18 138.556 12.42C138.556 18.62 135.956 24.02 130.756 28.62H137.476C138.116 28.62 138.576 28.76 138.856 29.04C139.136 29.32 139.276 29.84 139.276 30.6C139.276 33.36 137.016 34.74 132.496 34.74H125.176C125.096 36.74 125.056 38.3 125.056 39.42C125.056 43.58 125.536 46.5 126.496 48.18C127.496 49.86 129.056 50.7 131.176 50.7C132.896 50.7 134.416 50.18 135.736 49.14C137.056 48.1 138.616 46.54 140.416 44.46C140.896 43.9 141.436 43.62 142.036 43.62ZM131.536 10.38C130.936 10.38 130.256 11.14 129.496 12.66C128.776 14.14 128.076 16.22 127.396 18.9C126.756 21.54 126.216 24.48 125.776 27.72C128.136 25.68 129.896 23.4 131.056 20.88C132.256 18.32 132.856 16 132.856 13.92C132.856 11.56 132.416 10.38 131.536 10.38ZM146.691 25.08C145.011 25.08 143.751 24.7 142.911 23.94C142.071 23.14 141.651 22.04 141.651 20.64C141.651 19.24 142.191 18.08 143.271 17.16C144.391 16.2 145.771 15.72 147.411 15.72C148.891 15.72 150.091 16.08 151.011 16.8C151.931 17.52 152.391 18.54 152.391 19.86C152.391 21.46 151.871 22.74 150.831 23.7C149.791 24.62 148.411 25.08 146.691 25.08ZM146.211 57.3C143.611 57.3 141.711 56.38 140.511 54.54C139.351 52.7 138.771 50.26 138.771 47.22C138.771 45.42 138.991 43.12 139.431 40.32C139.911 37.48 140.511 34.84 141.231 32.4C141.591 31.12 142.071 30.24 142.671 29.76C143.271 29.28 144.231 29.04 145.551 29.04C147.591 29.04 148.611 29.72 148.611 31.08C148.611 32.08 148.231 34.4 147.471 38.04C146.511 42.44 146.031 45.42 146.031 46.98C146.031 48.18 146.191 49.1 146.511 49.74C146.831 50.38 147.371 50.7 148.131 50.7C148.851 50.7 149.751 50.2 150.831 49.2C151.911 48.2 153.351 46.62 155.151 44.46C155.631 43.9 156.171 43.62 156.771 43.62C157.291 43.62 157.691 43.86 157.971 44.34C158.291 44.82 158.451 45.48 158.451 46.32C158.451 47.92 158.071 49.16 157.311 50.04C153.351 54.88 149.651 57.3 146.211 57.3ZM183.883 38.76C184.003 38.72 184.203 38.7 184.483 38.7C185.083 38.7 185.543 38.9 185.863 39.3C186.183 39.7 186.343 40.24 186.343 40.92C186.343 42.16 186.103 43.14 185.623 43.86C185.143 44.54 184.423 45.04 183.463 45.36C181.623 45.96 179.663 46.26 177.583 46.26C175.823 46.26 174.163 46.02 172.603 45.54C171.443 47.42 170.163 49.36 168.763 51.36C167.163 53.64 165.783 55.2 164.623 56.04C163.463 56.88 162.143 57.3 160.663 57.3C159.023 57.3 157.723 56.66 156.763 55.38C155.843 54.1 155.263 52.08 155.023 49.32C154.543 43.72 154.303 38.82 154.303 34.62V32.52C154.343 31.2 154.703 30.28 155.383 29.76C156.063 29.24 157.083 28.98 158.443 28.98C159.483 28.98 160.243 29.22 160.723 29.7C161.243 30.14 161.503 30.9 161.503 31.98C161.503 36.58 161.783 42.56 162.343 49.92C164.743 46.36 166.543 43.52 167.743 41.4C167.143 40.24 166.843 38.86 166.843 37.26C166.843 35.9 167.143 34.58 167.743 33.3C168.343 32.02 169.163 30.98 170.203 30.18C171.243 29.38 172.423 28.98 173.743 28.98C174.903 28.98 175.843 29.4 176.563 30.24C177.283 31.04 177.643 32.22 177.643 33.78C177.643 35.58 177.163 37.64 176.203 39.96C177.723 39.88 179.743 39.58 182.263 39.06L183.883 38.76ZM188.996 25.08C187.316 25.08 186.056 24.7 185.216 23.94C184.376 23.14 183.956 22.04 183.956 20.64C183.956 19.24 184.496 18.08 185.576 17.16C186.696 16.2 188.076 15.72 189.716 15.72C191.196 15.72 192.396 16.08 193.316 16.8C194.236 17.52 194.696 18.54 194.696 19.86C194.696 21.46 194.176 22.74 193.136 23.7C192.096 24.62 190.716 25.08 188.996 25.08ZM188.516 57.3C185.916 57.3 184.016 56.38 182.816 54.54C181.656 52.7 181.076 50.26 181.076 47.22C181.076 45.42 181.296 43.12 181.736 40.32C182.216 37.48 182.816 34.84 183.536 32.4C183.896 31.12 184.376 30.24 184.976 29.76C185.576 29.28 186.536 29.04 187.856 29.04C189.896 29.04 190.916 29.72 190.916 31.08C190.916 32.08 190.536 34.4 189.776 38.04C188.816 42.44 188.336 45.42 188.336 46.98C188.336 48.18 188.496 49.1 188.816 49.74C189.136 50.38 189.676 50.7 190.436 50.7C191.156 50.7 192.056 50.2 193.136 49.2C194.216 48.2 195.656 46.62 197.456 44.46C197.936 43.9 198.476 43.62 199.076 43.62C199.596 43.62 199.996 43.86 200.276 44.34C200.596 44.82 200.756 45.48 200.756 46.32C200.756 47.92 200.376 49.16 199.616 50.04C195.656 54.88 191.956 57.3 188.516 57.3ZM229.981 43.62C230.501 43.62 230.901 43.86 231.181 44.34C231.501 44.82 231.661 45.48 231.661 46.32C231.661 47.92 231.281 49.16 230.521 50.04C228.881 52.04 227.081 53.76 225.121 55.2C223.161 56.6 221.221 57.3 219.301 57.3C216.261 57.3 213.941 55.52 212.341 51.96C210.661 54.08 209.181 55.5 207.901 56.22C206.661 56.94 205.201 57.3 203.521 57.3C201.081 57.3 199.061 56.4 197.461 54.6C195.901 52.76 195.121 50.38 195.121 47.46C195.121 44.26 195.801 41.3 197.161 38.58C198.521 35.82 200.381 33.58 202.741 31.86C205.141 30.1 207.821 29.06 210.781 28.74C211.541 20.98 212.981 14.36 215.101 8.88C217.261 3.36 220.081 0.599997 223.561 0.599997C225.281 0.599997 226.701 1.38 227.821 2.94C228.981 4.5 229.561 6.86 229.561 10.02C229.561 14.5 228.461 19.74 226.261 25.74C224.061 31.74 221.121 37.9 217.441 44.22C217.601 46.54 217.941 48.2 218.461 49.2C219.021 50.2 219.721 50.7 220.561 50.7C221.641 50.7 222.741 50.22 223.861 49.26C224.981 48.3 226.481 46.7 228.361 44.46C228.841 43.9 229.381 43.62 229.981 43.62ZM222.901 6.48C222.141 6.48 221.381 7.84 220.621 10.56C219.861 13.24 219.201 16.76 218.641 21.12C218.121 25.48 217.741 30.04 217.501 34.8C221.981 25.04 224.221 17.2 224.221 11.28C224.221 9.76 224.081 8.58 223.801 7.74C223.561 6.9 223.261 6.48 222.901 6.48ZM205.621 51.24C206.381 51.24 207.141 50.94 207.901 50.34C208.661 49.7 209.621 48.54 210.781 46.86C210.381 44.7 210.181 42.28 210.181 39.6C210.181 38.64 210.221 37.08 210.301 34.92C208.101 35.6 206.261 37.08 204.781 39.36C203.341 41.6 202.621 44.1 202.621 46.86C202.621 49.78 203.621 51.24 205.621 51.24ZM233.574 57.3C231.094 57.3 229.114 56.4 227.634 54.6C226.154 52.8 225.414 50.44 225.414 47.52C225.414 44.32 226.154 41.3 227.634 38.46C229.114 35.58 231.074 33.28 233.514 31.56C235.994 29.8 238.614 28.92 241.374 28.92C242.254 28.92 242.834 29.1 243.114 29.46C243.434 29.78 243.694 30.38 243.894 31.26C244.734 31.1 245.614 31.02 246.534 31.02C248.494 31.02 249.474 31.72 249.474 33.12C249.474 33.96 249.174 35.96 248.574 39.12C247.654 43.72 247.194 46.92 247.194 48.72C247.194 49.32 247.334 49.8 247.614 50.16C247.934 50.52 248.334 50.7 248.814 50.7C249.574 50.7 250.494 50.22 251.574 49.26C252.654 48.26 254.114 46.66 255.954 44.46C256.434 43.9 256.974 43.62 257.574 43.62C258.094 43.62 258.494 43.86 258.774 44.34C259.094 44.82 259.254 45.48 259.254 46.32C259.254 47.92 258.874 49.16 258.114 50.04C256.474 52.08 254.734 53.8 252.894 55.2C251.054 56.6 249.274 57.3 247.554 57.3C246.234 57.3 245.014 56.86 243.894 55.98C242.814 55.06 241.994 53.82 241.434 52.26C239.354 55.62 236.734 57.3 233.574 57.3ZM235.734 51.24C236.614 51.24 237.454 50.72 238.254 49.68C239.054 48.64 239.634 47.26 239.994 45.54L242.214 34.5C240.534 34.54 238.974 35.18 237.534 36.42C236.134 37.62 235.014 39.22 234.174 41.22C233.334 43.22 232.914 45.34 232.914 47.58C232.914 48.82 233.154 49.74 233.634 50.34C234.154 50.94 234.854 51.24 235.734 51.24ZM276.218 43.62C276.658 46.9 277.298 50.14 278.138 53.34C278.298 53.86 278.378 54.4 278.378 54.96C278.378 56.76 277.278 57.66 275.078 57.66C273.838 57.66 272.878 57.32 272.198 56.64C271.558 55.96 270.958 54.68 270.398 52.8L270.338 52.56C268.818 54.44 267.438 55.7 266.198 56.34C264.998 56.98 263.598 57.3 261.998 57.3C259.558 57.3 257.538 56.4 255.938 54.6C254.378 52.76 253.598 50.38 253.598 47.46C253.598 44.26 254.278 41.3 255.638 38.58C256.998 35.86 258.858 33.64 261.218 31.92C263.578 30.16 266.218 29.1 269.138 28.74C269.898 21.18 271.338 14.6 273.458 9C275.618 3.4 278.478 0.599997 282.038 0.599997C283.758 0.599997 285.178 1.38 286.298 2.94C287.458 4.5 288.038 6.86 288.038 10.02C288.038 14.42 286.958 19.56 284.798 25.44C282.638 31.32 279.778 37.38 276.218 43.62ZM281.378 6.48C280.218 6.48 279.118 9.44 278.078 15.36C277.078 21.28 276.398 27.72 276.038 34.68C280.478 25.08 282.698 17.28 282.698 11.28C282.698 9.76 282.558 8.58 282.278 7.74C282.038 6.9 281.738 6.48 281.378 6.48ZM264.098 51.24C264.898 51.24 265.658 50.94 266.378 50.34C267.138 49.74 268.098 48.58 269.258 46.86C268.858 43.94 268.658 40.92 268.658 37.8C268.658 36.56 268.678 35.6 268.718 34.92C266.518 35.56 264.698 37.02 263.258 39.3C261.818 41.58 261.098 44.1 261.098 46.86C261.098 49.78 262.098 51.24 264.098 51.24ZM320.847 29.04C321.767 29.04 322.407 29.16 322.767 29.4C323.127 29.64 323.307 30.04 323.307 30.6C323.307 31.56 322.787 34.98 321.747 40.86C320.827 46.5 320.287 49.84 320.127 50.88C318.647 61.16 316.607 69.3 314.007 75.3C311.407 81.3 307.947 84.3 303.627 84.3C301.587 84.3 299.927 83.66 298.647 82.38C297.367 81.14 296.727 79.5 296.727 77.46C296.727 75.58 297.147 73.66 297.987 71.7C298.867 69.74 300.467 67.48 302.787 64.92C305.147 62.4 308.467 59.5 312.747 56.22L312.927 54.84C313.207 53.36 313.527 51.24 313.887 48.48C313.087 51.36 311.967 53.56 310.527 55.08C309.087 56.56 307.567 57.3 305.967 57.3C304.167 57.3 302.687 56.48 301.527 54.84C300.407 53.16 299.847 51.08 299.847 48.6C299.847 45.6 300.047 42.86 300.447 40.38C300.847 37.86 301.507 35.2 302.427 32.4C302.827 31.2 303.387 30.34 304.107 29.82C304.827 29.3 305.967 29.04 307.527 29.04C308.407 29.04 309.007 29.18 309.327 29.46C309.687 29.74 309.867 30.16 309.867 30.72C309.867 31.04 309.647 32.12 309.207 33.96C308.807 35.44 308.487 36.78 308.247 37.98C307.927 39.62 307.647 41.2 307.407 42.72C307.167 44.2 307.047 45.42 307.047 46.38C307.047 47.9 307.467 48.66 308.307 48.66C308.907 48.66 309.647 48.06 310.527 46.86C311.447 45.66 312.407 43.84 313.407 41.4C314.447 38.96 315.447 35.96 316.407 32.4C316.727 31.2 317.207 30.34 317.847 29.82C318.527 29.3 319.527 29.04 320.847 29.04ZM304.287 78.48C305.287 78.48 306.407 77.32 307.647 75C308.887 72.68 310.127 68.82 311.367 63.42C308.287 66.02 306.047 68.38 304.647 70.5C303.287 72.66 302.607 74.54 302.607 76.14C302.607 76.82 302.727 77.38 302.967 77.82C303.247 78.26 303.687 78.48 304.287 78.48ZM354.139 57.3C350.219 57.3 347.159 56.2 344.959 54C342.799 51.76 341.719 48.82 341.719 45.18C341.719 41.94 342.359 39.1 343.639 36.66C344.919 34.22 346.579 32.34 348.619 31.02C350.659 29.7 352.799 29.04 355.039 29.04C357.239 29.04 358.939 29.7 360.139 31.02C361.379 32.3 361.999 33.96 361.999 36C361.999 37.68 361.619 39.1 360.859 40.26C360.139 41.42 359.179 42 357.979 42C357.219 42 356.599 41.82 356.119 41.46C355.679 41.1 355.459 40.6 355.459 39.96C355.459 39.68 355.499 39.36 355.579 39C355.659 38.64 355.719 38.38 355.759 38.22C355.959 37.62 356.059 37.06 356.059 36.54C356.059 36.02 355.919 35.62 355.639 35.34C355.399 35.06 355.039 34.92 354.559 34.92C353.639 34.92 352.779 35.34 351.979 36.18C351.179 36.98 350.539 38.08 350.059 39.48C349.579 40.88 349.339 42.42 349.339 44.1C349.339 48.74 351.359 51.06 355.399 51.06C357.039 51.06 358.799 50.52 360.679 49.44C362.599 48.32 364.479 46.66 366.319 44.46C366.799 43.9 367.339 43.62 367.939 43.62C368.459 43.62 368.859 43.86 369.139 44.34C369.459 44.82 369.619 45.48 369.619 46.32C369.619 47.84 369.239 49.08 368.479 50.04C366.599 52.36 364.339 54.16 361.699 55.44C359.099 56.68 356.579 57.3 354.139 57.3ZM371.563 57.3C369.083 57.3 367.103 56.4 365.623 54.6C364.143 52.8 363.403 50.44 363.403 47.52C363.403 44.32 364.143 41.3 365.623 38.46C367.103 35.58 369.063 33.28 371.503 31.56C373.983 29.8 376.603 28.92 379.363 28.92C380.243 28.92 380.823 29.1 381.103 29.46C381.423 29.78 381.683 30.38 381.883 31.26C382.723 31.1 383.603 31.02 384.523 31.02C386.483 31.02 387.463 31.72 387.463 33.12C387.463 33.96 387.163 35.96 386.563 39.12C385.643 43.72 385.183 46.92 385.183 48.72C385.183 49.32 385.323 49.8 385.603 50.16C385.923 50.52 386.323 50.7 386.803 50.7C387.563 50.7 388.483 50.22 389.563 49.26C390.643 48.26 392.103 46.66 393.943 44.46C394.423 43.9 394.963 43.62 395.563 43.62C396.083 43.62 396.483 43.86 396.763 44.34C397.083 44.82 397.243 45.48 397.243 46.32C397.243 47.92 396.863 49.16 396.103 50.04C394.463 52.08 392.723 53.8 390.883 55.2C389.043 56.6 387.263 57.3 385.543 57.3C384.223 57.3 383.003 56.86 381.883 55.98C380.803 55.06 379.983 53.82 379.423 52.26C377.343 55.62 374.723 57.3 371.563 57.3ZM373.723 51.24C374.603 51.24 375.443 50.72 376.243 49.68C377.043 48.64 377.623 47.26 377.983 45.54L380.203 34.5C378.523 34.54 376.963 35.18 375.523 36.42C374.123 37.62 373.003 39.22 372.163 41.22C371.323 43.22 370.903 45.34 370.903 47.58C370.903 48.82 371.143 49.74 371.623 50.34C372.143 50.94 372.843 51.24 373.723 51.24ZM415.106 43.62C415.626 43.62 416.026 43.86 416.306 44.34C416.626 44.82 416.786 45.48 416.786 46.32C416.786 47.92 416.406 49.16 415.646 50.04C413.926 52.16 412.046 53.9 410.006 55.26C408.006 56.62 405.726 57.3 403.166 57.3C399.646 57.3 397.026 55.7 395.306 52.5C393.626 49.3 392.786 45.16 392.786 40.08C392.786 35.2 393.406 29.64 394.646 23.4C395.926 17.16 397.786 11.8 400.226 7.32C402.706 2.84 405.646 0.599997 409.046 0.599997C410.966 0.599997 412.466 1.5 413.546 3.3C414.666 5.06 415.226 7.6 415.226 10.92C415.226 15.68 413.906 21.2 411.266 27.48C408.626 33.76 405.046 39.98 400.526 46.14C400.806 47.78 401.266 48.96 401.906 49.68C402.546 50.36 403.386 50.7 404.426 50.7C406.066 50.7 407.506 50.24 408.746 49.32C409.986 48.36 411.566 46.74 413.486 44.46C413.966 43.9 414.506 43.62 415.106 43.62ZM407.726 6.54C406.806 6.54 405.766 8.2 404.606 11.52C403.446 14.84 402.426 18.96 401.546 23.88C400.666 28.8 400.186 33.52 400.106 38.04C402.946 33.36 405.206 28.68 406.886 24C408.566 19.28 409.406 14.98 409.406 11.1C409.406 8.06 408.846 6.54 407.726 6.54ZM419.797 25.08C418.117 25.08 416.857 24.7 416.017 23.94C415.177 23.14 414.757 22.04 414.757 20.64C414.757 19.24 415.297 18.08 416.377 17.16C417.497 16.2 418.877 15.72 420.517 15.72C421.997 15.72 423.197 16.08 424.117 16.8C425.037 17.52 425.497 18.54 425.497 19.86C425.497 21.46 424.977 22.74 423.937 23.7C422.897 24.62 421.517 25.08 419.797 25.08ZM419.317 57.3C416.717 57.3 414.817 56.38 413.617 54.54C412.457 52.7 411.877 50.26 411.877 47.22C411.877 45.42 412.097 43.12 412.537 40.32C413.017 37.48 413.617 34.84 414.337 32.4C414.697 31.12 415.177 30.24 415.777 29.76C416.377 29.28 417.337 29.04 418.657 29.04C420.697 29.04 421.717 29.72 421.717 31.08C421.717 32.08 421.337 34.4 420.577 38.04C419.617 42.44 419.137 45.42 419.137 46.98C419.137 48.18 419.297 49.1 419.617 49.74C419.937 50.38 420.477 50.7 421.237 50.7C421.957 50.7 422.857 50.2 423.937 49.2C425.017 48.2 426.457 46.62 428.257 44.46C428.737 43.9 429.277 43.62 429.877 43.62C430.397 43.62 430.797 43.86 431.077 44.34C431.397 44.82 431.557 45.48 431.557 46.32C431.557 47.92 431.177 49.16 430.417 50.04C426.457 54.88 422.757 57.3 419.317 57.3ZM460.782 43.62C461.302 43.62 461.702 43.86 461.982 44.34C462.302 44.82 462.462 45.48 462.462 46.32C462.462 47.92 462.082 49.16 461.322 50.04C459.682 52.04 457.882 53.76 455.922 55.2C453.962 56.6 452.022 57.3 450.102 57.3C447.062 57.3 444.742 55.52 443.142 51.96C441.462 54.08 439.982 55.5 438.702 56.22C437.462 56.94 436.002 57.3 434.322 57.3C431.882 57.3 429.862 56.4 428.262 54.6C426.702 52.76 425.922 50.38 425.922 47.46C425.922 44.26 426.602 41.3 427.962 38.58C429.322 35.82 431.182 33.58 433.542 31.86C435.942 30.1 438.622 29.06 441.582 28.74C442.342 20.98 443.782 14.36 445.902 8.88C448.062 3.36 450.882 0.599997 454.362 0.599997C456.082 0.599997 457.502 1.38 458.622 2.94C459.782 4.5 460.362 6.86 460.362 10.02C460.362 14.5 459.262 19.74 457.062 25.74C454.862 31.74 451.922 37.9 448.242 44.22C448.402 46.54 448.742 48.2 449.262 49.2C449.822 50.2 450.522 50.7 451.362 50.7C452.442 50.7 453.542 50.22 454.662 49.26C455.782 48.3 457.282 46.7 459.162 44.46C459.642 43.9 460.182 43.62 460.782 43.62ZM453.702 6.48C452.942 6.48 452.182 7.84 451.422 10.56C450.662 13.24 450.002 16.76 449.442 21.12C448.922 25.48 448.542 30.04 448.302 34.8C452.782 25.04 455.022 17.2 455.022 11.28C455.022 9.76 454.882 8.58 454.602 7.74C454.362 6.9 454.062 6.48 453.702 6.48ZM436.422 51.24C437.182 51.24 437.942 50.94 438.702 50.34C439.462 49.7 440.422 48.54 441.582 46.86C441.182 44.7 440.982 42.28 440.982 39.6C440.982 38.64 441.022 37.08 441.102 34.92C438.902 35.6 437.062 37.08 435.582 39.36C434.142 41.6 433.422 44.1 433.422 46.86C433.422 49.78 434.422 51.24 436.422 51.24ZM464.375 57.3C461.895 57.3 459.915 56.4 458.435 54.6C456.955 52.8 456.215 50.44 456.215 47.52C456.215 44.32 456.955 41.3 458.435 38.46C459.915 35.58 461.875 33.28 464.315 31.56C466.795 29.8 469.415 28.92 472.175 28.92C473.055 28.92 473.635 29.1 473.915 29.46C474.235 29.78 474.495 30.38 474.695 31.26C475.535 31.1 476.415 31.02 477.335 31.02C479.295 31.02 480.275 31.72 480.275 33.12C480.275 33.96 479.975 35.96 479.375 39.12C478.455 43.72 477.995 46.92 477.995 48.72C477.995 49.32 478.135 49.8 478.415 50.16C478.735 50.52 479.135 50.7 479.615 50.7C480.375 50.7 481.295 50.22 482.375 49.26C483.455 48.26 484.915 46.66 486.755 44.46C487.235 43.9 487.775 43.62 488.375 43.62C488.895 43.62 489.295 43.86 489.575 44.34C489.895 44.82 490.055 45.48 490.055 46.32C490.055 47.92 489.675 49.16 488.915 50.04C487.275 52.08 485.535 53.8 483.695 55.2C481.855 56.6 480.075 57.3 478.355 57.3C477.035 57.3 475.815 56.86 474.695 55.98C473.615 55.06 472.795 53.82 472.235 52.26C470.155 55.62 467.535 57.3 464.375 57.3ZM466.535 51.24C467.415 51.24 468.255 50.72 469.055 49.68C469.855 48.64 470.435 47.26 470.795 45.54L473.015 34.5C471.335 34.54 469.775 35.18 468.335 36.42C466.935 37.62 465.815 39.22 464.975 41.22C464.135 43.22 463.715 45.34 463.715 47.58C463.715 48.82 463.955 49.74 464.435 50.34C464.955 50.94 465.655 51.24 466.535 51.24ZM507.019 43.62C507.459 46.9 508.099 50.14 508.939 53.34C509.099 53.86 509.179 54.4 509.179 54.96C509.179 56.76 508.079 57.66 505.879 57.66C504.639 57.66 503.679 57.32 502.999 56.64C502.359 55.96 501.759 54.68 501.199 52.8L501.139 52.56C499.619 54.44 498.239 55.7 496.999 56.34C495.799 56.98 494.399 57.3 492.799 57.3C490.359 57.3 488.339 56.4 486.739 54.6C485.179 52.76 484.399 50.38 484.399 47.46C484.399 44.26 485.079 41.3 486.439 38.58C487.799 35.86 489.659 33.64 492.019 31.92C494.379 30.16 497.019 29.1 499.939 28.74C500.699 21.18 502.139 14.6 504.259 9C506.419 3.4 509.279 0.599997 512.839 0.599997C514.559 0.599997 515.979 1.38 517.099 2.94C518.259 4.5 518.839 6.86 518.839 10.02C518.839 14.42 517.759 19.56 515.599 25.44C513.439 31.32 510.579 37.38 507.019 43.62ZM512.179 6.48C511.019 6.48 509.919 9.44 508.879 15.36C507.879 21.28 507.199 27.72 506.839 34.68C511.279 25.08 513.499 17.28 513.499 11.28C513.499 9.76 513.359 8.58 513.079 7.74C512.839 6.9 512.539 6.48 512.179 6.48ZM494.899 51.24C495.699 51.24 496.459 50.94 497.179 50.34C497.939 49.74 498.899 48.58 500.059 46.86C499.659 43.94 499.459 40.92 499.459 37.8C499.459 36.56 499.479 35.6 499.519 34.92C497.319 35.56 495.499 37.02 494.059 39.3C492.619 41.58 491.899 44.1 491.899 46.86C491.899 49.78 492.899 51.24 494.899 51.24ZM8.36938 162.3C5.88938 162.3 3.90938 161.4 2.42938 159.6C0.949375 157.8 0.209375 155.44 0.209375 152.52C0.209375 149.32 0.949375 146.3 2.42938 143.46C3.90938 140.58 5.86938 138.28 8.30938 136.56C10.7894 134.8 13.4094 133.92 16.1694 133.92C17.0494 133.92 17.6294 134.1 17.9094 134.46C18.2294 134.78 18.4894 135.38 18.6894 136.26C19.5294 136.1 20.4094 136.02 21.3294 136.02C23.2894 136.02 24.2694 136.72 24.2694 138.12C24.2694 138.96 23.9694 140.96 23.3694 144.12C22.4494 148.72 21.9894 151.92 21.9894 153.72C21.9894 154.32 22.1294 154.8 22.4094 155.16C22.7294 155.52 23.1294 155.7 23.6094 155.7C24.3694 155.7 25.2894 155.22 26.3694 154.26C27.4494 153.26 28.9094 151.66 30.7494 149.46C31.2294 148.9 31.7694 148.62 32.3694 148.62C32.8894 148.62 33.2894 148.86 33.5694 149.34C33.8894 149.82 34.0494 150.48 34.0494 151.32C34.0494 152.92 33.6694 154.16 32.9094 155.04C31.2694 157.08 29.5294 158.8 27.6894 160.2C25.8494 161.6 24.0694 162.3 22.3494 162.3C21.0294 162.3 19.8094 161.86 18.6894 160.98C17.6094 160.06 16.7894 158.82 16.2294 157.26C14.1494 160.62 11.5294 162.3 8.36938 162.3ZM10.5294 156.24C11.4094 156.24 12.2494 155.72 13.0494 154.68C13.8494 153.64 14.4294 152.26 14.7894 150.54L17.0094 139.5C15.3294 139.54 13.7694 140.18 12.3294 141.42C10.9294 142.62 9.80938 144.22 8.96938 146.22C8.12938 148.22 7.70938 150.34 7.70938 152.58C7.70938 153.82 7.94938 154.74 8.42938 155.34C8.94938 155.94 9.64938 156.24 10.5294 156.24ZM46.513 153.54C46.953 153.14 47.393 152.94 47.833 152.94C48.313 152.94 48.693 153.22 48.973 153.78C49.293 154.3 49.453 154.94 49.453 155.7C49.453 157.38 48.853 158.72 47.653 159.72C45.573 161.44 43.213 162.3 40.573 162.3C36.773 162.3 33.993 160.72 32.233 157.56C30.473 154.36 29.593 150.2 29.593 145.08C29.593 140.2 30.213 134.64 31.453 128.4C32.733 122.16 34.593 116.8 37.033 112.32C39.513 107.84 42.453 105.6 45.853 105.6C47.773 105.6 49.273 106.5 50.353 108.3C51.473 110.06 52.033 112.6 52.033 115.92C52.033 120.68 50.713 126.2 48.073 132.48C45.473 138.76 41.913 144.96 37.393 151.08C37.673 152.72 38.173 153.9 38.893 154.62C39.613 155.34 40.593 155.7 41.833 155.7C42.513 155.7 43.273 155.5 44.113 155.1C44.993 154.7 45.793 154.18 46.513 153.54ZM44.533 111.54C43.613 111.54 42.573 113.2 41.413 116.52C40.253 119.84 39.233 123.96 38.353 128.88C37.473 133.8 36.993 138.52 36.913 143.04C39.753 138.36 42.013 133.68 43.693 129C45.373 124.28 46.213 119.98 46.213 116.1C46.213 113.06 45.653 111.54 44.533 111.54ZM78.3017 163.62C76.2217 163.62 74.6217 163.14 73.5017 162.18C72.4217 161.22 71.8817 160.14 71.8817 158.94C71.8817 157.9 72.2617 157 73.0217 156.24C73.7817 155.48 74.9017 155.1 76.3817 155.1C76.9017 155.1 77.5017 155.16 78.1817 155.28C78.9017 155.36 79.4417 155.42 79.8017 155.46C79.7617 154.42 79.5217 153.44 79.0817 152.52C78.6817 151.6 78.1617 150.72 77.5217 149.88C76.8817 149 76.2817 148.24 75.7217 147.6C74.4817 149.96 73.2417 151.92 72.0017 153.48C70.8017 155.04 69.4817 156.52 68.0417 157.92C67.3217 158.64 66.5617 159 65.7617 159C65.1217 159 64.6017 158.78 64.2017 158.34C63.8017 157.86 63.6017 157.28 63.6017 156.6C63.6017 155.8 63.8817 155.06 64.4417 154.38L65.2217 153.42C67.4217 150.7 69.0817 148.46 70.2017 146.7C70.8817 145.54 71.6817 144 72.6017 142.08C73.5217 140.12 74.4217 138.1 75.3017 136.02C76.0617 134.26 77.6417 133.38 80.0417 133.38C81.1617 133.38 81.9417 133.48 82.3817 133.68C82.8217 133.88 83.0417 134.2 83.0417 134.64C83.0417 134.88 82.9617 135.26 82.8017 135.78C82.6417 136.3 82.4217 136.82 82.1417 137.34C81.4217 138.78 81.0617 140 81.0617 141C81.0617 141.6 81.2617 142.26 81.6617 142.98C82.1017 143.7 82.7617 144.6 83.6417 145.68C84.9217 147.36 85.8817 148.8 86.5217 150C87.2017 151.16 87.5417 152.44 87.5417 153.84C87.5417 154.24 87.5017 154.8 87.4217 155.52C89.3817 154.76 91.6817 152.74 94.3217 149.46C94.8017 148.9 95.3417 148.62 95.9417 148.62C96.4617 148.62 96.8617 148.86 97.1417 149.34C97.4617 149.82 97.6217 150.48 97.6217 151.32C97.6217 152.84 97.2417 154.08 96.4817 155.04C94.4817 157.52 92.5617 159.22 90.7217 160.14C88.9217 161.02 86.6817 161.5 84.0017 161.58C82.4017 162.94 80.5017 163.62 78.3017 163.62ZM119.507 148.62C120.027 148.62 120.427 148.86 120.707 149.34C121.027 149.82 121.187 150.48 121.187 151.32C121.187 152.92 120.807 154.16 120.047 155.04C118.567 156.84 116.467 158.5 113.747 160.02C111.067 161.54 108.187 162.3 105.107 162.3C100.907 162.3 97.6472 161.16 95.3272 158.88C93.0072 156.6 91.8472 153.48 91.8472 149.52C91.8472 146.76 92.4272 144.2 93.5872 141.84C94.7472 139.44 96.3472 137.54 98.3872 136.14C100.467 134.74 102.807 134.04 105.407 134.04C107.727 134.04 109.587 134.74 110.987 136.14C112.387 137.5 113.087 139.36 113.087 141.72C113.087 144.48 112.087 146.86 110.087 148.86C108.127 150.82 104.787 152.38 100.067 153.54C101.067 155.38 102.967 156.3 105.767 156.3C107.567 156.3 109.607 155.68 111.887 154.44C114.207 153.16 116.207 151.5 117.887 149.46C118.367 148.9 118.907 148.62 119.507 148.62ZM104.387 139.92C102.907 139.92 101.647 140.78 100.607 142.5C99.6072 144.22 99.1072 146.3 99.1072 148.74V148.86C101.467 148.3 103.327 147.46 104.687 146.34C106.047 145.22 106.727 143.92 106.727 142.44C106.727 141.68 106.507 141.08 106.067 140.64C105.667 140.16 105.107 139.92 104.387 139.92ZM120.562 162.3C119.042 162.3 117.962 161.5 117.322 159.9C116.722 158.3 116.422 155.74 116.422 152.22C116.422 147.02 117.162 142.08 118.642 137.4C119.002 136.24 119.582 135.4 120.382 134.88C121.222 134.32 122.382 134.04 123.862 134.04C124.662 134.04 125.222 134.14 125.542 134.34C125.862 134.54 126.022 134.92 126.022 135.48C126.022 136.12 125.722 137.56 125.122 139.8C124.722 141.4 124.402 142.8 124.162 144C123.922 145.2 123.722 146.68 123.562 148.44C124.882 145 126.362 142.2 128.002 140.04C129.642 137.88 131.242 136.34 132.802 135.42C134.402 134.5 135.862 134.04 137.182 134.04C139.782 134.04 141.082 135.34 141.082 137.94C141.082 138.46 140.902 139.72 140.542 141.72C140.222 143.32 140.062 144.32 140.062 144.72C140.062 146.12 140.562 146.82 141.562 146.82C142.682 146.82 144.122 145.94 145.882 144.18C146.402 143.66 146.942 143.4 147.502 143.4C148.022 143.4 148.422 143.64 148.702 144.12C149.022 144.56 149.182 145.16 149.182 145.92C149.182 147.4 148.782 148.56 147.982 149.4C146.862 150.56 145.542 151.56 144.022 152.4C142.542 153.2 140.962 153.6 139.282 153.6C137.162 153.6 135.542 153.06 134.422 151.98C133.342 150.9 132.802 149.44 132.802 147.6C132.802 147 132.862 146.4 132.982 145.8C133.062 145 133.102 144.46 133.102 144.18C133.102 143.54 132.882 143.22 132.442 143.22C131.842 143.22 131.042 143.9 130.042 145.26C129.082 146.58 128.122 148.34 127.162 150.54C126.202 152.74 125.422 155.06 124.822 157.5C124.382 159.38 123.862 160.66 123.262 161.34C122.702 161.98 121.802 162.3 120.562 162.3ZM175.709 143.76C175.829 143.72 176.029 143.7 176.309 143.7C176.909 143.7 177.369 143.9 177.689 144.3C178.009 144.7 178.169 145.24 178.169 145.92C178.169 147.16 177.929 148.14 177.449 148.86C176.969 149.54 176.249 150.04 175.289 150.36C173.449 150.96 171.489 151.26 169.409 151.26C167.649 151.26 165.989 151.02 164.429 150.54C163.269 152.42 161.989 154.36 160.589 156.36C158.989 158.64 157.609 160.2 156.449 161.04C155.289 161.88 153.969 162.3 152.489 162.3C150.849 162.3 149.549 161.66 148.589 160.38C147.669 159.1 147.089 157.08 146.849 154.32C146.369 148.72 146.129 143.82 146.129 139.62V137.52C146.169 136.2 146.529 135.28 147.209 134.76C147.889 134.24 148.909 133.98 150.269 133.98C151.309 133.98 152.069 134.22 152.549 134.7C153.069 135.14 153.329 135.9 153.329 136.98C153.329 141.58 153.609 147.56 154.169 154.92C156.569 151.36 158.369 148.52 159.569 146.4C158.969 145.24 158.669 143.86 158.669 142.26C158.669 140.9 158.969 139.58 159.569 138.3C160.169 137.02 160.989 135.98 162.029 135.18C163.069 134.38 164.249 133.98 165.569 133.98C166.729 133.98 167.669 134.4 168.389 135.24C169.109 136.04 169.469 137.22 169.469 138.78C169.469 140.58 168.989 142.64 168.029 144.96C169.549 144.88 171.569 144.58 174.089 144.06L175.709 143.76ZM180.822 130.08C179.142 130.08 177.882 129.7 177.042 128.94C176.202 128.14 175.782 127.04 175.782 125.64C175.782 124.24 176.322 123.08 177.402 122.16C178.522 121.2 179.902 120.72 181.542 120.72C183.022 120.72 184.222 121.08 185.142 121.8C186.062 122.52 186.522 123.54 186.522 124.86C186.522 126.46 186.002 127.74 184.962 128.7C183.922 129.62 182.542 130.08 180.822 130.08ZM180.342 162.3C177.742 162.3 175.842 161.38 174.642 159.54C173.482 157.7 172.902 155.26 172.902 152.22C172.902 150.42 173.122 148.12 173.562 145.32C174.042 142.48 174.642 139.84 175.362 137.4C175.722 136.12 176.202 135.24 176.802 134.76C177.402 134.28 178.362 134.04 179.682 134.04C181.722 134.04 182.742 134.72 182.742 136.08C182.742 137.08 182.362 139.4 181.602 143.04C180.642 147.44 180.162 150.42 180.162 151.98C180.162 153.18 180.322 154.1 180.642 154.74C180.962 155.38 181.502 155.7 182.262 155.7C182.982 155.7 183.882 155.2 184.962 154.2C186.042 153.2 187.482 151.62 189.282 149.46C189.762 148.9 190.302 148.62 190.902 148.62C191.422 148.62 191.822 148.86 192.102 149.34C192.422 149.82 192.582 150.48 192.582 151.32C192.582 152.92 192.202 154.16 191.442 155.04C187.482 159.88 183.782 162.3 180.342 162.3ZM199.188 162.3C195.268 162.3 192.208 161.2 190.008 159C187.848 156.76 186.768 153.82 186.768 150.18C186.768 146.94 187.408 144.1 188.688 141.66C189.968 139.22 191.628 137.34 193.668 136.02C195.708 134.7 197.848 134.04 200.088 134.04C202.288 134.04 203.988 134.7 205.188 136.02C206.428 137.3 207.048 138.96 207.048 141C207.048 142.68 206.668 144.1 205.908 145.26C205.188 146.42 204.228 147 203.028 147C202.268 147 201.648 146.82 201.168 146.46C200.728 146.1 200.508 145.6 200.508 144.96C200.508 144.68 200.548 144.36 200.628 144C200.708 143.64 200.768 143.38 200.808 143.22C201.008 142.62 201.108 142.06 201.108 141.54C201.108 141.02 200.968 140.62 200.688 140.34C200.448 140.06 200.088 139.92 199.608 139.92C198.688 139.92 197.828 140.34 197.028 141.18C196.228 141.98 195.588 143.08 195.108 144.48C194.628 145.88 194.388 147.42 194.388 149.1C194.388 153.74 196.408 156.06 200.448 156.06C202.088 156.06 203.848 155.52 205.728 154.44C207.648 153.32 209.528 151.66 211.368 149.46C211.848 148.9 212.388 148.62 212.988 148.62C213.508 148.62 213.908 148.86 214.188 149.34C214.508 149.82 214.668 150.48 214.668 151.32C214.668 152.84 214.288 154.08 213.528 155.04C211.648 157.36 209.388 159.16 206.748 160.44C204.148 161.68 201.628 162.3 199.188 162.3ZM217.678 130.08C215.998 130.08 214.738 129.7 213.898 128.94C213.058 128.14 212.638 127.04 212.638 125.64C212.638 124.24 213.178 123.08 214.258 122.16C215.378 121.2 216.758 120.72 218.398 120.72C219.878 120.72 221.078 121.08 221.998 121.8C222.918 122.52 223.378 123.54 223.378 124.86C223.378 126.46 222.858 127.74 221.818 128.7C220.778 129.62 219.398 130.08 217.678 130.08ZM217.198 162.3C214.598 162.3 212.698 161.38 211.498 159.54C210.338 157.7 209.758 155.26 209.758 152.22C209.758 150.42 209.978 148.12 210.418 145.32C210.898 142.48 211.498 139.84 212.218 137.4C212.578 136.12 213.058 135.24 213.658 134.76C214.258 134.28 215.218 134.04 216.538 134.04C218.578 134.04 219.598 134.72 219.598 136.08C219.598 137.08 219.218 139.4 218.458 143.04C217.498 147.44 217.018 150.42 217.018 151.98C217.018 153.18 217.178 154.1 217.498 154.74C217.818 155.38 218.358 155.7 219.118 155.7C219.838 155.7 220.738 155.2 221.818 154.2C222.898 153.2 224.338 151.62 226.138 149.46C226.618 148.9 227.158 148.62 227.758 148.62C228.278 148.62 228.678 148.86 228.958 149.34C229.278 149.82 229.438 150.48 229.438 151.32C229.438 152.92 229.058 154.16 228.298 155.04C224.338 159.88 220.638 162.3 217.198 162.3ZM234.723 162.3C232.363 162.3 230.343 161.72 228.663 160.56C227.023 159.36 225.783 157.8 224.943 155.88C224.103 153.96 223.683 151.9 223.683 149.7C223.683 146.66 224.243 143.96 225.363 141.6C226.523 139.2 228.083 137.34 230.043 136.02C232.003 134.66 234.203 133.98 236.643 133.98C239.003 133.98 241.023 134.58 242.703 135.78C244.383 136.94 245.643 138.48 246.483 140.4C247.323 142.32 247.743 144.38 247.743 146.58C247.743 149.62 247.163 152.34 246.003 154.74C244.843 157.1 243.263 158.96 241.263 160.32C239.303 161.64 237.123 162.3 234.723 162.3ZM235.383 155.82C236.743 155.82 237.883 155.08 238.803 153.6C239.763 152.12 240.243 149.96 240.243 147.12C240.243 144.92 239.843 143.26 239.043 142.14C238.243 141.02 237.283 140.46 236.163 140.46C234.723 140.46 233.523 141.2 232.563 142.68C231.643 144.12 231.183 146.28 231.183 149.16C231.183 151.44 231.583 153.12 232.383 154.2C233.183 155.28 234.183 155.82 235.383 155.82ZM301.73 148.62C302.25 148.62 302.65 148.86 302.93 149.34C303.25 149.82 303.41 150.48 303.41 151.32C303.41 152.92 303.03 154.16 302.27 155.04C300.63 157.04 298.83 158.76 296.87 160.2C294.91 161.6 292.97 162.3 291.05 162.3C288.01 162.3 285.69 160.52 284.09 156.96C282.41 159.08 280.93 160.5 279.65 161.22C278.41 161.94 276.95 162.3 275.27 162.3C272.83 162.3 270.81 161.4 269.21 159.6C267.65 157.76 266.87 155.38 266.87 152.46C266.87 149.26 267.55 146.3 268.91 143.58C270.27 140.82 272.13 138.58 274.49 136.86C276.89 135.1 279.57 134.06 282.53 133.74C283.29 125.98 284.73 119.36 286.85 113.88C289.01 108.36 291.83 105.6 295.31 105.6C297.03 105.6 298.45 106.38 299.57 107.94C300.73 109.5 301.31 111.86 301.31 115.02C301.31 119.5 300.21 124.74 298.01 130.74C295.81 136.74 292.87 142.9 289.19 149.22C289.35 151.54 289.69 153.2 290.21 154.2C290.77 155.2 291.47 155.7 292.31 155.7C293.39 155.7 294.49 155.22 295.61 154.26C296.73 153.3 298.23 151.7 300.11 149.46C300.59 148.9 301.13 148.62 301.73 148.62ZM294.65 111.48C293.89 111.48 293.13 112.84 292.37 115.56C291.61 118.24 290.95 121.76 290.39 126.12C289.87 130.48 289.49 135.04 289.25 139.8C293.73 130.04 295.97 122.2 295.97 116.28C295.97 114.76 295.83 113.58 295.55 112.74C295.31 111.9 295.01 111.48 294.65 111.48ZM277.37 156.24C278.13 156.24 278.89 155.94 279.65 155.34C280.41 154.7 281.37 153.54 282.53 151.86C282.13 149.7 281.93 147.28 281.93 144.6C281.93 143.64 281.97 142.08 282.05 139.92C279.85 140.6 278.01 142.08 276.53 144.36C275.09 146.6 274.37 149.1 274.37 151.86C274.37 154.78 275.37 156.24 277.37 156.24ZM320.008 150.42C320.528 150.42 320.928 150.66 321.208 151.14C321.528 151.62 321.688 152.28 321.688 153.12C321.688 154.56 321.348 155.8 320.668 156.84C319.548 158.56 318.068 159.9 316.228 160.86C314.428 161.82 312.268 162.3 309.748 162.3C305.908 162.3 302.928 161.16 300.808 158.88C298.688 156.56 297.628 153.44 297.628 149.52C297.628 146.76 298.208 144.2 299.368 141.84C300.528 139.44 302.128 137.54 304.168 136.14C306.248 134.74 308.588 134.04 311.188 134.04C313.508 134.04 315.368 134.74 316.768 136.14C318.168 137.5 318.868 139.36 318.868 141.72C318.868 144.48 317.868 146.86 315.868 148.86C313.908 150.82 310.548 152.38 305.788 153.54C306.748 155.38 308.368 156.3 310.648 156.3C312.288 156.3 313.628 155.92 314.668 155.16C315.748 154.4 316.988 153.12 318.388 151.32C318.868 150.72 319.408 150.42 320.008 150.42ZM310.168 139.92C308.688 139.92 307.428 140.78 306.388 142.5C305.388 144.22 304.888 146.3 304.888 148.74V148.86C307.248 148.3 309.108 147.46 310.468 146.34C311.828 145.22 312.508 143.92 312.508 142.44C312.508 141.68 312.288 141.08 311.848 140.64C311.448 140.16 310.888 139.92 310.168 139.92ZM365.835 148.62C366.355 148.62 366.755 148.86 367.035 149.34C367.355 149.82 367.515 150.48 367.515 151.32C367.515 152.92 367.135 154.16 366.375 155.04C364.655 157.16 362.775 158.9 360.735 160.26C358.695 161.62 356.355 162.3 353.715 162.3C345.555 162.3 341.475 156.56 341.475 145.08C341.475 143.32 341.535 141.54 341.655 139.74H339.315C338.115 139.74 337.295 139.52 336.855 139.08C336.455 138.64 336.255 137.94 336.255 136.98C336.255 134.74 337.155 133.62 338.955 133.62H342.375C343.055 129.22 344.095 125.2 345.495 121.56C346.895 117.92 348.575 115.02 350.535 112.86C352.535 110.7 354.675 109.62 356.955 109.62C358.635 109.62 359.955 110.36 360.915 111.84C361.875 113.32 362.355 115.18 362.355 117.42C362.355 123.62 359.755 129.02 354.555 133.62H361.275C361.915 133.62 362.375 133.76 362.655 134.04C362.935 134.32 363.075 134.84 363.075 135.6C363.075 138.36 360.815 139.74 356.295 139.74H348.975C348.895 141.74 348.855 143.3 348.855 144.42C348.855 148.58 349.335 151.5 350.295 153.18C351.295 154.86 352.855 155.7 354.975 155.7C356.695 155.7 358.215 155.18 359.535 154.14C360.855 153.1 362.415 151.54 364.215 149.46C364.695 148.9 365.235 148.62 365.835 148.62ZM355.335 115.38C354.735 115.38 354.055 116.14 353.295 117.66C352.575 119.14 351.875 121.22 351.195 123.9C350.555 126.54 350.015 129.48 349.575 132.72C351.935 130.68 353.695 128.4 354.855 125.88C356.055 123.32 356.655 121 356.655 118.92C356.655 116.56 356.215 115.38 355.335 115.38ZM368.87 162.3C366.99 162.3 365.47 161.54 364.31 160.02C363.19 158.46 362.63 156.32 362.63 153.6C362.63 150.6 362.83 147.86 363.23 145.38C363.63 142.86 364.29 140.2 365.21 137.4C365.61 136.2 366.17 135.34 366.89 134.82C367.61 134.3 368.75 134.04 370.31 134.04C371.19 134.04 371.79 134.18 372.11 134.46C372.47 134.74 372.65 135.16 372.65 135.72C372.65 136.04 372.43 137.12 371.99 138.96C371.59 140.44 371.27 141.78 371.03 142.98C370.23 147.18 369.83 149.98 369.83 151.38C369.83 152.22 369.93 152.82 370.13 153.18C370.33 153.5 370.65 153.66 371.09 153.66C371.69 153.66 372.45 153.06 373.37 151.86C374.29 150.62 375.25 148.78 376.25 146.34C377.29 143.86 378.27 140.88 379.19 137.4C379.51 136.2 379.99 135.34 380.63 134.82C381.31 134.3 382.31 134.04 383.63 134.04C384.51 134.04 385.13 134.28 385.49 134.76C385.89 135.2 386.09 135.88 386.09 136.8C386.09 137.8 386.01 138.92 385.85 140.16C385.69 141.36 385.51 142.6 385.31 143.88C384.91 146.44 384.59 148.78 384.35 150.9C384.11 152.98 383.99 155.36 383.99 158.04C383.99 159.56 383.67 160.66 383.03 161.34C382.43 161.98 381.43 162.3 380.03 162.3C378.55 162.3 377.51 161.92 376.91 161.16C376.35 160.36 376.07 158.84 376.07 156.6C376.07 156.16 376.11 155.18 376.19 153.66C375.51 156.46 374.49 158.6 373.13 160.08C371.81 161.56 370.39 162.3 368.87 162.3ZM417.267 163.62C415.187 163.62 413.587 163.14 412.467 162.18C411.387 161.22 410.847 160.14 410.847 158.94C410.847 157.9 411.227 157 411.987 156.24C412.747 155.48 413.867 155.1 415.347 155.1C415.867 155.1 416.467 155.16 417.147 155.28C417.867 155.36 418.407 155.42 418.767 155.46C418.727 154.42 418.487 153.44 418.047 152.52C417.647 151.6 417.127 150.72 416.487 149.88C415.847 149 415.247 148.24 414.687 147.6C413.447 149.96 412.207 151.92 410.967 153.48C409.767 155.04 408.447 156.52 407.007 157.92C406.287 158.64 405.527 159 404.727 159C404.087 159 403.567 158.78 403.167 158.34C402.767 157.86 402.567 157.28 402.567 156.6C402.567 155.8 402.847 155.06 403.407 154.38L404.187 153.42C406.387 150.7 408.047 148.46 409.167 146.7C409.847 145.54 410.647 144 411.567 142.08C412.487 140.12 413.387 138.1 414.267 136.02C415.027 134.26 416.607 133.38 419.007 133.38C420.127 133.38 420.907 133.48 421.347 133.68C421.787 133.88 422.007 134.2 422.007 134.64C422.007 134.88 421.927 135.26 421.767 135.78C421.607 136.3 421.387 136.82 421.107 137.34C420.387 138.78 420.027 140 420.027 141C420.027 141.6 420.227 142.26 420.627 142.98C421.067 143.7 421.727 144.6 422.607 145.68C423.887 147.36 424.847 148.8 425.487 150C426.167 151.16 426.507 152.44 426.507 153.84C426.507 154.24 426.467 154.8 426.387 155.52C428.347 154.76 430.647 152.74 433.287 149.46C433.767 148.9 434.307 148.62 434.907 148.62C435.427 148.62 435.827 148.86 436.107 149.34C436.427 149.82 436.587 150.48 436.587 151.32C436.587 152.84 436.207 154.08 435.447 155.04C433.447 157.52 431.527 159.22 429.687 160.14C427.887 161.02 425.647 161.5 422.967 161.58C421.367 162.94 419.467 163.62 417.267 163.62ZM439.092 162.3C436.612 162.3 434.632 161.4 433.152 159.6C431.672 157.8 430.932 155.44 430.932 152.52C430.932 149.32 431.672 146.3 433.152 143.46C434.632 140.58 436.592 138.28 439.032 136.56C441.512 134.8 444.132 133.92 446.892 133.92C447.772 133.92 448.352 134.1 448.632 134.46C448.952 134.78 449.212 135.38 449.412 136.26C450.252 136.1 451.132 136.02 452.052 136.02C454.012 136.02 454.992 136.72 454.992 138.12C454.992 138.96 454.692 140.96 454.092 144.12C453.172 148.72 452.712 151.92 452.712 153.72C452.712 154.32 452.852 154.8 453.132 155.16C453.452 155.52 453.852 155.7 454.332 155.7C455.092 155.7 456.012 155.22 457.092 154.26C458.172 153.26 459.632 151.66 461.472 149.46C461.952 148.9 462.492 148.62 463.092 148.62C463.612 148.62 464.012 148.86 464.292 149.34C464.612 149.82 464.772 150.48 464.772 151.32C464.772 152.92 464.392 154.16 463.632 155.04C461.992 157.08 460.252 158.8 458.412 160.2C456.572 161.6 454.792 162.3 453.072 162.3C451.752 162.3 450.532 161.86 449.412 160.98C448.332 160.06 447.512 158.82 446.952 157.26C444.872 160.62 442.252 162.3 439.092 162.3ZM441.252 156.24C442.132 156.24 442.972 155.72 443.772 154.68C444.572 153.64 445.152 152.26 445.512 150.54L447.732 139.5C446.052 139.54 444.492 140.18 443.052 141.42C441.652 142.62 440.532 144.22 439.692 146.22C438.852 148.22 438.432 150.34 438.432 152.58C438.432 153.82 438.672 154.74 439.152 155.34C439.672 155.94 440.372 156.24 441.252 156.24ZM482.636 148.62C483.156 148.62 483.556 148.86 483.836 149.34C484.156 149.82 484.316 150.48 484.316 151.32C484.316 152.92 483.936 154.16 483.176 155.04C481.456 157.16 479.576 158.9 477.536 160.26C475.536 161.62 473.256 162.3 470.696 162.3C467.176 162.3 464.556 160.7 462.836 157.5C461.156 154.3 460.316 150.16 460.316 145.08C460.316 140.2 460.936 134.64 462.176 128.4C463.456 122.16 465.316 116.8 467.756 112.32C470.236 107.84 473.176 105.6 476.576 105.6C478.496 105.6 479.996 106.5 481.076 108.3C482.196 110.06 482.756 112.6 482.756 115.92C482.756 120.68 481.436 126.2 478.796 132.48C476.156 138.76 472.576 144.98 468.056 151.14C468.336 152.78 468.796 153.96 469.436 154.68C470.076 155.36 470.916 155.7 471.956 155.7C473.596 155.7 475.036 155.24 476.276 154.32C477.516 153.36 479.096 151.74 481.016 149.46C481.496 148.9 482.036 148.62 482.636 148.62ZM475.256 111.54C474.336 111.54 473.296 113.2 472.136 116.52C470.976 119.84 469.956 123.96 469.076 128.88C468.196 133.8 467.716 138.52 467.636 143.04C470.476 138.36 472.736 133.68 474.416 129C476.096 124.28 476.936 119.98 476.936 116.1C476.936 113.06 476.376 111.54 475.256 111.54ZM485.586 162.3C483.786 162.3 482.306 161.48 481.146 159.84C480.026 158.16 479.466 156.08 479.466 153.6C479.466 150.6 479.666 147.86 480.066 145.38C480.466 142.86 481.126 140.2 482.046 137.4C482.446 136.2 483.006 135.34 483.726 134.82C484.446 134.3 485.586 134.04 487.146 134.04C488.026 134.04 488.626 134.18 488.946 134.46C489.306 134.74 489.486 135.16 489.486 135.72C489.486 136.04 489.266 137.12 488.826 138.96C488.426 140.44 488.106 141.78 487.866 142.98C487.066 147.18 486.666 149.98 486.666 151.38C486.666 152.22 486.766 152.82 486.966 153.18C487.166 153.5 487.486 153.66 487.926 153.66C488.526 153.66 489.266 153.06 490.146 151.86C491.066 150.66 492.026 148.84 493.026 146.4C494.066 143.96 495.066 140.96 496.026 137.4C496.346 136.2 496.826 135.34 497.466 134.82C498.146 134.3 499.146 134.04 500.466 134.04C501.386 134.04 502.026 134.16 502.386 134.4C502.746 134.6 502.926 135 502.926 135.6C502.926 136.6 502.426 139.34 501.426 143.82C500.306 148.94 499.746 152.1 499.746 153.3C499.746 154.06 499.906 154.66 500.226 155.1C500.546 155.5 500.966 155.7 501.486 155.7C502.286 155.7 503.226 155.22 504.306 154.26C505.426 153.26 506.906 151.66 508.746 149.46C509.226 148.9 509.766 148.62 510.366 148.62C510.886 148.62 511.286 148.86 511.566 149.34C511.886 149.82 512.046 150.48 512.046 151.32C512.046 152.92 511.666 154.16 510.906 155.04C509.186 157.16 507.326 158.9 505.326 160.26C503.366 161.62 501.126 162.3 498.606 162.3C496.686 162.3 495.266 161.56 494.346 160.08C493.466 158.6 493.026 156.52 493.026 153.84C492.346 156.56 491.326 158.66 489.966 160.14C488.606 161.58 487.146 162.3 485.586 162.3ZM529.021 148.62C529.461 151.9 530.101 155.14 530.941 158.34C531.101 158.86 531.181 159.4 531.181 159.96C531.181 161.76 530.081 162.66 527.881 162.66C526.641 162.66 525.681 162.32 525.001 161.64C524.361 160.96 523.761 159.68 523.201 157.8L523.141 157.56C521.621 159.44 520.241 160.7 519.001 161.34C517.801 161.98 516.401 162.3 514.801 162.3C512.361 162.3 510.341 161.4 508.741 159.6C507.181 157.76 506.401 155.38 506.401 152.46C506.401 149.26 507.081 146.3 508.441 143.58C509.801 140.86 511.661 138.64 514.021 136.92C516.381 135.16 519.021 134.1 521.941 133.74C522.701 126.18 524.141 119.6 526.261 114C528.421 108.4 531.281 105.6 534.841 105.6C536.561 105.6 537.981 106.38 539.101 107.94C540.261 109.5 540.841 111.86 540.841 115.02C540.841 119.42 539.761 124.56 537.601 130.44C535.441 136.32 532.581 142.38 529.021 148.62ZM534.181 111.48C533.021 111.48 531.921 114.44 530.881 120.36C529.881 126.28 529.201 132.72 528.841 139.68C533.281 130.08 535.501 122.28 535.501 116.28C535.501 114.76 535.361 113.58 535.081 112.74C534.841 111.9 534.541 111.48 534.181 111.48ZM516.901 156.24C517.701 156.24 518.461 155.94 519.181 155.34C519.941 154.74 520.901 153.58 522.061 151.86C521.661 148.94 521.461 145.92 521.461 142.8C521.461 141.56 521.481 140.6 521.521 139.92C519.321 140.56 517.501 142.02 516.061 144.3C514.621 146.58 513.901 149.1 513.901 151.86C513.901 154.78 514.901 156.24 516.901 156.24Z" fill="#7C1EB6"/>
</svg>
