<svg width="3733" height="4003" viewBox="0 0 3733 4003" fill="none" xmlns="http://www.w3.org/2000/svg">
<g id="grafo_1" clip-path="url(#clip0_9_75)">
<g id="diseno05">
<g id="transporte">
<path id="rect1029" d="M632.232 953.789H522.799V1048.18H632.232V953.789Z" stroke="white" stroke-width="11.6281" stroke-linecap="round" stroke-linejoin="round"/>
<g id="path1031">
<path id="path1300" d="M566.775 1079.13C566.775 1083.75 565.262 1088.18 562.562 1091.49C559.851 1094.79 556.174 1096.71 552.295 1096.82C548.427 1096.94 544.672 1095.25 541.828 1092.11C538.984 1088.97 537.289 1084.63 537.097 1080.02C536.896 1075.41 538.227 1070.89 540.784 1067.43C543.351 1063.96 546.942 1061.83 550.811 1061.48C554.67 1061.14 558.492 1062.6 561.46 1065.57C564.429 1068.53 566.316 1072.76 566.699 1077.35" stroke="white" stroke-width="11.6281"/>
<path id="path1302" d="M566.775 1079.13C566.775 1083.75 565.262 1088.18 562.562 1091.49C559.851 1094.79 556.174 1096.71 552.295 1096.82C548.427 1096.94 544.672 1095.25 541.828 1092.11C538.984 1088.97 537.289 1084.63 537.097 1080.02C536.896 1075.41 538.227 1070.89 540.784 1067.43C543.351 1063.96 546.942 1061.83 550.811 1061.48C554.67 1061.14 558.492 1062.6 561.46 1065.57C564.429 1068.53 566.316 1072.76 566.699 1077.35" stroke="white" stroke-width="11.6281" stroke-linecap="round" stroke-linejoin="round"/>
</g>
<g id="path1031-4">
<path id="path1305" d="M674.906 1079.9C674.906 1084.51 673.393 1088.95 670.692 1092.25C667.982 1095.56 664.304 1097.47 660.426 1097.59C656.557 1097.7 652.793 1096.01 649.959 1092.87C647.114 1089.73 645.419 1085.4 645.218 1080.79C645.027 1076.17 646.348 1071.66 648.915 1068.19C651.472 1064.73 655.073 1062.6 658.932 1062.25C662.801 1061.9 666.622 1063.37 669.591 1066.33C672.56 1069.3 674.446 1073.53 674.829 1078.12" stroke="white" stroke-width="11.6281"/>
<path id="path1307" d="M674.906 1079.9C674.906 1084.51 673.393 1088.95 670.692 1092.25C667.982 1095.56 664.304 1097.47 660.426 1097.59C656.557 1097.7 652.793 1096.01 649.959 1092.87C647.114 1089.73 645.419 1085.4 645.218 1080.79C645.027 1076.17 646.348 1071.66 648.915 1068.19C651.472 1064.73 655.073 1062.6 658.932 1062.25C662.801 1061.9 666.622 1063.37 669.591 1066.33C672.56 1069.3 674.446 1073.53 674.829 1078.12" stroke="white" stroke-width="11.6281" stroke-linecap="round" stroke-linejoin="round"/>
</g>
<g id="path1048">
<path id="path1310" d="M524.36 1063.66L693.207 1065.62L524.36 1063.66Z" stroke="white" stroke-width="11.6281"/>
<path id="path1312" d="M524.36 1063.66L693.207 1065.62" stroke="white" stroke-width="11.6281" stroke-linecap="round"/>
</g>
<path id="path1050" d="M647.871 1058.01V973.453L665.272 971.232L687.154 1018.68L688.313 1065.62C671.43 1064.48 662.983 1035.74 647.871 1058.01Z" stroke="white" stroke-width="11.6281"/>
<path id="path1052" d="M654.124 1020.65L652.765 985.761L665.272 983.54L677.367 1018.68L654.124 1020.65Z" stroke="white" stroke-width="11.6281" stroke-linejoin="round"/>
</g>
<g id="ubicacion">
<path id="path1054" d="M1818.27 751.986C1818.27 751.986 1878.39 679.004 1882.44 636.758C1890.9 548.621 1754.39 526.411 1751.96 639.212C1751.16 676.118 1818.27 751.986 1818.27 751.986Z" stroke="#F8FBFD" stroke-width="12.7554" stroke-linecap="round"/>
<g id="path1056">
<path id="path1319" d="M1853.19 624.587C1853.19 632.748 1849.38 640.586 1842.58 646.428C1835.78 652.271 1826.52 655.656 1816.78 655.861C1807.05 656.066 1797.6 653.076 1790.45 647.526C1783.31 641.978 1779.04 634.309 1778.54 626.159C1778.05 618.008 1781.38 610.02 1787.83 603.899C1794.27 597.777 1803.32 594.007 1813.03 593.392C1822.74 592.777 1832.36 595.367 1839.82 600.608C1847.29 605.849 1852.03 613.327 1853 621.447" fill="white"/>
<path id="path1321" d="M1853.19 624.587C1853.19 632.748 1849.38 640.586 1842.58 646.428C1835.78 652.271 1826.52 655.656 1816.78 655.861C1807.05 656.066 1797.6 653.076 1790.45 647.526C1783.31 641.978 1779.04 634.309 1778.54 626.159C1778.05 618.008 1781.38 610.02 1787.83 603.899C1794.27 597.777 1803.32 594.007 1813.03 593.392C1822.74 592.777 1832.36 595.367 1839.82 600.608C1847.29 605.849 1852.03 613.327 1853 621.447" fill="white"/>
</g>
</g>
<g id="calendario">
<path id="rect1058" d="M3065.75 965.782H2986.84C2972.56 965.782 2960.99 978.705 2960.99 994.645V1079.71C2960.99 1095.65 2972.56 1108.58 2986.84 1108.58H3065.75C3080.02 1108.58 3091.59 1095.65 3091.59 1079.71V994.645C3091.59 978.705 3080.02 965.782 3065.75 965.782V965.782Z" stroke="white" stroke-width="8.99795" stroke-linecap="round" stroke-linejoin="round"/>
<g id="text1062">
<path id="path1326" d="M2993.33 1010.42V1046.67H2990.58V1015.02H2990.45L2984.93 1020.89V1016.43L2990.58 1010.42H2993.33ZM3006.9 1047.16C3005.61 1047.16 3004.45 1046.75 3003.4 1045.92C3002.37 1045.1 3001.54 1043.96 3000.91 1042.52C3000.28 1041.08 2999.94 1039.44 2999.88 1037.6H3002.53C3002.63 1039.24 3003.1 1040.6 3003.93 1041.68C3004.76 1042.74 3005.75 1043.27 3006.9 1043.27C3007.84 1043.27 3008.66 1042.92 3009.39 1042.22C3010.11 1041.53 3010.69 1040.57 3011.1 1039.36C3011.52 1038.13 3011.73 1036.74 3011.73 1035.2C3011.73 1033.61 3011.51 1032.2 3011.08 1030.97C3010.65 1029.71 3010.06 1028.73 3009.31 1028.01C3008.55 1027.29 3007.7 1026.92 3006.73 1026.91C3006.04 1026.9 3005.33 1027.07 3004.6 1027.43C3003.87 1027.77 3003.27 1028.21 3002.8 1028.75L3000.23 1028.26L3001.61 1010.42H3013.36V1014.31H3003.9L3003.11 1025H3003.24C3003.7 1024.41 3004.28 1023.92 3004.98 1023.53C3005.68 1023.14 3006.41 1022.95 3007.17 1022.95C3008.56 1022.95 3009.79 1023.48 3010.87 1024.54C3011.96 1025.59 3012.82 1027.03 3013.44 1028.86C3014.06 1030.69 3014.38 1032.78 3014.38 1035.13C3014.38 1037.44 3014.05 1039.5 3013.41 1041.32C3012.76 1043.13 3011.88 1044.55 3010.76 1045.6C3009.63 1046.64 3008.34 1047.16 3006.9 1047.16V1047.16Z" stroke="white" stroke-width="0.984633"/>
<path id="path1328" d="M2993.33 1010.42H2995.51V1006.92H2993.33V1010.42ZM2993.33 1046.67V1050.16H2995.51V1046.67H2993.33ZM2990.58 1046.67H2988.4V1050.16H2990.58V1046.67ZM2990.58 1015.02H2992.77V1011.52H2990.58V1015.02ZM2990.45 1015.02V1011.52H2989.8L2989.24 1012.11L2990.45 1015.02ZM2984.93 1020.89H2982.75V1027.41L2986.13 1023.8L2984.93 1020.89ZM2984.93 1016.43L2983.72 1013.52L2982.75 1014.56V1016.43H2984.93ZM2990.58 1010.42V1006.92H2989.93L2989.38 1007.5L2990.58 1010.42ZM2991.14 1010.42V1046.67H2995.51V1010.42H2991.14ZM2993.33 1043.17H2990.58V1050.16H2993.33V1043.17ZM2992.77 1046.67V1015.02H2988.4V1046.67H2992.77ZM2990.58 1011.52H2990.45V1018.51H2990.58V1011.52ZM2989.24 1012.11L2983.72 1017.98L2986.13 1023.8L2991.66 1017.93L2989.24 1012.11ZM2987.1 1020.89V1016.43H2982.75V1020.89H2987.1ZM2986.13 1019.34L2991.79 1013.33L2989.38 1007.5L2983.72 1013.52L2986.13 1019.34ZM2990.58 1013.91H2993.33V1006.92H2990.58V1013.91ZM3003.4 1045.92L3002.43 1049.05L3003.4 1045.92ZM3000.91 1042.52L3002.7 1040.53L3000.91 1042.52ZM2999.88 1037.6V1034.11H2997.58L2997.7 1037.78L2999.88 1037.6ZM3002.53 1037.6L3004.7 1037.25L3004.5 1034.11H3002.53V1037.6ZM3003.93 1041.68L3002.55 1044.39L3002.56 1044.4L3002.56 1044.41L3003.93 1041.68ZM3009.39 1042.22L3008.27 1039.22L3008.26 1039.23L3009.39 1042.22ZM3011.1 1039.36L3009.18 1037.68L3009.18 1037.69L3011.1 1039.36ZM3011.08 1030.97L3009.16 1032.64L3009.17 1032.66V1032.68L3011.08 1030.97ZM3006.73 1026.91L3006.71 1030.41H3006.72L3006.73 1026.91ZM3004.6 1027.43L3005.21 1030.78L3005.22 1030.77L3005.23 1030.77L3004.6 1027.43ZM3002.8 1028.75L3002.53 1032.22L3003.38 1032.39L3004.07 1031.59L3002.8 1028.75ZM3000.23 1028.26L2998.07 1027.83L2997.8 1031.31L2999.97 1031.73L3000.23 1028.26ZM3001.61 1010.42V1006.92H2999.68L2999.44 1009.99L3001.61 1010.42ZM3013.36 1010.42H3015.54V1006.92H3013.36V1010.42ZM3013.36 1014.31V1017.8H3015.54V1014.31H3013.36ZM3003.9 1014.31V1010.82H3001.96L3001.74 1013.9L3003.9 1014.31ZM3003.11 1025L3000.94 1024.59L3000.65 1028.49H3003.11V1025ZM3003.24 1025V1028.49H3004L3004.59 1027.74L3003.24 1025ZM3010.87 1024.54L3009.74 1027.52L3009.74 1027.53L3009.75 1027.53L3010.87 1024.54ZM3013.44 1028.86L3011.52 1030.52L3011.53 1030.54L3013.44 1028.86ZM3013.41 1041.32L3011.51 1039.59V1039.59L3013.41 1041.32ZM3010.76 1045.6L3011.84 1048.63L3011.85 1048.62L3010.76 1045.6ZM3006.91 1043.67C3005.91 1043.67 3005.08 1043.35 3004.38 1042.79L3002.43 1049.05C3003.81 1050.15 3005.32 1050.66 3006.91 1050.66V1043.67ZM3004.38 1042.79C3003.65 1042.21 3003.1 1041.46 3002.7 1040.53L2999.12 1044.52C2999.97 1046.47 3001.09 1047.98 3002.43 1049.05L3004.38 1042.79ZM3002.7 1040.53C3002.31 1039.65 3002.1 1038.65 3002.06 1037.42L2997.7 1037.78C2997.78 1040.24 2998.25 1042.52 2999.12 1044.52L3002.7 1040.53ZM2999.88 1041.1H3002.53V1034.11H2999.88V1041.1ZM3000.36 1037.95C3000.53 1040.55 3001.29 1042.75 3002.55 1044.39L3005.3 1038.96C3004.91 1038.45 3004.74 1037.94 3004.7 1037.25L3000.36 1037.95ZM3002.56 1044.41C3003.82 1046.01 3005.3 1046.76 3006.91 1046.76V1039.77C3006.2 1039.77 3005.69 1039.47 3005.29 1038.94L3002.56 1044.41ZM3006.91 1046.76C3008.19 1046.76 3009.41 1046.27 3010.51 1045.22L3008.26 1039.23C3007.91 1039.57 3007.48 1039.77 3006.91 1039.77V1046.76ZM3010.5 1045.22C3011.57 1044.2 3012.41 1042.78 3013.01 1041.02L3009.18 1037.69C3008.95 1038.36 3008.66 1038.85 3008.27 1039.22L3010.5 1045.22ZM3013.01 1041.03C3013.63 1039.24 3013.91 1037.27 3013.91 1035.2H3009.54C3009.54 1036.22 3009.41 1037.02 3009.18 1037.68L3013.01 1041.03ZM3013.91 1035.2C3013.91 1033.08 3013.61 1031.07 3012.97 1029.25L3009.17 1032.68C3009.4 1033.34 3009.54 1034.15 3009.54 1035.2H3013.91ZM3012.99 1029.29C3012.37 1027.5 3011.52 1026.06 3010.43 1025.01L3008.19 1031.01C3008.6 1031.4 3008.92 1031.93 3009.16 1032.64L3012.99 1029.29ZM3010.43 1025.01C3009.31 1023.94 3008.06 1023.44 3006.75 1023.42L3006.72 1030.41C3007.33 1030.41 3007.8 1030.64 3008.19 1031.01L3010.43 1025.01ZM3006.76 1023.42C3005.82 1023.4 3004.89 1023.64 3003.96 1024.08L3005.23 1030.77C3005.77 1030.51 3006.26 1030.4 3006.71 1030.41L3006.76 1023.42ZM3003.99 1024.07C3003.09 1024.49 3002.24 1025.08 3001.52 1025.92L3004.07 1031.59C3004.29 1031.34 3004.65 1031.04 3005.21 1030.78L3003.99 1024.07ZM3003.06 1025.28L3000.49 1024.79L2999.97 1031.73L3002.53 1032.22L3003.06 1025.28ZM3002.4 1028.68L3003.77 1010.84L2999.44 1009.99L2998.07 1027.83L3002.4 1028.68ZM3001.61 1013.91H3013.36V1006.92H3001.61V1013.91ZM3011.18 1010.42V1014.31H3015.54V1010.42H3011.18ZM3013.36 1010.82H3003.9V1017.8H3013.36V1010.82ZM3001.74 1013.9L3000.94 1024.59L3005.27 1025.41L3006.06 1014.72L3001.74 1013.9ZM3003.11 1028.49H3003.24V1021.51H3003.11V1028.49ZM3004.59 1027.74C3004.83 1027.44 3005.18 1027.12 3005.7 1026.83L3004.27 1020.23C3003.4 1020.72 3002.58 1021.38 3001.89 1022.26L3004.59 1027.74ZM3005.7 1026.83C3006.17 1026.57 3006.65 1026.44 3007.17 1026.44V1019.45C3006.17 1019.45 3005.21 1019.71 3004.27 1020.23L3005.7 1026.83ZM3007.17 1026.44C3008.2 1026.44 3009.03 1026.82 3009.74 1027.52L3012.02 1021.56C3010.55 1020.13 3008.92 1019.45 3007.17 1019.45V1026.44ZM3009.75 1027.53C3010.5 1028.26 3011.08 1029.23 3011.52 1030.52L3015.35 1027.19C3014.55 1024.83 3013.43 1022.93 3012 1021.55L3009.75 1027.53ZM3011.53 1030.54C3011.95 1031.79 3012.2 1033.29 3012.2 1035.13H3016.56C3016.56 1032.27 3016.18 1029.59 3015.35 1027.18L3011.53 1030.54ZM3012.2 1035.13C3012.2 1036.9 3011.95 1038.35 3011.51 1039.59L3015.3 1043.05C3016.16 1040.65 3016.56 1037.98 3016.56 1035.13H3012.2ZM3011.51 1039.59C3011.06 1040.86 3010.45 1041.84 3009.66 1042.58L3011.85 1048.62C3013.31 1047.27 3014.47 1045.39 3015.3 1043.05L3011.51 1039.59ZM3009.67 1042.58C3008.9 1043.28 3008 1043.67 3006.91 1043.67V1050.66C3008.69 1050.66 3010.35 1050.01 3011.84 1048.63L3009.67 1042.58Z" stroke="white" stroke-width="0.984633"/>
</g>
<path id="path1064" d="M2979.16 996.992L3072.08 998.99" stroke="white" stroke-width="5.13396"/>
<path id="path1066" d="M2987.24 948.712L2987.59 978.229" stroke="white" stroke-width="8.58504" stroke-linecap="round"/>
<path id="path1066-3" d="M3004.57 948.001L3004.92 977.52" stroke="white" stroke-width="8.58504" stroke-linecap="round"/>
<path id="path1066-0" d="M3026.71 946.358L3027.06 975.877" stroke="white" stroke-width="8.58504" stroke-linecap="round"/>
<path id="path1066-3-1" d="M3044.04 945.648L3044.39 975.166" stroke="white" stroke-width="8.58504" stroke-linecap="round"/>
<path id="path1066-3-1-4" d="M3061.13 948.001L3061.48 977.52" stroke="white" stroke-width="8.58504" stroke-linecap="round"/>
</g>
<g id="adn">
<g id="g1158">
<path id="path912" d="M571.598 2877.72C571.016 2702.09 634.43 2714.5 676.847 2696.36" stroke="white" stroke-width="12.0014"/>
<path id="path912-7" d="M645.449 2718.72C634.633 2824.66 626.633 2818.35 576.112 2839.67" stroke="white" stroke-width="12.0014"/>
<path id="path944" d="M601.931 2826.89L581.515 2782.03" stroke="white" stroke-width="12.0014"/>
<path id="path946" d="M618.806 2820.25L590.608 2753.21" stroke="white" stroke-width="12.0014"/>
<path id="path946-2" d="M631.207 2796.29L604.232 2732.63" stroke="white" stroke-width="12.0014"/>
<path id="path944-5" d="M638.549 2766.19L618.759 2719.48" stroke="white" stroke-width="12.0014"/>
</g>
<path id="path1171" d="M646.855 2695.49C651.671 2656.85 651.671 2656.85 651.671 2656.85" stroke="white" stroke-width="12.0014" stroke-linejoin="bevel"/>
<path id="path1173" d="M569.08 2833.04L551.695 2857.84" stroke="white" stroke-width="12.0014"/>
</g>
<g id="inicio">
<path id="path1353" d="M1899.31 1891.67C1899.31 1911.82 1891.18 1931.17 1876.63 1945.6C1862.08 1960.02 1842.29 1968.38 1821.45 1968.88C1800.62 1969.39 1780.41 1962.01 1765.14 1948.31C1749.85 1934.61 1740.71 1915.68 1739.68 1895.56C1738.62 1875.43 1745.76 1855.71 1759.53 1840.6C1773.31 1825.49 1792.64 1816.18 1813.43 1814.66C1834.2 1813.14 1854.77 1819.54 1870.74 1832.48C1886.71 1845.42 1896.82 1863.88 1898.91 1883.92" fill="white"/>
<path id="path1355" d="M1899.31 1891.67C1899.31 1911.82 1891.18 1931.17 1876.63 1945.6C1862.08 1960.02 1842.29 1968.38 1821.45 1968.88C1800.62 1969.39 1780.41 1962.01 1765.14 1948.31C1749.85 1934.61 1740.71 1915.68 1739.68 1895.56C1738.62 1875.43 1745.76 1855.71 1759.53 1840.6C1773.31 1825.49 1792.64 1816.18 1813.43 1814.66C1834.2 1813.14 1854.77 1819.54 1870.74 1832.48C1886.71 1845.42 1896.82 1863.88 1898.91 1883.92" fill="white"/>
</g>
<g id="medicamentos">
<path id="path978" d="M1815.58 3138.29L1903.16 3138.59C1901.26 3112.46 1888.16 3082.25 1861.51 3082.65C1834.85 3083.05 1817.29 3111.47 1815.58 3138.29Z" fill="white" stroke="white" stroke-width="8.35749"/>
<path id="path978-1" d="M1815.58 3154.89L1903.16 3154.59C1901.28 3182.24 1881.63 3209.83 1861.51 3210.53C1841.39 3211.22 1817.29 3181.71 1815.58 3154.89V3154.89Z" fill="white" stroke="white" stroke-width="8.35749"/>
<path id="path995" d="M1754.19 3135.18L1802.82 3136.06C1804.9 3177.15 1807.83 3220.74 1780.44 3221.18C1753.04 3221.62 1751.83 3180.84 1754.19 3135.18V3135.18Z" stroke="white" stroke-width="8.35749"/>
<path id="path995-2" d="M1753.63 3136.08L1802.26 3135.19C1803.68 3084.19 1807.93 3051.79 1779.88 3050.08C1751.82 3048.36 1751.26 3074.5 1753.63 3136.08Z" fill="white" stroke="white" stroke-width="8.35749"/>
</g>
</g>
<path id="path1355-9-4" d="M758.078 1021.88C758.078 1061.03 742.745 1098.63 715.324 1126.67C687.902 1154.7 650.612 1170.94 611.336 1171.92C572.092 1172.91 534.007 1158.56 505.228 1131.94C476.416 1105.31 459.195 1068.53 457.241 1029.42C455.254 990.317 468.7 951.994 494.664 922.623C520.628 893.256 557.057 875.168 596.234 872.217C635.379 869.266 674.126 881.689 704.229 906.835C734.333 931.98 754.137 982.923 758.078 1021.88" stroke="white" stroke-width="12.5773" stroke-linecap="round" stroke-linejoin="round"/>
<path id="path1355-9-4-4" d="M1969.82 663.001C1969.82 702.154 1954.48 739.757 1927.06 767.79C1899.64 795.821 1862.35 812.059 1823.07 813.042C1783.83 814.028 1745.75 799.679 1716.97 773.058C1688.16 746.433 1670.93 709.648 1668.98 670.544C1666.99 631.44 1680.44 593.116 1706.4 563.746C1732.37 534.379 1768.8 516.291 1807.97 513.339C1847.12 510.388 1885.86 522.812 1915.97 547.957C1946.07 573.103 1965.88 624.045 1969.82 663.001Z" stroke="white" stroke-width="12.5773" stroke-linecap="round" stroke-linejoin="round"/>
<path id="path2001" d="M1814.88 818.844C1819.32 1845.11 1819.32 1841 1819.32 1841" stroke="#F8FBFD" stroke-width="11.8488"/>
<path id="path2001-5" d="M734.971 1111.57C1775.05 1858.38 1770.91 1855.38 1770.91 1855.38" stroke="#F8FBFD" stroke-width="11.881"/>
<path id="path2001-5-0" d="M2910.09 1128.11C1870.01 1874.91 1874.16 1871.92 1874.16 1871.92" stroke="#F8FBFD" stroke-width="11.881"/>
<path id="path1355-9-4-4-4" d="M3181.56 1026.04C3181.56 1065.19 3166.22 1102.79 3138.8 1130.83C3111.38 1158.86 3074.09 1175.1 3034.81 1176.08C2995.57 1177.06 2957.49 1162.71 2928.71 1136.09C2899.89 1109.47 2882.67 1072.68 2880.72 1033.58C2878.73 994.475 2892.18 956.152 2918.14 926.781C2944.11 897.414 2980.53 879.326 3019.71 876.375C3058.86 873.424 3097.6 885.847 3127.71 910.993C3157.81 936.138 3177.62 987.081 3181.56 1026.04" stroke="white" stroke-width="12.5773" stroke-linecap="round" stroke-linejoin="round"/>
<path id="path2001-4" d="M1817.21 2988.29C1821.65 1962.43 1821.65 1966.53 1821.65 1966.53" stroke="#F8FBFD" stroke-width="11.8478"/>
<path id="path2001-5-04" d="M740.559 2680.78C1780.64 1933.98 1776.49 1936.97 1776.49 1936.97" stroke="#F8FBFD" stroke-width="11.881"/>
<path id="path2001-5-0-8" d="M2912.42 2686.61C1872.34 1939.81 1876.48 1942.8 1876.48 1942.8" stroke="#F8FBFD" stroke-width="11.881"/>
<path id="path1355-9-4-7" d="M764.601 2766.63C764.601 2805.79 749.267 2843.39 721.846 2871.42C694.425 2899.45 657.135 2915.69 617.859 2916.68C578.615 2917.66 540.53 2903.31 511.751 2876.69C482.939 2850.07 465.718 2813.28 463.764 2774.18C461.777 2735.07 475.223 2696.75 501.187 2667.38C527.151 2638.01 563.579 2619.92 602.757 2616.97C641.902 2614.02 680.649 2626.45 710.752 2651.59C740.856 2676.74 760.66 2727.68 764.601 2766.63" stroke="white" stroke-width="12.5773" stroke-linecap="round" stroke-linejoin="round"/>
<path id="path1355-9-4-7-4" d="M1965.41 3139.58C1965.41 3178.74 1950.08 3216.34 1922.66 3244.37C1895.24 3272.4 1857.95 3288.64 1818.67 3289.62C1779.42 3290.61 1741.34 3276.26 1712.56 3249.64C1683.75 3223.02 1666.53 3186.23 1664.57 3147.13C1662.59 3108.02 1676.03 3069.7 1702 3040.33C1727.96 3010.96 1764.39 2992.87 1803.57 2989.92C1842.71 2986.97 1881.46 2999.39 1911.56 3024.54C1941.67 3049.69 1961.47 3100.63 1965.41 3139.58" stroke="white" stroke-width="12.5773" stroke-linecap="round" stroke-linejoin="round"/>
<path id="path1355-9-4-4-9" d="M3185.96 2768.23C3185.96 2807.39 3170.63 2844.99 3143.21 2873.02C3115.79 2901.05 3078.5 2917.29 3039.22 2918.27C2999.98 2919.26 2961.89 2904.91 2933.11 2878.29C2904.3 2851.66 2887.08 2814.88 2885.13 2775.78C2883.14 2736.67 2896.58 2698.35 2922.55 2668.98C2948.51 2639.61 2984.94 2621.52 3024.12 2618.57C3063.26 2615.62 3102.01 2628.04 3132.11 2653.19C3162.22 2678.33 3182.02 2729.28 3185.96 2768.23Z" stroke="white" stroke-width="12.5773" stroke-linecap="round" stroke-linejoin="round"/>
<g id="@">
<path d="M3060.15 2849.35C3045.66 2849.35 3032.85 2847.36 3021.72 2843.39C3010.6 2839.46 3001.25 2833.66 2993.67 2825.99C2986.09 2818.32 2980.37 2808.92 2976.48 2797.79C2972.6 2786.66 2970.66 2773.93 2970.66 2759.58C2970.66 2745.71 2972.62 2733.3 2976.55 2722.36C2980.53 2711.43 2986.28 2702.15 2993.81 2694.52C3001.39 2686.85 3010.57 2681 3021.37 2676.98C3032.21 2672.96 3044.48 2670.94 3058.16 2670.94C3071.46 2670.94 3083.11 2673.12 3093.1 2677.48C3103.14 2681.79 3111.52 2687.63 3118.24 2695.02C3125.02 2702.36 3130.08 2710.62 3133.44 2719.81C3136.85 2728.99 3138.56 2738.46 3138.56 2748.22C3138.56 2755.08 3138.23 2762.04 3137.56 2769.1C3136.9 2776.15 3135.5 2782.64 3133.37 2788.56C3131.24 2794.43 3127.95 2799.16 3123.5 2802.76C3119.1 2806.36 3113.13 2808.16 3105.6 2808.16C3102.29 2808.16 3098.64 2807.64 3094.66 2806.6C3090.69 2805.55 3087.16 2803.83 3084.08 2801.41C3081 2799 3079.18 2795.75 3078.61 2791.68H3077.76C3076.63 2794.43 3074.87 2797.03 3072.51 2799.49C3070.19 2801.96 3067.13 2803.92 3063.34 2805.39C3059.6 2806.86 3055.03 2807.5 3049.64 2807.31C3043.48 2807.07 3038.06 2805.7 3033.37 2803.19C3028.68 2800.63 3024.75 2797.17 3021.58 2792.82C3018.46 2788.41 3016.09 2783.32 3014.48 2777.55C3012.92 2771.72 3012.14 2765.45 3012.14 2758.73C3012.14 2752.34 3013.08 2746.49 3014.98 2741.18C3016.87 2735.88 3019.5 2731.24 3022.86 2727.26C3026.27 2723.29 3030.25 2720.11 3034.79 2717.75C3039.39 2715.33 3044.33 2713.84 3049.64 2713.27C3054.37 2712.8 3058.68 2713.01 3062.56 2713.91C3066.45 2714.76 3069.64 2716.07 3072.15 2717.82C3074.66 2719.52 3076.25 2721.42 3076.91 2723.5H3077.76V2715.55H3092.82V2779.75C3092.82 2783.73 3093.93 2787.23 3096.16 2790.26C3098.38 2793.29 3101.63 2794.81 3105.89 2794.81C3110.72 2794.81 3114.41 2793.15 3116.97 2789.84C3119.57 2786.52 3121.35 2781.41 3122.29 2774.49C3123.29 2767.58 3123.78 2758.73 3123.78 2747.93C3123.78 2741.59 3122.91 2735.34 3121.16 2729.18C3119.45 2722.98 3116.85 2717.18 3113.34 2711.78C3109.89 2706.38 3105.51 2701.62 3100.2 2697.51C3094.9 2693.39 3088.68 2690.17 3081.53 2687.85C3074.42 2685.48 3066.35 2684.3 3057.31 2684.3C3046.18 2684.3 3036.21 2686.02 3027.41 2689.48C3018.65 2692.89 3011.19 2697.88 3005.03 2704.47C2998.93 2711 2994.26 2718.95 2991.04 2728.33C2987.87 2737.66 2986.28 2748.26 2986.28 2760.15C2986.28 2772.22 2987.87 2782.95 2991.04 2792.32C2994.26 2801.7 2999 2809.6 3005.25 2816.04C3011.54 2822.48 3019.33 2827.36 3028.61 2830.67C3037.89 2834.04 3048.59 2835.72 3060.72 2835.72C3065.92 2835.72 3071.06 2835.22 3076.13 2834.22C3081.19 2833.23 3085.67 2832.14 3089.55 2830.96C3093.43 2829.77 3096.23 2828.9 3097.93 2828.33L3101.91 2841.4C3098.97 2842.63 3095.14 2843.86 3090.4 2845.09C3085.72 2846.32 3080.7 2847.34 3075.35 2848.14C3070.04 2848.95 3064.98 2849.35 3060.15 2849.35ZM3051.91 2792.82C3058.25 2792.82 3063.39 2791.54 3067.32 2788.98C3071.25 2786.43 3074.12 2782.57 3075.91 2777.41C3077.71 2772.25 3078.61 2765.73 3078.61 2757.88C3078.61 2749.92 3077.62 2743.72 3075.63 2739.27C3073.64 2734.82 3070.71 2731.69 3066.82 2729.89C3062.94 2728.09 3058.16 2727.19 3052.48 2727.19C3047.08 2727.19 3042.46 2728.61 3038.63 2731.45C3034.84 2734.25 3031.93 2737.99 3029.89 2742.68C3027.9 2747.32 3026.91 2752.38 3026.91 2757.88C3026.91 2763.94 3027.71 2769.64 3029.32 2774.99C3030.93 2780.29 3033.56 2784.6 3037.21 2787.92C3040.85 2791.18 3045.75 2792.82 3051.91 2792.82Z" fill="white"/>
<path d="M3021.72 2843.39L3022.02 2842.55L3022.02 2842.55L3021.72 2843.39ZM2993.67 2825.99L2994.3 2825.36L2994.3 2825.36L2993.67 2825.99ZM2976.48 2797.79L2975.64 2798.08L2975.64 2798.08L2976.48 2797.79ZM2976.55 2722.36L2975.72 2722.06L2975.72 2722.06L2976.55 2722.36ZM2993.81 2694.52L2993.18 2693.9L2993.18 2693.9L2993.81 2694.52ZM3021.37 2676.98L3021.06 2676.15L3021.06 2676.15L3021.37 2676.98ZM3093.1 2677.48L3092.75 2678.29L3092.75 2678.29L3093.1 2677.48ZM3118.24 2695.02L3117.59 2695.62L3117.59 2695.62L3118.24 2695.02ZM3133.44 2719.81L3132.61 2720.11L3132.61 2720.12L3133.44 2719.81ZM3137.56 2769.1L3136.68 2769.01L3136.68 2769.01L3137.56 2769.1ZM3133.37 2788.56L3134.21 2788.86L3134.21 2788.86L3133.37 2788.56ZM3123.5 2802.76L3122.94 2802.07L3122.94 2802.07L3123.5 2802.76ZM3094.66 2806.6L3094.89 2805.74L3094.89 2805.74L3094.66 2806.6ZM3084.08 2801.41L3083.53 2802.11L3084.08 2801.41ZM3078.61 2791.68L3079.49 2791.56L3079.39 2790.79H3078.61V2791.68ZM3077.76 2791.68V2790.79H3077.17L3076.94 2791.34L3077.76 2791.68ZM3072.51 2799.49L3071.87 2798.88L3071.86 2798.88L3072.51 2799.49ZM3063.34 2805.39L3063.02 2804.56L3063.02 2804.56L3063.34 2805.39ZM3049.64 2807.31L3049.6 2808.19L3049.61 2808.19L3049.64 2807.31ZM3033.37 2803.19L3032.95 2803.97L3032.95 2803.97L3033.37 2803.19ZM3021.58 2792.82L3020.86 2793.33L3020.86 2793.34L3021.58 2792.82ZM3014.48 2777.55L3013.62 2777.78L3013.62 2777.79L3014.48 2777.55ZM3014.98 2741.18L3015.81 2741.48L3015.81 2741.48L3014.98 2741.18ZM3022.86 2727.26L3022.19 2726.69L3022.18 2726.69L3022.86 2727.26ZM3034.79 2717.75L3035.2 2718.54L3035.21 2718.53L3034.79 2717.75ZM3049.64 2713.27L3049.55 2712.39L3049.54 2712.39L3049.64 2713.27ZM3062.56 2713.91L3062.36 2714.78L3062.37 2714.78L3062.56 2713.91ZM3072.15 2717.82L3071.64 2718.55L3071.65 2718.55L3072.15 2717.82ZM3076.91 2723.5L3076.06 2723.77L3076.26 2724.39H3076.91V2723.5ZM3077.76 2723.5V2724.39H3078.65V2723.5H3077.76ZM3077.76 2715.55V2714.66H3076.87V2715.55H3077.76ZM3092.82 2715.55H3093.71V2714.66H3092.82V2715.55ZM3096.16 2790.26L3095.44 2790.79L3095.44 2790.79L3096.16 2790.26ZM3116.97 2789.84L3116.27 2789.29L3116.26 2789.29L3116.97 2789.84ZM3122.29 2774.49L3121.41 2774.37L3121.41 2774.37L3122.29 2774.49ZM3121.16 2729.18L3120.3 2729.42L3120.3 2729.43L3121.16 2729.18ZM3113.34 2711.78L3112.6 2712.26L3112.6 2712.27L3113.34 2711.78ZM3081.53 2687.85L3081.24 2688.69L3081.25 2688.69L3081.53 2687.85ZM3027.41 2689.48L3027.73 2690.31L3027.73 2690.31L3027.41 2689.48ZM3005.03 2704.47L3004.39 2703.86L3004.39 2703.86L3005.03 2704.47ZM2991.04 2728.33L2990.2 2728.04L2990.2 2728.04L2991.04 2728.33ZM2991.04 2792.32L2990.2 2792.61L2990.2 2792.61L2991.04 2792.32ZM3005.25 2816.04L3004.61 2816.66L3004.61 2816.66L3005.25 2816.04ZM3028.61 2830.67L3028.92 2829.84L3028.91 2829.84L3028.61 2830.67ZM3076.13 2834.22L3076.3 2835.1L3076.3 2835.1L3076.13 2834.22ZM3089.55 2830.96L3089.81 2831.81L3089.81 2831.81L3089.55 2830.96ZM3097.93 2828.33L3098.78 2828.07L3098.52 2827.2L3097.65 2827.49L3097.93 2828.33ZM3101.91 2841.4L3102.25 2842.22L3102.99 2841.91L3102.76 2841.14L3101.91 2841.4ZM3090.4 2845.09L3090.18 2844.23L3090.18 2844.23L3090.4 2845.09ZM3075.35 2848.14L3075.21 2847.27L3075.21 2847.27L3075.35 2848.14ZM3075.91 2777.41L3076.75 2777.7L3076.75 2777.7L3075.91 2777.41ZM3075.63 2739.27L3076.44 2738.9L3076.44 2738.9L3075.63 2739.27ZM3038.63 2731.45L3039.16 2732.17L3039.16 2732.17L3038.63 2731.45ZM3029.89 2742.68L3029.08 2742.32L3029.08 2742.33L3029.89 2742.68ZM3029.32 2774.99L3028.47 2775.25L3028.47 2775.25L3029.32 2774.99ZM3037.21 2787.92L3036.61 2788.58L3036.61 2788.58L3037.21 2787.92ZM3060.15 2848.46C3045.74 2848.46 3033.04 2846.49 3022.02 2842.55L3021.43 2844.22C3032.67 2848.24 3045.58 2850.24 3060.15 2850.24V2848.46ZM3022.02 2842.55C3011.01 2838.66 3001.78 2832.93 2994.3 2825.36L2993.04 2826.61C3000.72 2834.39 3010.19 2840.25 3021.43 2844.22L3022.02 2842.55ZM2994.3 2825.36C2986.83 2817.79 2981.17 2808.51 2977.32 2797.5L2975.64 2798.08C2979.57 2809.32 2985.36 2818.84 2993.04 2826.61L2994.3 2825.36ZM2977.32 2797.5C2973.48 2786.48 2971.55 2773.85 2971.55 2759.58H2969.77C2969.77 2774 2971.72 2786.84 2975.64 2798.08L2977.32 2797.5ZM2971.55 2759.58C2971.55 2745.79 2973.5 2733.49 2977.39 2722.66L2975.72 2722.06C2971.75 2733.11 2969.77 2745.62 2969.77 2759.58H2971.55ZM2977.39 2722.67C2981.33 2711.84 2987.01 2702.67 2994.44 2695.15L2993.18 2693.9C2985.55 2701.62 2979.74 2711.01 2975.72 2722.06L2977.39 2722.67ZM2994.44 2695.15C3001.92 2687.57 3011 2681.8 3021.68 2677.81L3021.06 2676.15C3010.15 2680.21 3000.85 2686.13 2993.18 2693.9L2994.44 2695.15ZM3021.68 2677.81C3032.41 2673.83 3044.56 2671.83 3058.16 2671.83V2670.05C3044.39 2670.05 3032.02 2672.08 3021.06 2676.15L3021.68 2677.81ZM3058.16 2671.83C3071.37 2671.83 3082.89 2673.99 3092.75 2678.29L3093.46 2676.66C3083.33 2672.25 3071.56 2670.05 3058.16 2670.05V2671.83ZM3092.75 2678.29C3102.68 2682.56 3110.96 2688.33 3117.59 2695.62L3118.9 2694.42C3112.08 2686.93 3103.6 2681.01 3093.45 2676.66L3092.75 2678.29ZM3117.59 2695.62C3124.28 2702.88 3129.29 2711.04 3132.61 2720.11L3134.28 2719.5C3130.87 2710.2 3125.75 2701.84 3118.9 2694.42L3117.59 2695.62ZM3132.61 2720.12C3135.98 2729.2 3137.67 2738.57 3137.67 2748.22H3139.45C3139.45 2738.36 3137.72 2728.78 3134.28 2719.5L3132.61 2720.12ZM3137.67 2748.22C3137.67 2755.05 3137.34 2761.99 3136.68 2769.01L3138.45 2769.18C3139.11 2762.1 3139.45 2755.11 3139.45 2748.22H3137.67ZM3136.68 2769.01C3136.02 2776 3134.64 2782.42 3132.54 2788.26L3134.21 2788.86C3136.37 2782.86 3137.78 2776.3 3138.45 2769.18L3136.68 2769.01ZM3132.54 2788.25C3130.46 2793.99 3127.26 2798.58 3122.94 2802.07L3124.06 2803.45C3128.65 2799.74 3132.03 2794.87 3134.21 2788.86L3132.54 2788.25ZM3122.94 2802.07C3118.74 2805.51 3112.99 2807.27 3105.6 2807.27V2809.05C3113.27 2809.05 3119.46 2807.21 3124.06 2803.45L3122.94 2802.07ZM3105.6 2807.27C3102.38 2807.27 3098.81 2806.76 3094.89 2805.74L3094.44 2807.46C3098.47 2808.51 3102.2 2809.05 3105.6 2809.05V2807.27ZM3094.89 2805.74C3091.02 2804.72 3087.61 2803.05 3084.63 2800.71L3083.53 2802.11C3086.71 2804.6 3090.35 2806.39 3094.44 2807.46L3094.89 2805.74ZM3084.63 2800.71C3081.74 2798.45 3080.03 2795.42 3079.49 2791.56L3077.73 2791.8C3078.33 2796.09 3080.27 2799.55 3083.53 2802.11L3084.63 2800.71ZM3078.61 2790.79H3077.76V2792.57H3078.61V2790.79ZM3076.94 2791.34C3075.85 2793.97 3074.17 2796.48 3071.87 2798.88L3073.15 2800.11C3075.58 2797.58 3077.4 2794.88 3078.58 2792.02L3076.94 2791.34ZM3071.86 2798.88C3069.65 2801.23 3066.71 2803.13 3063.02 2804.56L3063.66 2806.22C3067.55 2804.71 3070.72 2802.68 3073.15 2800.1L3071.86 2798.88ZM3063.02 2804.56C3059.42 2805.97 3054.98 2806.61 3049.67 2806.42L3049.61 2808.19C3055.08 2808.39 3059.78 2807.74 3063.67 2806.22L3063.02 2804.56ZM3049.67 2806.42C3043.63 2806.19 3038.34 2804.84 3033.79 2802.4L3032.95 2803.97C3037.78 2806.55 3043.33 2807.95 3049.6 2808.19L3049.67 2806.42ZM3033.8 2802.41C3029.23 2799.91 3025.4 2796.55 3022.3 2792.3L3020.86 2793.34C3024.11 2797.8 3028.14 2801.35 3032.95 2803.97L3033.8 2802.41ZM3022.31 2792.3C3019.25 2787.99 3016.92 2783 3015.34 2777.31L3013.62 2777.79C3015.26 2783.65 3017.67 2788.84 3020.86 2793.33L3022.31 2792.3ZM3015.34 2777.32C3013.8 2771.58 3013.02 2765.38 3013.02 2758.73H3011.25C3011.25 2765.52 3012.04 2771.87 3013.62 2777.78L3015.34 2777.32ZM3013.02 2758.73C3013.02 2752.42 3013.96 2746.68 3015.81 2741.48L3014.14 2740.89C3012.21 2746.3 3011.25 2752.25 3011.25 2758.73H3013.02ZM3015.81 2741.48C3017.68 2736.27 3020.25 2731.73 3023.54 2727.84L3022.18 2726.69C3018.75 2730.76 3016.07 2735.49 3014.14 2740.89L3015.81 2741.48ZM3023.54 2727.84C3026.87 2723.95 3030.76 2720.85 3035.2 2718.54L3034.38 2716.96C3029.73 2719.38 3025.67 2722.62 3022.19 2726.69L3023.54 2727.84ZM3035.21 2718.53C3039.7 2716.17 3044.54 2714.71 3049.73 2714.16L3049.54 2712.39C3044.13 2712.97 3039.07 2714.49 3034.38 2716.96L3035.21 2718.53ZM3049.72 2714.16C3054.38 2713.69 3058.59 2713.9 3062.36 2714.78L3062.76 2713.05C3058.77 2712.12 3054.36 2711.91 3049.55 2712.39L3049.72 2714.16ZM3062.37 2714.78C3066.17 2715.61 3069.25 2716.88 3071.64 2718.55L3072.66 2717.09C3070.03 2715.25 3066.72 2713.91 3062.75 2713.04L3062.37 2714.78ZM3071.65 2718.55C3074.06 2720.19 3075.48 2721.94 3076.06 2723.77L3077.76 2723.23C3077.01 2720.9 3075.26 2718.86 3072.65 2717.08L3071.65 2718.55ZM3076.91 2724.39H3077.76V2722.61H3076.91V2724.39ZM3078.65 2723.5V2715.55H3076.87V2723.5H3078.65ZM3077.76 2716.43H3092.82V2714.66H3077.76V2716.43ZM3091.93 2715.55V2779.75H3093.71V2715.55H3091.93ZM3091.93 2779.75C3091.93 2783.9 3093.1 2787.6 3095.44 2790.79L3096.87 2789.74C3094.77 2786.87 3093.71 2783.55 3093.71 2779.75H3091.93ZM3095.44 2790.79C3097.86 2794.08 3101.39 2795.7 3105.89 2795.7V2793.92C3101.86 2793.92 3098.91 2792.5 3096.87 2789.74L3095.44 2790.79ZM3105.89 2795.7C3110.94 2795.7 3114.92 2793.95 3117.67 2790.38L3116.26 2789.29C3113.9 2792.35 3110.49 2793.92 3105.89 2793.92V2795.7ZM3117.66 2790.38C3120.41 2786.89 3122.22 2781.59 3123.17 2774.61L3121.41 2774.37C3120.47 2781.22 3118.73 2786.15 3116.27 2789.29L3117.66 2790.38ZM3123.17 2774.62C3124.17 2767.65 3124.67 2758.75 3124.67 2747.93H3122.9C3122.9 2758.71 3122.4 2767.51 3121.41 2774.37L3123.17 2774.62ZM3124.67 2747.93C3124.67 2741.5 3123.79 2735.17 3122.01 2728.94L3120.3 2729.43C3122.03 2735.5 3122.9 2741.67 3122.9 2747.93H3124.67ZM3122.01 2728.95C3120.28 2722.66 3117.64 2716.77 3114.09 2711.3L3112.6 2712.27C3116.05 2717.59 3118.62 2723.3 3120.3 2729.42L3122.01 2728.95ZM3114.09 2711.3C3110.58 2705.82 3106.13 2700.98 3100.75 2696.8L3099.66 2698.21C3104.89 2702.27 3109.2 2706.95 3112.6 2712.26L3114.09 2711.3ZM3100.75 2696.8C3095.36 2692.61 3089.04 2689.35 3081.8 2687L3081.25 2688.69C3088.31 2690.98 3094.45 2694.16 3099.66 2698.21L3100.75 2696.8ZM3081.81 2687C3074.6 2684.6 3066.43 2683.41 3057.31 2683.41V2685.18C3066.27 2685.18 3074.25 2686.36 3081.24 2688.69L3081.81 2687ZM3057.31 2683.41C3046.09 2683.41 3036.01 2685.15 3027.08 2688.65L3027.73 2690.31C3036.42 2686.9 3046.27 2685.18 3057.31 2685.18V2683.41ZM3027.08 2688.65C3018.21 2692.11 3010.64 2697.18 3004.39 2703.86L3005.68 2705.07C3011.74 2698.59 3019.09 2693.67 3027.73 2690.31L3027.08 2688.65ZM3004.39 2703.86C2998.18 2710.49 2993.46 2718.56 2990.2 2728.04L2991.88 2728.62C2995.07 2719.35 2999.67 2711.51 3005.68 2705.07L3004.39 2703.86ZM2990.2 2728.04C2986.99 2737.48 2985.4 2748.19 2985.4 2760.15H2987.17C2987.17 2748.34 2988.75 2737.83 2991.88 2728.62L2990.2 2728.04ZM2985.4 2760.15C2985.4 2772.3 2986.99 2783.12 2990.2 2792.61L2991.88 2792.04C2988.75 2782.77 2987.17 2772.15 2987.17 2760.15H2985.4ZM2990.2 2792.61C2993.46 2802.1 2998.26 2810.12 3004.61 2816.66L3005.88 2815.42C2999.73 2809.09 2995.06 2801.3 2991.88 2792.03L2990.2 2792.61ZM3004.61 2816.66C3011.01 2823.21 3018.92 2828.15 3028.31 2831.51L3028.91 2829.84C3019.75 2826.56 3012.08 2821.76 3005.88 2815.42L3004.61 2816.66ZM3028.31 2831.51C3037.71 2834.91 3048.51 2836.6 3060.72 2836.6V2834.83C3048.68 2834.83 3038.08 2833.16 3028.92 2829.84L3028.31 2831.51ZM3060.72 2836.6C3065.98 2836.6 3071.18 2836.1 3076.3 2835.1L3075.96 2833.35C3070.95 2834.34 3065.87 2834.83 3060.72 2834.83V2836.6ZM3076.3 2835.1C3081.39 2834.1 3085.89 2833 3089.81 2831.81L3089.29 2830.11C3085.44 2831.28 3081 2832.36 3075.96 2833.35L3076.3 2835.1ZM3089.81 2831.81C3093.69 2830.62 3096.5 2829.74 3098.21 2829.17L3097.65 2827.49C3095.96 2828.05 3093.17 2828.92 3089.29 2830.11L3089.81 2831.81ZM3097.08 2828.59L3101.06 2841.66L3102.76 2841.14L3098.78 2828.07L3097.08 2828.59ZM3101.57 2840.58C3098.68 2841.79 3094.89 2843.01 3090.18 2844.23L3090.63 2845.95C3095.38 2844.71 3099.26 2843.47 3102.25 2842.22L3101.57 2840.58ZM3090.18 2844.23C3085.52 2845.45 3080.54 2846.47 3075.21 2847.27L3075.48 2849.02C3080.86 2848.21 3085.91 2847.19 3090.63 2845.95L3090.18 2844.23ZM3075.21 2847.27C3069.95 2848.07 3064.93 2848.46 3060.15 2848.46V2850.24C3065.03 2850.24 3070.14 2849.83 3075.48 2849.02L3075.21 2847.27ZM3051.91 2793.71C3058.37 2793.71 3063.69 2792.41 3067.81 2789.73L3066.84 2788.24C3063.09 2790.67 3058.14 2791.93 3051.91 2791.93V2793.71ZM3067.81 2789.73C3071.93 2787.05 3074.9 2783.01 3076.75 2777.7L3075.08 2777.11C3073.33 2782.12 3070.58 2785.81 3066.84 2788.24L3067.81 2789.73ZM3076.75 2777.7C3078.6 2772.41 3079.5 2765.79 3079.5 2757.88H3077.73C3077.73 2765.68 3076.83 2772.08 3075.08 2777.11L3076.75 2777.7ZM3079.5 2757.88C3079.5 2749.86 3078.5 2743.52 3076.44 2738.9L3074.82 2739.63C3076.73 2743.92 3077.73 2749.98 3077.73 2757.88H3079.5ZM3076.44 2738.9C3074.38 2734.29 3071.3 2730.99 3067.2 2729.09L3066.45 2730.7C3070.11 2732.39 3072.91 2735.35 3074.82 2739.63L3076.44 2738.9ZM3067.2 2729.09C3063.17 2727.22 3058.25 2726.3 3052.48 2726.3V2728.08C3058.07 2728.08 3062.72 2728.97 3066.45 2730.7L3067.2 2729.09ZM3052.48 2726.3C3046.92 2726.3 3042.11 2727.77 3038.1 2730.74L3039.16 2732.17C3042.82 2729.46 3047.24 2728.08 3052.48 2728.08V2726.3ZM3038.1 2730.74C3034.18 2733.63 3031.17 2737.5 3029.08 2742.32L3030.71 2743.03C3032.69 2738.47 3035.5 2734.86 3039.16 2732.17L3038.1 2730.74ZM3029.08 2742.33C3027.04 2747.09 3026.02 2752.27 3026.02 2757.88H3027.8C3027.8 2752.49 3028.77 2747.55 3030.71 2743.03L3029.08 2742.33ZM3026.02 2757.88C3026.02 2764.02 3026.84 2769.81 3028.47 2775.25L3030.17 2774.74C3028.59 2769.47 3027.8 2763.86 3027.8 2757.88H3026.02ZM3028.47 2775.25C3030.12 2780.69 3032.83 2785.14 3036.61 2788.58L3037.81 2787.26C3034.29 2784.07 3031.74 2779.9 3030.17 2774.73L3028.47 2775.25ZM3036.61 2788.58C3040.46 2792.03 3045.59 2793.71 3051.91 2793.71V2791.93C3045.91 2791.93 3041.24 2790.34 3037.8 2787.26L3036.61 2788.58Z" fill="white"/>
</g>
<path id="path825" d="M2389.66 1922.47L1161.65 1925.87L1161.46 1859.9L2389.47 1856.5L2389.66 1922.47Z" stroke="white" stroke-width="12.891" stroke-miterlimit="10" stroke-linecap="round"/>
<g id="g827">
<g id="g829">
<g id="g843">
<path id="path845" d="M1776.91 1872.95L2038.06 1382.94C2238.58 1460.97 2373.6 1628.26 2390.82 1820.03C2417.1 2112.58 2161.59 2377.21 1824.81 2406.24C1488.02 2435.27 1189.27 2218.42 1162.99 1925.87C1150.01 1781.35 1205.2 1637.03 1315.8 1526.28L1776.91 1872.95Z" stroke="white" stroke-width="12.891" stroke-miterlimit="10"/>
</g>
</g>
</g>
</g>
<defs>
<clipPath id="clip0_9_75">
<rect width="3732.46" height="4002.66" fill="white"/>
</clipPath>
</defs>
        <use href="#grafo_1" x="0" y="0"></use>
        <animateTransform id="smallGearJump" 
                attributeName="transform" attributeType="XML"
                type="rotate" from="0 0 0" to="360 0 0" by="1" dur="15s" begin="1s"
                 fill="freeze" repeatCount="indefinite"/>

</svg>
