<svg width="4114" height="3409" viewBox="0 0 4114 3409" fill="none" xmlns="http://www.w3.org/2000/svg">
<g id="grafo_1" clip-path="url(#clip0_4_4)">
<g id="diseno05">
<g id="transporte">
<path id="rect1029" d="M213.33 555.893H85.1328V670.311H213.33V555.893Z" stroke="white" stroke-width="14.6806" stroke-linecap="round" stroke-linejoin="round"/>
<g id="path1031">
<path id="path1300" d="M136.649 707.832C136.649 713.429 134.877 718.803 131.713 722.811C128.538 726.816 124.23 729.139 119.687 729.279C115.154 729.419 110.757 727.369 107.425 723.564C104.093 719.758 102.107 714.499 101.883 708.911C101.647 703.321 103.206 697.843 106.202 693.646C109.208 689.447 113.415 686.861 117.948 686.439C122.469 686.018 126.945 687.794 130.423 691.389C133.901 694.982 136.111 700.111 136.56 705.678" stroke="white" stroke-width="14.6806"/>
<path id="path1302" d="M136.649 707.832C136.649 713.429 134.877 718.803 131.713 722.811C128.538 726.816 124.23 729.139 119.687 729.279C115.154 729.419 110.757 727.369 107.425 723.564C104.093 719.758 102.107 714.499 101.883 708.911C101.647 703.321 103.206 697.843 106.202 693.646C109.208 689.447 113.415 686.861 117.948 686.439C122.469 686.018 126.945 687.794 130.423 691.389C133.901 694.982 136.111 700.111 136.56 705.678" stroke="white" stroke-width="14.6806" stroke-linecap="round" stroke-linejoin="round"/>
</g>
<g id="path1031-4">
<path id="path1305" d="M263.32 708.758C263.32 714.355 261.548 719.73 258.384 723.737C255.209 727.743 250.901 730.064 246.358 730.206C241.825 730.346 237.416 728.296 234.096 724.489C230.764 720.684 228.778 715.426 228.542 709.837C228.318 704.247 229.866 698.77 232.873 694.571C235.868 690.373 240.086 687.788 244.608 687.366C249.14 686.944 253.616 688.721 257.094 692.315C260.572 695.909 262.782 701.038 263.231 706.605" stroke="white" stroke-width="14.6806"/>
<path id="path1307" d="M263.32 708.758C263.32 714.355 261.548 719.73 258.384 723.737C255.209 727.743 250.901 730.064 246.358 730.206C241.825 730.346 237.416 728.296 234.096 724.489C230.764 720.684 228.778 715.426 228.542 709.837C228.318 704.247 229.866 698.77 232.873 694.571C235.868 690.373 240.086 687.788 244.608 687.366C249.14 686.944 253.616 688.721 257.094 692.315C260.572 695.909 262.782 701.038 263.231 706.605" stroke="white" stroke-width="14.6806" stroke-linecap="round" stroke-linejoin="round"/>
</g>
<g id="path1048">
<path id="path1310" d="M86.9614 689.072L284.759 691.456L86.9614 689.072Z" stroke="white" stroke-width="14.6806"/>
<path id="path1312" d="M86.9614 689.072L284.759 691.456" stroke="white" stroke-width="14.6806" stroke-linecap="round"/>
</g>
<path id="path1050" d="M231.65 682.23V579.73L252.035 577.038L277.669 634.555L279.027 691.456C259.248 690.071 249.353 655.229 231.65 682.23Z" stroke="white" stroke-width="14.6806"/>
<path id="path1052" d="M238.976 636.938L237.383 594.649L252.034 591.957L266.204 634.555L238.976 636.938Z" stroke="white" stroke-width="14.6806" stroke-linejoin="round"/>
</g>
<g id="calendario">
<path id="rect1058" d="M3064.11 570.431H2971.67C2954.95 570.431 2941.39 586.096 2941.39 605.418V708.538C2941.39 727.859 2954.95 743.524 2971.67 743.524H3064.11C3080.83 743.524 3094.38 727.859 3094.38 708.538V605.418C3094.38 586.096 3080.83 570.431 3064.11 570.431V570.431Z" stroke="white" stroke-width="11.36" stroke-linecap="round" stroke-linejoin="round"/>
<g id="text1062">
<path id="path1326" d="M2979.27 624.535V668.479H2976.05V630.114H2975.9L2969.43 637.238V631.83L2976.05 624.535H2979.27ZM2995.18 669.079C2993.66 669.079 2992.3 668.579 2991.07 667.577C2989.86 666.576 2988.89 665.203 2988.15 663.458C2987.42 661.712 2987.02 659.724 2986.95 657.493H2990.05C2990.17 659.481 2990.72 661.126 2991.68 662.428C2992.66 663.715 2993.83 664.358 2995.18 664.358C2996.27 664.358 2997.23 663.937 2998.08 663.093C2998.93 662.248 2999.6 661.09 3000.09 659.617C3000.58 658.129 3000.83 656.449 3000.83 654.575C3000.83 652.658 3000.57 650.948 3000.06 649.446C2999.56 647.93 2998.87 646.736 2997.99 645.863C2997.11 644.99 2996.1 644.547 2994.97 644.532C2994.16 644.519 2993.33 644.726 2992.48 645.155C2991.62 645.57 2990.92 646.106 2990.36 646.765L2987.36 646.164L2988.97 624.535H3002.74V629.256H2991.66L2990.73 642.215H2990.88C2991.42 641.501 2992.1 640.907 2992.92 640.434C2993.74 639.963 2994.6 639.726 2995.49 639.726C2997.12 639.726 2998.56 640.371 2999.82 641.658C3001.1 642.931 3002.1 644.676 3002.83 646.893C3003.56 649.111 3003.93 651.643 3003.93 654.488C3003.93 657.292 3003.55 659.795 3002.79 661.999C3002.04 664.188 3001.01 665.917 2999.69 667.191C2998.37 668.451 2996.86 669.079 2995.18 669.079V669.079Z" stroke="white" stroke-width="1.24311"/>
<path id="path1328" d="M2979.27 624.535H2981.82V620.3H2979.27V624.535ZM2979.27 668.479V672.713H2981.82V668.479H2979.27ZM2976.05 668.479H2973.5V672.713H2976.05V668.479ZM2976.05 630.114H2978.62V625.878H2976.05V630.114ZM2975.9 630.114V625.878H2975.13L2974.49 626.585L2975.9 630.114ZM2969.43 637.238H2966.88V645.132L2970.84 640.765L2969.43 637.238ZM2969.43 631.83L2968.02 628.303L2966.88 629.56V631.83H2969.43ZM2976.05 624.535V620.3H2975.29L2974.64 621.007L2976.05 624.535ZM2976.71 624.535V668.479H2981.82V624.535H2976.71ZM2979.27 664.244H2976.05V672.713H2979.27V664.244ZM2978.62 668.479V630.114H2973.5V668.479H2978.62ZM2976.05 625.878H2975.9V634.348H2976.05V625.878ZM2974.49 626.585L2968.02 633.709L2970.84 640.765L2977.31 633.641L2974.49 626.585ZM2971.98 637.238V631.83H2966.88V637.238H2971.98ZM2970.84 635.359L2977.47 628.063L2974.64 621.007L2968.02 628.303L2970.84 635.359ZM2976.05 628.77H2979.27V620.3H2976.05V628.77ZM2991.07 667.577L2989.94 671.37L2991.07 667.577ZM2988.15 663.458L2990.24 661.037L2988.15 663.458ZM2986.95 657.493V653.257H2984.26L2984.39 657.709L2986.95 657.493ZM2990.05 657.493L2992.6 657.068L2992.36 653.257H2990.05V657.493ZM2991.69 662.428L2990.07 665.715L2990.08 665.727L2990.09 665.741L2991.69 662.428ZM2998.08 663.093L2996.77 659.455L2996.76 659.464L2998.08 663.093ZM3000.09 659.617L2997.85 657.582L2997.84 657.594L3000.09 659.617ZM3000.06 649.446L2997.82 651.479L2997.83 651.5V651.52L3000.06 649.446ZM2994.98 644.532L2994.95 648.768H2994.96L2994.98 644.532ZM2992.48 645.155L2993.19 649.22L2993.21 649.214L2993.22 649.207L2992.48 645.155ZM2990.36 646.765L2990.05 650.969L2991.05 651.167L2991.86 650.203L2990.36 646.765ZM2987.36 646.164L2984.82 645.647L2984.51 649.859L2987.06 650.368L2987.36 646.164ZM2988.97 624.535V620.3H2986.71L2986.43 624.017L2988.97 624.535ZM3002.74 624.535H3005.29V620.3H3002.74V624.535ZM3002.74 629.256V633.49H3005.29V629.256H3002.74ZM2991.66 629.256V625.02H2989.39L2989.12 628.754L2991.66 629.256ZM2990.73 642.215L2988.19 641.714L2987.85 646.451H2990.73V642.215ZM2990.88 642.215V646.451H2991.78L2992.47 645.532L2990.88 642.215ZM2999.82 641.658L2998.49 645.269L2998.5 645.278L2998.51 645.286L2999.82 641.658ZM3002.83 646.893L3000.58 648.911L3000.59 648.93L3002.83 646.893ZM3002.79 661.999L3000.57 659.898V659.905L3002.79 661.999ZM2999.69 667.191L3000.95 670.861L3000.97 670.852L2999.69 667.191ZM2995.18 664.845C2994.01 664.845 2993.03 664.463 2992.21 663.784L2989.94 671.37C2991.55 672.695 2993.32 673.315 2995.18 673.315V664.845ZM2992.21 663.784C2991.36 663.08 2990.72 662.164 2990.24 661.037L2986.05 665.878C2987.05 668.242 2988.36 670.071 2989.94 671.37L2992.21 663.784ZM2990.24 661.037C2989.8 659.975 2989.54 658.759 2989.5 657.275L2984.39 657.709C2984.48 660.689 2985.03 663.451 2986.05 665.878L2990.24 661.037ZM2986.95 661.727H2990.05V653.257H2986.95V661.727ZM2987.51 657.917C2987.7 661.067 2988.6 663.728 2990.07 665.715L2993.3 659.141C2992.83 658.523 2992.64 657.895 2992.6 657.068L2987.51 657.917ZM2990.09 665.741C2991.56 667.677 2993.3 668.594 2995.18 668.594V660.124C2994.35 660.124 2993.75 659.753 2993.28 659.115L2990.09 665.741ZM2995.18 668.594C2996.68 668.594 2998.11 668.002 2999.4 666.721L2996.76 659.464C2996.35 659.872 2995.85 660.124 2995.18 660.124V668.594ZM2999.39 666.73C3000.64 665.49 3001.63 663.769 3002.33 661.639L2997.84 657.594C2997.57 658.411 2997.23 659.008 2996.77 659.455L2999.39 666.73ZM3002.33 661.651C3003.05 659.478 3003.38 657.084 3003.38 654.574H2998.27C2998.27 655.813 2998.11 656.781 2997.85 657.582L3002.33 661.651ZM3003.38 654.574C3003.38 652.014 3003.03 649.576 3002.28 647.372L2997.83 651.52C2998.1 652.321 2998.27 653.301 2998.27 654.574H3003.38ZM3002.3 647.413C3001.58 645.247 3000.58 643.494 2999.3 642.229L2996.68 649.497C2997.16 649.976 2997.54 650.612 2997.82 651.479L3002.3 647.413ZM2999.3 642.229C2997.99 640.93 2996.53 640.318 2994.99 640.298L2994.96 648.768C2995.68 648.777 2996.22 649.05 2996.68 649.497L2999.3 642.229ZM2995 640.298C2993.9 640.279 2992.82 640.561 2991.73 641.102L2993.22 649.207C2993.84 648.892 2994.42 648.757 2994.95 648.768L2995 640.298ZM2991.76 641.091C2990.7 641.6 2989.72 642.316 2988.87 643.325L2991.86 650.203C2992.11 649.895 2992.53 649.538 2993.19 649.22L2991.76 641.091ZM2990.67 642.559L2987.67 641.96L2987.06 650.368L2990.05 650.969L2990.67 642.559ZM2989.9 646.68L2991.5 625.052L2986.43 624.017L2984.82 645.647L2989.9 646.68ZM2988.97 628.77H3002.74V620.3H2988.97V628.77ZM3000.19 624.535V629.256H3005.29V624.535H3000.19ZM3002.74 625.02H2991.66V633.49H3002.74V625.02ZM2989.12 628.754L2988.19 641.714L2993.26 642.717L2994.19 629.756L2989.12 628.754ZM2990.73 646.451H2990.88V637.981H2990.73V646.451ZM2992.47 645.532C2992.74 645.177 2993.15 644.788 2993.76 644.434L2992.09 636.434C2991.07 637.025 2990.11 637.824 2989.3 638.898L2992.47 645.532ZM2993.76 644.434C2994.31 644.121 2994.87 643.961 2995.49 643.961V635.492C2994.32 635.492 2993.19 635.803 2992.09 636.434L2993.76 644.434ZM2995.49 643.961C2996.69 643.961 2997.66 644.427 2998.49 645.269L3001.16 638.046C2999.45 636.315 2997.54 635.492 2995.49 635.492V643.961ZM2998.51 645.286C2999.39 646.162 3000.07 647.343 3000.58 648.911L3005.07 644.875C3004.13 642.007 3002.82 639.7 3001.15 638.028L2998.51 645.286ZM3000.59 648.93C3001.09 650.448 3001.37 652.263 3001.37 654.488H3006.49C3006.49 651.022 3006.04 647.772 3005.07 644.857L3000.59 648.93ZM3001.37 654.488C3001.37 656.635 3001.09 658.399 3000.57 659.898L3005.01 664.1C3006.01 661.191 3006.49 657.951 3006.49 654.488H3001.37ZM3000.57 659.905C3000.04 661.44 2999.33 662.632 2998.4 663.531L3000.97 670.852C3002.68 669.204 3004.03 666.934 3005.01 664.093L3000.57 659.905ZM2998.41 663.52C2997.52 664.372 2996.46 664.845 2995.18 664.845V673.315C2997.26 673.315 2999.21 672.528 3000.95 670.861L2998.41 663.52Z" stroke="white" stroke-width="1.24311"/>
</g>
<path id="path1064" d="M2962.67 608.264L3071.52 610.685" stroke="white" stroke-width="6.48171"/>
<path id="path1066" d="M2972.14 549.738L2972.55 585.519" stroke="white" stroke-width="10.8387" stroke-linecap="round"/>
<path id="path1066-3" d="M2992.44 548.877L2992.85 584.66" stroke="white" stroke-width="10.8387" stroke-linecap="round"/>
<path id="path1066-0" d="M3018.37 546.885L3018.78 582.667" stroke="white" stroke-width="10.8387" stroke-linecap="round"/>
<path id="path1066-3-1" d="M3038.68 546.024L3039.09 581.806" stroke="white" stroke-width="10.8387" stroke-linecap="round"/>
<path id="path1066-3-1-4" d="M3058.7 548.877L3059.11 584.66" stroke="white" stroke-width="10.8387" stroke-linecap="round"/>
</g>
<g id="adn">
<g id="g1158">
<path id="path912" d="M130.837 2890.01C130.155 2677.11 204.443 2692.16 254.132 2670.17" stroke="white" stroke-width="15.152"/>
<path id="path912-7" d="M217.35 2697.27C204.68 2825.69 195.309 2818.05 136.124 2843.89" stroke="white" stroke-width="15.152"/>
<path id="path944" d="M166.37 2828.39L142.454 2774.01" stroke="white" stroke-width="15.152"/>
<path id="path946" d="M186.139 2820.35L153.106 2739.08" stroke="white" stroke-width="15.152"/>
<path id="path946-2" d="M200.667 2791.3L169.066 2714.13" stroke="white" stroke-width="15.152"/>
<path id="path944-5" d="M209.267 2754.81L186.084 2698.19" stroke="white" stroke-width="15.152"/>
</g>
<path id="path1171" d="M218.997 2669.11C224.639 2622.27 224.639 2622.27 224.639 2622.27" stroke="white" stroke-width="15.152" stroke-linejoin="bevel"/>
<path id="path1173" d="M127.887 2835.85L107.521 2865.92" stroke="white" stroke-width="15.152"/>
</g>
<g id="inicio">
<path id="path1353" d="M1697.67 1711.11C1697.67 1740.31 1688.14 1768.35 1671.09 1789.26C1654.05 1810.17 1630.87 1822.28 1606.45 1823.01C1582.06 1823.74 1558.38 1813.04 1540.49 1793.19C1522.58 1773.33 1511.88 1745.9 1510.66 1716.73C1509.43 1687.57 1517.78 1658.99 1533.92 1637.09C1550.06 1615.18 1572.71 1601.69 1597.06 1599.49C1621.4 1597.29 1645.48 1606.56 1664.2 1625.31C1682.91 1644.06 1694.75 1670.82 1697.2 1699.87" fill="white"/>
<path id="path1355" d="M1697.67 1711.11C1697.67 1740.31 1688.14 1768.35 1671.09 1789.26C1654.05 1810.17 1630.87 1822.28 1606.45 1823.01C1582.06 1823.74 1558.38 1813.04 1540.49 1793.19C1522.58 1773.33 1511.88 1745.9 1510.66 1716.73C1509.43 1687.57 1517.78 1658.99 1533.92 1637.09C1550.06 1615.18 1572.71 1601.69 1597.06 1599.49C1621.4 1597.29 1645.48 1606.56 1664.2 1625.31C1682.91 1644.06 1694.75 1670.82 1697.2 1699.87" fill="white"/>
</g>
</g>
<path id="path1355-9-4" d="M360.754 638.43C360.754 685.892 342.791 731.474 310.668 765.456C278.546 799.434 234.862 819.119 188.85 820.31C142.877 821.505 98.2624 804.111 64.549 771.841C30.7968 739.567 10.6231 694.976 8.33409 647.574C6.00639 600.172 21.7575 553.717 52.1732 518.114C82.589 482.515 125.264 460.589 171.159 457.011C217.016 453.434 262.407 468.494 297.672 498.975C332.937 529.456 356.137 591.208 360.754 638.43" stroke="white" stroke-width="15.879" stroke-linecap="round" stroke-linejoin="round"/>
<g id="medicamentos">
<path id="path978" d="M1599.58 3215.55L1702.18 3215.92C1699.95 3184.24 1684.61 3147.62 1653.38 3148.11C1622.16 3148.6 1601.58 3183.04 1599.58 3215.55Z" fill="white" stroke="white" stroke-width="10.5515"/>
<path id="path978-1" d="M1599.58 3235.68L1702.18 3235.31C1699.98 3268.83 1676.95 3302.28 1653.38 3303.12C1629.81 3303.97 1601.58 3268.19 1599.58 3235.68V3235.68Z" fill="white" stroke="white" stroke-width="10.5515"/>
<path id="path995" d="M1527.66 3211.78L1584.64 3212.86C1587.07 3262.66 1590.51 3315.5 1558.41 3316.03C1526.32 3316.57 1524.9 3267.14 1527.66 3211.78V3211.78Z" stroke="white" stroke-width="10.5515"/>
<path id="path995-2" d="M1527 3212.88L1583.98 3211.8C1585.64 3149.97 1590.62 3110.71 1557.75 3108.63C1524.89 3106.55 1524.24 3138.23 1527 3212.88Z" fill="white" stroke="white" stroke-width="10.5515"/>
</g>
<g id="ubicacion-grafo">
<path id="path1054" d="M1602.73 289.966C1602.73 289.966 1673.16 201.497 1677.9 150.286C1687.81 43.4472 1527.9 16.5244 1525.05 153.261C1524.11 197.999 1602.73 289.966 1602.73 289.966Z" stroke="#F8FBFD" stroke-width="16.1038" stroke-linecap="round"/>
<path id="path1319" d="M1643.64 135.533C1643.64 145.425 1639.18 154.927 1631.2 162.008C1623.24 169.091 1612.39 173.194 1600.99 173.443C1589.58 173.691 1578.51 170.067 1570.14 163.339C1561.78 156.613 1556.77 147.318 1556.19 137.439C1555.61 127.558 1559.52 117.875 1567.07 110.455C1574.62 103.034 1585.22 98.4636 1596.59 97.7179C1607.97 96.9723 1619.24 100.112 1627.98 106.465C1636.73 112.818 1642.27 121.883 1643.42 131.727" fill="white"/>
<path id="path1321" d="M1643.64 135.533C1643.64 145.425 1639.18 154.927 1631.2 162.008C1623.24 169.091 1612.39 173.194 1600.99 173.443C1589.58 173.691 1578.51 170.067 1570.14 163.339C1561.78 156.613 1556.77 147.318 1556.19 137.439C1555.61 127.558 1559.52 117.875 1567.07 110.455C1574.62 103.034 1585.22 98.4636 1596.59 97.7179C1607.97 96.9723 1619.24 100.112 1627.98 106.465C1636.73 112.818 1642.27 121.883 1643.42 131.727" fill="white"/>
<path id="path1355-9-4-4" d="M1780.26 189.844C1780.26 237.306 1762.3 282.887 1730.18 316.87C1698.06 350.848 1654.37 370.533 1608.36 371.724C1562.39 372.919 1517.77 355.525 1484.06 323.255C1450.31 290.981 1430.13 246.39 1427.84 198.988C1425.52 151.586 1441.27 105.13 1471.68 69.5277C1502.1 33.929 1544.77 12.0027 1590.67 8.42515C1636.53 4.84761 1681.92 19.9077 1717.18 50.3888C1752.45 80.8699 1775.65 142.622 1780.26 189.844" stroke="white" stroke-width="15.879" stroke-linecap="round" stroke-linejoin="round"/>
</g>
<path id="path2001" d="M1598.78 376.335C1603.95 1636.41 1603.95 1631.37 1603.95 1631.37" stroke="#F8FBFD" stroke-width="15"/>
<path id="path2001-5" d="M333.685 747.156C1552.1 1652.43 1547.25 1648.8 1547.25 1648.8" stroke="#F8FBFD" stroke-width="15"/>
<path id="path2001-5-0" d="M2881.76 767.202C1663.35 1672.48 1668.2 1668.85 1668.2 1668.85" stroke="#F8FBFD" stroke-width="15"/>
<path id="path1355-9-4-4-4" d="M3199.77 643.47C3199.77 690.933 3181.81 736.514 3149.69 770.496C3117.56 804.475 3073.88 824.159 3027.87 825.35C2981.9 826.545 2937.28 809.151 2903.57 776.881C2869.82 744.607 2849.64 700.017 2847.35 652.615C2845.03 605.212 2860.78 558.757 2891.19 523.154C2921.61 487.555 2964.28 465.629 3010.18 462.052C3056.04 458.474 3101.43 473.534 3136.69 504.015C3171.96 534.496 3195.16 596.249 3199.77 643.47" stroke="white" stroke-width="15.879" stroke-linecap="round" stroke-linejoin="round"/>
<path id="path2001-4" d="M1601.51 3047.28C1606.67 1787.21 1606.67 1792.25 1606.67 1792.25" stroke="#F8FBFD" stroke-width="15"/>
<path id="path2001-5-04" d="M336.41 2676.46C1554.82 1771.18 1549.97 1774.81 1549.97 1774.81" stroke="#F8FBFD" stroke-width="15"/>
<path id="path2001-5-0-8" d="M2884.49 2656.41C1666.07 1751.14 1670.93 1754.77 1670.93 1754.77" stroke="#F8FBFD" stroke-width="15"/>
<path id="path1355-9-4-7" d="M360.754 2755.35C360.754 2802.82 342.791 2848.4 310.668 2882.38C278.546 2916.36 234.862 2936.04 188.85 2937.23C142.877 2938.43 98.2624 2921.03 64.549 2888.76C30.7968 2856.49 10.6231 2811.9 8.33409 2764.5C6.00639 2717.1 21.7575 2670.64 52.1732 2635.04C82.589 2599.44 125.264 2577.51 171.159 2573.93C217.016 2570.36 262.407 2585.42 297.672 2615.9C332.937 2646.38 356.137 2708.13 360.754 2755.35" stroke="white" stroke-width="15.879" stroke-linecap="round" stroke-linejoin="round"/>
<path id="path1355-9-4-7-4" d="M1775.1 3219.06C1775.1 3266.52 1757.14 3312.1 1725.02 3346.09C1692.89 3380.06 1649.21 3399.75 1603.2 3400.94C1557.23 3402.14 1512.61 3384.74 1478.9 3352.47C1445.14 3320.2 1424.97 3275.61 1422.68 3228.2C1420.35 3180.8 1436.11 3134.35 1466.52 3098.74C1496.94 3063.15 1539.61 3041.22 1585.51 3037.64C1631.36 3034.06 1676.75 3049.12 1712.02 3079.61C1747.28 3110.09 1770.48 3171.84 1775.1 3219.06" stroke="white" stroke-width="15.879" stroke-linecap="round" stroke-linejoin="round"/>
<path id="path1355-9-4-4-9" d="M3204.93 2755.35C3204.93 2802.82 3186.97 2848.4 3154.85 2882.38C3122.73 2916.36 3079.04 2936.04 3033.03 2937.23C2987.06 2938.43 2942.44 2921.03 2908.73 2888.76C2874.98 2856.49 2854.8 2811.9 2852.52 2764.5C2850.19 2717.1 2865.94 2670.64 2896.35 2635.04C2926.77 2599.44 2969.45 2577.51 3015.34 2573.93C3061.2 2570.36 3106.59 2585.42 3141.85 2615.9C3177.12 2646.38 3200.32 2708.13 3204.93 2755.35" stroke="white" stroke-width="15.879" stroke-linecap="round" stroke-linejoin="round"/>
<g id="@">
<path d="M3040.18 2860.69C3025.69 2860.69 3012.88 2858.7 3001.75 2854.72C2990.63 2850.79 2981.27 2844.99 2973.7 2837.32C2966.12 2829.65 2960.39 2820.25 2956.51 2809.12C2952.63 2798 2950.69 2785.26 2950.69 2770.91C2950.69 2757.04 2952.65 2744.64 2956.58 2733.7C2960.56 2722.76 2966.31 2713.48 2973.84 2705.86C2981.42 2698.19 2990.6 2692.34 3001.4 2688.31C3012.24 2684.29 3024.5 2682.28 3038.19 2682.28C3051.49 2682.28 3063.14 2684.46 3073.13 2688.81C3083.17 2693.12 3091.55 2698.97 3098.27 2706.35C3105.04 2713.69 3110.11 2721.96 3113.47 2731.14C3116.88 2740.33 3118.58 2749.8 3118.58 2759.55C3118.58 2766.42 3118.25 2773.38 3117.59 2780.43C3116.93 2787.49 3115.53 2793.97 3113.4 2799.89C3111.27 2805.76 3107.98 2810.5 3103.53 2814.1C3099.12 2817.69 3093.16 2819.49 3085.63 2819.49C3082.32 2819.49 3078.67 2818.97 3074.69 2817.93C3070.72 2816.89 3067.19 2815.16 3064.11 2812.75C3061.03 2810.33 3059.21 2807.09 3058.64 2803.02H3057.79C3056.65 2805.76 3054.9 2808.37 3052.53 2810.83C3050.21 2813.29 3047.16 2815.26 3043.37 2816.72C3039.63 2818.19 3035.06 2818.83 3029.66 2818.64C3023.51 2818.4 3018.09 2817.03 3013.4 2814.52C3008.71 2811.96 3004.78 2808.51 3001.61 2804.15C2998.48 2799.75 2996.12 2794.66 2994.51 2788.88C2992.95 2783.06 2992.16 2776.78 2992.16 2770.06C2992.16 2763.67 2993.11 2757.82 2995 2752.52C2996.9 2747.22 2999.53 2742.58 3002.89 2738.6C3006.3 2734.62 3010.27 2731.45 3014.82 2729.08C3019.41 2726.67 3024.36 2725.18 3029.66 2724.61C3034.4 2724.13 3038.71 2724.35 3042.59 2725.25C3046.47 2726.1 3049.67 2727.4 3052.18 2729.15C3054.69 2730.86 3056.27 2732.75 3056.94 2734.83H3057.79V2726.88H3072.85V2791.08C3072.85 2795.06 3073.96 2798.57 3076.18 2801.6C3078.41 2804.63 3081.65 2806.14 3085.91 2806.14C3090.74 2806.14 3094.44 2804.48 3096.99 2801.17C3099.6 2797.86 3101.37 2792.74 3102.32 2785.83C3103.31 2778.92 3103.81 2770.06 3103.81 2759.27C3103.81 2752.92 3102.94 2746.67 3101.18 2740.52C3099.48 2734.31 3096.88 2728.51 3093.37 2723.12C3089.91 2717.72 3085.54 2712.96 3080.23 2708.84C3074.93 2704.72 3068.7 2701.5 3061.55 2699.18C3054.45 2696.81 3046.38 2695.63 3037.33 2695.63C3026.21 2695.63 3016.24 2697.36 3007.43 2700.81C2998.67 2704.22 2991.22 2709.22 2985.06 2715.8C2978.95 2722.33 2974.29 2730.29 2971.07 2739.66C2967.9 2748.99 2966.31 2759.6 2966.31 2771.48C2966.31 2783.56 2967.9 2794.28 2971.07 2803.66C2974.29 2813.03 2979.02 2820.94 2985.27 2827.38C2991.57 2833.82 2999.36 2838.69 3008.64 2842.01C3017.92 2845.37 3028.62 2847.05 3040.74 2847.05C3045.95 2847.05 3051.09 2846.55 3056.16 2845.56C3061.22 2844.56 3065.7 2843.48 3069.58 2842.29C3073.46 2841.11 3076.25 2840.23 3077.96 2839.66L3081.94 2852.73C3079 2853.96 3075.17 2855.19 3070.43 2856.43C3065.74 2857.66 3060.72 2858.67 3055.37 2859.48C3050.07 2860.28 3045 2860.69 3040.18 2860.69ZM3031.94 2804.15C3038.28 2804.15 3043.42 2802.87 3047.35 2800.32C3051.28 2797.76 3054.14 2793.9 3055.94 2788.74C3057.74 2783.58 3058.64 2777.07 3058.64 2769.21C3058.64 2761.25 3057.65 2755.05 3055.66 2750.6C3053.67 2746.15 3050.73 2743.03 3046.85 2741.23C3042.97 2739.43 3038.19 2738.53 3032.5 2738.53C3027.11 2738.53 3022.49 2739.95 3018.66 2742.79C3014.87 2745.58 3011.96 2749.32 3009.92 2754.01C3007.93 2758.65 3006.94 2763.72 3006.94 2769.21C3006.94 2775.27 3007.74 2780.98 3009.35 2786.33C3010.96 2791.63 3013.59 2795.94 3017.23 2799.25C3020.88 2802.52 3025.78 2804.15 3031.94 2804.15Z" fill="white"/>
<path d="M3001.75 2854.72L3002.13 2853.66L3002.13 2853.66L3001.75 2854.72ZM2973.7 2837.32L2974.5 2836.53L2974.5 2836.53L2973.7 2837.32ZM2956.51 2809.12L2955.45 2809.49L2955.45 2809.49L2956.51 2809.12ZM2956.58 2733.7L2955.53 2733.31L2955.53 2733.32L2956.58 2733.7ZM2973.84 2705.86L2973.04 2705.07L2973.04 2705.07L2973.84 2705.86ZM3001.4 2688.31L3001.01 2687.26L3001.01 2687.26L3001.4 2688.31ZM3073.13 2688.81L3072.68 2689.84L3072.69 2689.84L3073.13 2688.81ZM3098.27 2706.35L3097.44 2707.11L3097.45 2707.11L3098.27 2706.35ZM3113.47 2731.14L3112.42 2731.53L3112.42 2731.53L3113.47 2731.14ZM3117.59 2780.43L3116.47 2780.33L3116.47 2780.33L3117.59 2780.43ZM3113.4 2799.89L3114.45 2800.27L3114.46 2800.27L3113.4 2799.89ZM3103.53 2814.1L3102.82 2813.22L3102.82 2813.23L3103.53 2814.1ZM3074.69 2817.93L3074.98 2816.85L3074.98 2816.85L3074.69 2817.93ZM3064.11 2812.75L3063.42 2813.63L3064.11 2812.75ZM3058.64 2803.02L3059.75 2802.86L3059.62 2801.89H3058.64V2803.02ZM3057.79 2803.02V2801.89H3057.04L3056.75 2802.59L3057.79 2803.02ZM3052.53 2810.83L3051.72 2810.05L3051.72 2810.06L3052.53 2810.83ZM3043.37 2816.72L3042.97 2815.68L3042.96 2815.68L3043.37 2816.72ZM3029.66 2818.64L3029.62 2819.76L3029.62 2819.76L3029.66 2818.64ZM3013.4 2814.52L3012.86 2815.51L3012.87 2815.51L3013.4 2814.52ZM3001.61 2804.15L3000.7 2804.8L3000.7 2804.81L3001.61 2804.15ZM2994.51 2788.88L2993.42 2789.17L2993.43 2789.18L2994.51 2788.88ZM2995 2752.52L2996.06 2752.9L2996.06 2752.9L2995 2752.52ZM3002.89 2738.6L3002.04 2737.87L3002.03 2737.87L3002.89 2738.6ZM3014.82 2729.08L3015.34 2730.08L3015.34 2730.07L3014.82 2729.08ZM3029.66 2724.61L3029.55 2723.49L3029.54 2723.49L3029.66 2724.61ZM3042.59 2725.25L3042.34 2726.34L3042.35 2726.34L3042.59 2725.25ZM3052.18 2729.15L3051.54 2730.07L3051.54 2730.08L3051.55 2730.08L3052.18 2729.15ZM3056.94 2734.83L3055.87 2735.17L3056.12 2735.96H3056.94V2734.83ZM3057.79 2734.83V2735.96H3058.91V2734.83H3057.79ZM3057.79 2726.88V2725.76H3056.67V2726.88H3057.79ZM3072.85 2726.88H3073.97V2725.76H3072.85V2726.88ZM3076.18 2801.6L3075.28 2802.26L3075.28 2802.26L3076.18 2801.6ZM3096.99 2801.17L3096.11 2800.48L3096.11 2800.48L3096.99 2801.17ZM3102.32 2785.83L3101.21 2785.67L3101.21 2785.68L3102.32 2785.83ZM3101.18 2740.52L3100.1 2740.81L3100.1 2740.82L3101.18 2740.52ZM3093.37 2723.12L3092.43 2723.72L3092.43 2723.73L3093.37 2723.12ZM3061.55 2699.18L3061.2 2700.25L3061.21 2700.25L3061.55 2699.18ZM3007.43 2700.81L3007.84 2701.86L3007.84 2701.86L3007.43 2700.81ZM2985.06 2715.8L2984.24 2715.03L2984.24 2715.03L2985.06 2715.8ZM2971.07 2739.66L2970.01 2739.3L2970.01 2739.3L2971.07 2739.66ZM2971.07 2803.66L2970.01 2804.01L2970.01 2804.02L2971.07 2803.66ZM2985.27 2827.38L2984.47 2828.16L2984.47 2828.16L2985.27 2827.38ZM3008.64 2842.01L3009.02 2840.95L3009.02 2840.95L3008.64 2842.01ZM3056.16 2845.56L3056.37 2846.66L3056.37 2846.66L3056.16 2845.56ZM3069.58 2842.29L3069.91 2843.36L3069.91 2843.36L3069.58 2842.29ZM3077.96 2839.66L3079.03 2839.34L3078.7 2838.24L3077.6 2838.6L3077.96 2839.66ZM3081.94 2852.73L3082.37 2853.77L3083.3 2853.37L3083.01 2852.41L3081.94 2852.73ZM3070.43 2856.43L3070.15 2855.34L3070.15 2855.34L3070.43 2856.43ZM3055.37 2859.48L3055.21 2858.37L3055.21 2858.37L3055.37 2859.48ZM3055.94 2788.74L3057 2789.11L3057 2789.11L3055.94 2788.74ZM3055.66 2750.6L3056.68 2750.14L3056.68 2750.14L3055.66 2750.6ZM3018.66 2742.79L3019.32 2743.69L3019.32 2743.69L3018.66 2742.79ZM3009.92 2754.01L3008.89 2753.56L3008.89 2753.57L3009.92 2754.01ZM3009.35 2786.33L3008.28 2786.65L3008.28 2786.65L3009.35 2786.33ZM3017.23 2799.25L3016.48 2800.08L3016.49 2800.09L3017.23 2799.25ZM3040.18 2859.56C3025.79 2859.56 3013.11 2857.59 3002.13 2853.66L3001.37 2855.78C3012.65 2859.81 3025.59 2861.81 3040.18 2861.81V2859.56ZM3002.13 2853.66C2991.14 2849.78 2981.94 2844.07 2974.5 2836.53L2972.9 2838.11C2980.61 2845.91 2990.11 2851.8 3001.38 2855.78L3002.13 2853.66ZM2974.5 2836.53C2967.05 2828.99 2961.4 2819.74 2957.57 2808.75L2955.45 2809.49C2959.38 2820.76 2965.2 2830.31 2972.9 2838.11L2974.5 2836.53ZM2957.57 2808.75C2953.74 2797.77 2951.81 2785.16 2951.81 2770.91H2949.56C2949.56 2785.36 2951.52 2798.23 2955.45 2809.49L2957.57 2808.75ZM2951.81 2770.91C2951.81 2757.15 2953.76 2744.87 2957.64 2734.08L2955.53 2733.32C2951.54 2744.4 2949.56 2756.94 2949.56 2770.91H2951.81ZM2957.64 2734.08C2961.56 2723.28 2967.23 2714.14 2974.64 2706.65L2973.04 2705.07C2965.39 2712.82 2959.56 2722.24 2955.53 2733.31L2957.64 2734.08ZM2974.64 2706.65C2982.09 2699.1 2991.14 2693.34 3001.79 2689.37L3001.01 2687.26C2990.07 2691.34 2980.74 2697.27 2973.04 2705.07L2974.64 2706.65ZM3001.79 2689.37C3012.48 2685.4 3024.61 2683.4 3038.19 2683.4V2681.16C3024.39 2681.16 3011.99 2683.18 3001.01 2687.26L3001.79 2689.37ZM3038.19 2683.4C3051.37 2683.4 3062.86 2685.56 3072.68 2689.84L3073.58 2687.78C3063.42 2683.35 3051.61 2681.16 3038.19 2681.16V2683.4ZM3072.69 2689.84C3082.59 2694.09 3090.84 2699.85 3097.44 2707.11L3099.1 2705.6C3092.26 2698.08 3083.74 2692.15 3073.57 2687.78L3072.69 2689.84ZM3097.45 2707.11C3104.12 2714.35 3109.11 2722.48 3112.42 2731.53L3114.52 2730.76C3111.11 2721.43 3105.97 2713.04 3099.1 2705.59L3097.45 2707.11ZM3112.42 2731.53C3115.78 2740.59 3117.46 2749.93 3117.46 2759.55H3119.71C3119.71 2749.66 3117.98 2740.06 3114.52 2730.75L3112.42 2731.53ZM3117.46 2759.55C3117.46 2766.38 3117.13 2773.3 3116.47 2780.33L3118.71 2780.54C3119.37 2773.45 3119.71 2766.45 3119.71 2759.55H3117.46ZM3116.47 2780.33C3115.82 2787.3 3114.44 2793.69 3112.34 2799.51L3114.46 2800.27C3116.62 2794.25 3118.04 2787.67 3118.71 2780.54L3116.47 2780.33ZM3112.35 2799.51C3110.28 2805.21 3107.1 2809.76 3102.82 2813.22L3104.23 2814.97C3108.86 2811.23 3112.26 2806.32 3114.45 2800.27L3112.35 2799.51ZM3102.82 2813.23C3098.67 2816.62 3092.98 2818.37 3085.63 2818.37V2820.62C3093.33 2820.62 3099.58 2818.77 3104.24 2814.96L3102.82 2813.23ZM3085.63 2818.37C3082.43 2818.37 3078.88 2817.87 3074.98 2816.85L3074.41 2819.02C3078.46 2820.08 3082.2 2820.62 3085.63 2820.62V2818.37ZM3074.98 2816.85C3071.14 2815.84 3067.75 2814.18 3064.8 2811.86L3063.42 2813.63C3066.62 2816.14 3070.29 2817.94 3074.41 2819.02L3074.98 2816.85ZM3064.8 2811.86C3061.97 2809.64 3060.28 2806.66 3059.75 2802.86L3057.53 2803.17C3058.14 2807.51 3060.1 2811.02 3063.42 2813.63L3064.8 2811.86ZM3058.64 2801.89H3057.79V2804.14H3058.64V2801.89ZM3056.75 2802.59C3055.68 2805.19 3054.01 2807.67 3051.72 2810.05L3053.34 2811.61C3055.79 2809.06 3057.63 2806.34 3058.83 2803.44L3056.75 2802.59ZM3051.72 2810.06C3049.53 2812.38 3046.63 2814.26 3042.97 2815.68L3043.78 2817.77C3047.69 2816.25 3050.89 2814.2 3053.35 2811.6L3051.72 2810.06ZM3042.96 2815.68C3039.4 2817.08 3035 2817.71 3029.7 2817.52L3029.62 2819.76C3035.13 2819.96 3039.86 2819.31 3043.78 2817.77L3042.96 2815.68ZM3029.71 2817.52C3023.69 2817.29 3018.44 2815.95 3013.93 2813.53L3012.87 2815.51C3017.73 2818.11 3023.32 2819.52 3029.62 2819.76L3029.71 2817.52ZM3013.94 2813.54C3009.4 2811.06 3005.59 2807.72 3002.52 2803.49L3000.7 2804.81C3003.97 2809.3 3008.03 2812.87 3012.86 2815.51L3013.94 2813.54ZM3002.52 2803.5C2999.48 2799.22 2997.17 2794.25 2995.59 2788.58L2993.43 2789.18C2995.07 2795.07 2997.49 2800.28 3000.7 2804.8L3002.52 2803.5ZM2995.59 2788.59C2994.06 2782.87 2993.29 2776.7 2993.29 2770.06H2991.04C2991.04 2776.87 2991.83 2783.24 2993.42 2789.17L2995.59 2788.59ZM2993.29 2770.06C2993.29 2763.78 2994.22 2758.06 2996.06 2752.9L2993.95 2752.14C2992.01 2757.58 2991.04 2763.56 2991.04 2770.06H2993.29ZM2996.06 2752.9C2997.91 2747.71 3000.48 2743.19 3003.75 2739.32L3002.03 2737.87C2998.58 2741.96 2995.88 2746.72 2993.95 2752.14L2996.06 2752.9ZM3003.74 2739.33C3007.06 2735.46 3010.92 2732.38 3015.34 2730.08L3014.3 2728.09C3009.63 2730.52 3005.54 2733.78 3002.04 2737.87L3003.74 2739.33ZM3015.34 2730.07C3019.81 2727.73 3024.62 2726.28 3029.78 2725.72L3029.54 2723.49C3024.1 2724.07 3019.02 2725.61 3014.3 2728.09L3015.34 2730.07ZM3029.78 2725.72C3034.41 2725.26 3038.59 2725.47 3042.34 2726.34L3042.84 2724.15C3038.82 2723.22 3034.39 2723.01 3029.55 2723.49L3029.78 2725.72ZM3042.35 2726.34C3046.13 2727.17 3049.18 2728.43 3051.54 2730.07L3052.82 2728.23C3050.16 2726.38 3046.82 2725.03 3042.83 2724.15L3042.35 2726.34ZM3051.55 2730.08C3053.93 2731.7 3055.31 2733.41 3055.87 2735.17L3058.01 2734.49C3057.24 2732.09 3055.45 2730.02 3052.81 2728.22L3051.55 2730.08ZM3056.94 2735.96H3057.79V2733.71H3056.94V2735.96ZM3058.91 2734.83V2726.88H3056.67V2734.83H3058.91ZM3057.79 2728H3072.85V2725.76H3057.79V2728ZM3071.72 2726.88V2791.08H3073.97V2726.88H3071.72ZM3071.72 2791.08C3071.72 2795.29 3072.9 2799.03 3075.28 2802.26L3077.09 2800.93C3075.01 2798.11 3073.97 2794.84 3073.97 2791.08H3071.72ZM3075.28 2802.26C3077.75 2805.62 3081.35 2807.26 3085.91 2807.26V2805.02C3081.95 2805.02 3079.07 2803.63 3077.09 2800.93L3075.28 2802.26ZM3085.91 2807.26C3091.03 2807.26 3095.08 2805.49 3097.88 2801.85L3096.11 2800.48C3093.8 2803.48 3090.46 2805.02 3085.91 2805.02V2807.26ZM3097.88 2801.86C3100.66 2798.32 3102.47 2792.98 3103.43 2785.98L3101.21 2785.68C3100.27 2792.51 3098.54 2797.39 3096.11 2800.48L3097.88 2801.86ZM3103.43 2785.99C3104.44 2779 3104.93 2770.09 3104.93 2759.27H3102.69C3102.69 2770.03 3102.19 2778.83 3101.21 2785.67L3103.43 2785.99ZM3104.93 2759.27C3104.93 2752.82 3104.04 2746.46 3102.26 2740.21L3100.1 2740.82C3101.83 2746.88 3102.69 2753.03 3102.69 2759.27H3104.93ZM3102.27 2740.22C3100.53 2733.9 3097.88 2728 3094.31 2722.5L3092.43 2723.73C3095.87 2729.03 3098.43 2734.72 3100.1 2740.81L3102.27 2740.22ZM3094.32 2722.51C3090.79 2717 3086.32 2712.15 3080.92 2707.95L3079.54 2709.73C3084.75 2713.77 3089.04 2718.44 3092.43 2723.72L3094.32 2722.51ZM3080.92 2707.95C3075.5 2703.75 3069.16 2700.47 3061.9 2698.11L3061.21 2700.25C3068.25 2702.53 3074.36 2705.7 3079.54 2709.73L3080.92 2707.95ZM3061.91 2698.12C3054.67 2695.7 3046.47 2694.51 3037.33 2694.51V2696.75C3046.28 2696.75 3054.23 2697.92 3061.2 2700.24L3061.91 2698.12ZM3037.33 2694.51C3026.09 2694.51 3015.98 2696.25 3007.02 2699.77L3007.84 2701.86C3016.5 2698.46 3026.32 2696.75 3037.33 2696.75V2694.51ZM3007.03 2699.77C2998.12 2703.24 2990.52 2708.32 2984.24 2715.03L2985.88 2716.57C2991.92 2710.11 2999.23 2705.21 3007.84 2701.86L3007.03 2699.77ZM2984.24 2715.03C2978.02 2721.7 2973.27 2729.79 2970.01 2739.3L2972.13 2740.03C2975.31 2730.79 2979.89 2722.97 2985.88 2716.57L2984.24 2715.03ZM2970.01 2739.3C2966.79 2748.77 2965.19 2759.5 2965.19 2771.48H2967.43C2967.43 2759.7 2969.01 2749.22 2972.13 2740.02L2970.01 2739.3ZM2965.19 2771.48C2965.19 2783.65 2966.79 2794.5 2970.01 2804.01L2972.13 2803.3C2969.01 2794.06 2967.43 2783.46 2967.43 2771.48H2965.19ZM2970.01 2804.02C2973.28 2813.53 2978.09 2821.59 2984.47 2828.16L2986.08 2826.6C2979.96 2820.29 2975.3 2812.53 2972.13 2803.29L2970.01 2804.02ZM2984.47 2828.16C2990.9 2834.73 2998.84 2839.7 3008.26 2843.06L3009.02 2840.95C2999.88 2837.69 2992.24 2832.9 2986.08 2826.59L2984.47 2828.16ZM3008.26 2843.06C3017.69 2846.48 3028.52 2848.17 3040.74 2848.17V2845.93C3028.72 2845.93 3018.16 2844.26 3009.02 2840.95L3008.26 2843.06ZM3040.74 2848.17C3046.02 2848.17 3051.23 2847.67 3056.37 2846.66L3055.94 2844.46C3050.94 2845.44 3045.88 2845.93 3040.74 2845.93V2848.17ZM3056.37 2846.66C3061.47 2845.66 3065.98 2844.56 3069.91 2843.36L3069.25 2841.22C3065.41 2842.39 3060.98 2843.47 3055.94 2844.46L3056.37 2846.66ZM3069.91 2843.36C3073.79 2842.18 3076.59 2841.3 3078.31 2840.73L3077.6 2838.6C3075.92 2839.16 3073.13 2840.04 3069.25 2841.22L3069.91 2843.36ZM3076.89 2839.99L3080.86 2853.06L3083.01 2852.41L3079.03 2839.34L3076.89 2839.99ZM3081.5 2851.7C3078.64 2852.9 3074.86 2854.12 3070.15 2855.34L3070.71 2857.51C3075.48 2856.27 3079.37 2855.03 3082.37 2853.77L3081.5 2851.7ZM3070.15 2855.34C3065.5 2856.56 3060.52 2857.57 3055.21 2858.37L3055.54 2860.59C3060.93 2859.78 3065.99 2858.75 3070.72 2857.51L3070.15 2855.34ZM3055.21 2858.37C3049.95 2859.17 3044.94 2859.56 3040.18 2859.56V2861.81C3045.07 2861.81 3050.19 2861.4 3055.54 2860.59L3055.21 2858.37ZM3031.94 2805.27C3038.42 2805.27 3043.79 2803.97 3047.96 2801.26L3046.74 2799.38C3043.04 2801.78 3038.14 2803.03 3031.94 2803.03V2805.27ZM3047.96 2801.26C3052.13 2798.54 3055.13 2794.46 3057 2789.11L3054.88 2788.37C3053.15 2793.34 3050.43 2796.98 3046.74 2799.38L3047.96 2801.26ZM3057 2789.11C3058.86 2783.79 3059.76 2777.14 3059.76 2769.21H3057.52C3057.52 2776.99 3056.63 2783.37 3054.88 2788.37L3057 2789.11ZM3059.76 2769.21C3059.76 2761.18 3058.76 2754.8 3056.68 2750.14L3054.63 2751.06C3056.53 2755.3 3057.52 2761.32 3057.52 2769.21H3059.76ZM3056.68 2750.14C3054.6 2745.48 3051.49 2742.14 3047.32 2740.21L3046.38 2742.24C3049.98 2743.91 3052.74 2746.82 3054.63 2751.06L3056.68 2750.14ZM3047.32 2740.21C3043.25 2738.32 3038.3 2737.41 3032.5 2737.41V2739.65C3038.07 2739.65 3042.69 2740.53 3046.38 2742.24L3047.32 2740.21ZM3032.5 2737.41C3026.9 2737.41 3022.04 2738.88 3017.99 2741.89L3019.32 2743.69C3022.94 2741.01 3027.31 2739.65 3032.5 2739.65V2737.41ZM3017.99 2741.89C3014.03 2744.81 3011 2748.71 3008.89 2753.56L3010.95 2754.46C3012.91 2749.93 3015.71 2746.36 3019.32 2743.69L3017.99 2741.89ZM3008.89 2753.57C3006.84 2758.36 3005.81 2763.58 3005.81 2769.21H3008.06C3008.06 2763.86 3009.03 2758.94 3010.95 2754.45L3008.89 2753.57ZM3005.81 2769.21C3005.81 2775.37 3006.63 2781.19 3008.28 2786.65L3010.43 2786C3008.85 2780.77 3008.06 2775.17 3008.06 2769.21H3005.81ZM3008.28 2786.65C3009.94 2792.12 3012.67 2796.61 3016.48 2800.08L3017.99 2798.42C3014.51 2795.26 3011.98 2791.13 3010.42 2786L3008.28 2786.65ZM3016.49 2800.09C3020.39 2803.58 3025.58 2805.27 3031.94 2805.27V2803.03C3025.98 2803.03 3021.37 2801.46 3017.98 2798.42L3016.49 2800.09Z" fill="white"/>
</g>
</g>
<defs>
<clipPath id="clip0_4_4">
<rect width="4114" height="3409" fill="white"/>
</clipPath>
        <use href="#grafo_1" x="0" y="0"></use>
        <animateTransform id="smallGearJump" 
                attributeName="transform" attributeType="XML"
                type="rotate" from="0 0 0" to="360 0 0" by="1" dur="10s" begin="1s"
                 fill="freeze" repeatCount="indefinite"/>

</defs>
        <use href="#grafo_1" x="0" y="0"></use>
        <animateTransform id="smallGearJump" 
                attributeName="transform" attributeType="XML"
                type="rotate" from="0 0 0" to="360 0 0" by="1" dur="10s" begin="1s"
                 fill="freeze" repeatCount="indefinite"/>

</svg>
