<?xml version="1.0" encoding="UTF-8" standalone="no"?>
<svg
   xmlns:dc="http://purl.org/dc/elements/1.1/"
   xmlns:cc="http://creativecommons.org/ns#"
   xmlns:rdf="http://www.w3.org/1999/02/22-rdf-syntax-ns#"
   xmlns:svg="http://www.w3.org/2000/svg"
   xmlns="http://www.w3.org/2000/svg"
   xmlns:sodipodi="http://sodipodi.sourceforge.net/DTD/sodipodi-0.dtd"
   xmlns:inkscape="http://www.inkscape.org/namespaces/inkscape"
   width="3732.4551"
   height="4002.656"
   viewBox="0 0 3732.4551 4002.656"
   version="1.1"
   id="svg1364"
   sodipodi:docname="grafo.svg"
   style="fill:none"
   inkscape:version="0.92.3 (2405546, 2018-03-11)">
  <metadata
     id="metadata1368">
    <rdf:RDF>
      <cc:Work
         rdf:about="">
        <dc:format>image/svg+xml</dc:format>
        <dc:type
           rdf:resource="http://purl.org/dc/dcmitype/StillImage" />
        <dc:title></dc:title>
      </cc:Work>
    </rdf:RDF>
  </metadata>
  <sodipodi:namedview
     pagecolor="#ffffff"
     bordercolor="#666666"
     borderopacity="1"
     objecttolerance="10"
     gridtolerance="10"
     guidetolerance="10"
     inkscape:pageopacity="0"
     inkscape:pageshadow="2"
     inkscape:window-width="1920"
     inkscape:window-height="1027"
     id="namedview1366"
     showgrid="false"
     inkscape:zoom="0.18504772"
     inkscape:cx="264.36215"
     inkscape:cy="1910.3292"
     inkscape:window-x="-8"
     inkscape:window-y="-8"
     inkscape:window-maximized="1"
     inkscape:current-layer="svg1364" />
  <g
     id="diseno05"
     clip-path="url(#clip0_1_2)"
     transform="matrix(1.263499,0,0,10.788497,-821.66624,100.63646)">
    <g
       id="salud"
       transform="matrix(1,0,0,0.18895216,2070.078,271.92481)">
      <path
         id="path1012"
         d="m 2012.03,107.522 c -2.16,-6.787 -12.01,-7.164 -24.92,3.834 -5.32,15.427 3.63,59.612 11.5,99.777 l 69.66,-0.639 c 13.92,-75.276 12.81,-93.367 5.75,-100.416 -7.06,-7.05 -14.91,-8.473 -20.45,-2.556"
         inkscape:connector-curvature="0"
         style="stroke:#2aa2a0;stroke-width:12.19999981" />
      <path
         id="path1014"
         d="m 2119.4,200.825 c 8.7,101.721 -97.36,84.508 -86.2,8.947 l 35.07,0.722"
         inkscape:connector-curvature="0"
         style="stroke:#2aa2a0;stroke-width:12.19999981" />
      <g
         id="path1016">
        <path
           d="m 2136.07,182.079 c 0,4.628 -1.8,9.073 -5,12.386 -3.21,3.314 -7.58,5.233 -12.18,5.35 -4.59,0.116 -9.05,-1.58 -12.42,-4.727 -3.37,-3.147 -5.39,-7.495 -5.62,-12.117 -0.23,-4.622 1.34,-9.152 4.38,-12.624 3.04,-3.471 7.31,-5.609 11.89,-5.958 4.59,-0.349 9.12,1.12 12.65,4.092 3.52,2.972 5.75,7.213 6.21,11.818"
           id="path1293"
           inkscape:connector-curvature="0"
           style="fill:#f8fbfd" />
        <path
           d="m 2136.07,182.079 c 0,4.628 -1.8,9.073 -5,12.386 -3.21,3.314 -7.58,5.233 -12.18,5.35 -4.59,0.116 -9.05,-1.58 -12.42,-4.727 -3.37,-3.147 -5.39,-7.495 -5.62,-12.117 -0.23,-4.622 1.34,-9.152 4.38,-12.624 3.04,-3.471 7.31,-5.609 11.89,-5.958 4.59,-0.349 9.12,1.12 12.65,4.092 3.52,2.972 5.75,7.213 6.21,11.818"
           id="path1295"
           inkscape:connector-curvature="0"
           style="stroke:#2aa2a0;stroke-width:12.19999981;stroke-linecap:round;stroke-linejoin:round" />
      </g>
    </g>
    <g
       id="transporte"
       transform="matrix(0.92956691,0,0,0.15125063,-77.184707,41.385514)"
       style="fill:none;stroke:#ffffff;stroke-width:10.60441685;stroke-miterlimit:4;stroke-dasharray:none;stroke-opacity:1">
      <path
         id="rect1029"
         d="m 1139.65,119.431 h -114.27 v 75.179 h 114.27 z"
         inkscape:connector-curvature="0"
         style="fill:none;stroke:#ffffff;stroke-width:10.60441685;stroke-linecap:round;stroke-linejoin:round;stroke-miterlimit:4;stroke-dasharray:none;stroke-opacity:1" />
      <g
         id="path1031"
         style="fill:none;stroke:#ffffff;stroke-width:10.60441685;stroke-miterlimit:4;stroke-dasharray:none;stroke-opacity:1">
        <path
           d="m 1071.3,219.263 c 0,3.678 -1.58,7.209 -4.4,9.842 -2.83,2.632 -6.67,4.158 -10.72,4.25 -4.04,0.092 -7.96,-1.255 -10.93,-3.755 -2.97,-2.501 -4.74,-5.956 -4.94,-9.628 -0.21,-3.673 1.18,-7.272 3.85,-10.03 2.68,-2.759 6.43,-4.458 10.47,-4.735 4.03,-0.277 8.02,0.89 11.12,3.252 3.1,2.361 5.07,5.731 5.47,9.389"
           id="path1300"
           inkscape:connector-curvature="0"
           style="fill:none;stroke:#ffffff;stroke-width:10.60441685;stroke-miterlimit:4;stroke-dasharray:none;stroke-opacity:1" />
        <path
           d="m 1071.3,219.263 c 0,3.678 -1.58,7.209 -4.4,9.842 -2.83,2.632 -6.67,4.158 -10.72,4.25 -4.04,0.092 -7.96,-1.255 -10.93,-3.755 -2.97,-2.501 -4.74,-5.956 -4.94,-9.628 -0.21,-3.673 1.18,-7.272 3.85,-10.03 2.68,-2.759 6.43,-4.458 10.47,-4.735 4.03,-0.277 8.02,0.89 11.12,3.252 3.1,2.361 5.07,5.731 5.47,9.389"
           id="path1302"
           inkscape:connector-curvature="0"
           style="fill:none;stroke:#ffffff;stroke-width:10.60441685;stroke-linecap:round;stroke-linejoin:round;stroke-miterlimit:4;stroke-dasharray:none;stroke-opacity:1" />
      </g>
      <g
         id="path1031-4"
         style="fill:none;stroke:#ffffff;stroke-width:10.60441685;stroke-miterlimit:4;stroke-dasharray:none;stroke-opacity:1">
        <path
           d="m 1184.21,219.872 c 0,3.677 -1.58,7.209 -4.4,9.842 -2.83,2.632 -6.67,4.157 -10.72,4.25 -4.04,0.092 -7.97,-1.255 -10.93,-3.756 -2.97,-2.5 -4.74,-5.955 -4.95,-9.627 -0.2,-3.673 1.18,-7.272 3.86,-10.031 2.67,-2.758 6.43,-4.457 10.46,-4.734 4.04,-0.277 8.03,0.89 11.13,3.252 3.1,2.361 5.07,5.731 5.47,9.389"
           id="path1305"
           inkscape:connector-curvature="0"
           style="fill:none;stroke:#ffffff;stroke-width:10.60441685;stroke-miterlimit:4;stroke-dasharray:none;stroke-opacity:1" />
        <path
           d="m 1184.21,219.872 c 0,3.677 -1.58,7.209 -4.4,9.842 -2.83,2.632 -6.67,4.157 -10.72,4.25 -4.04,0.092 -7.97,-1.255 -10.93,-3.756 -2.97,-2.5 -4.74,-5.955 -4.95,-9.627 -0.2,-3.673 1.18,-7.272 3.86,-10.031 2.67,-2.758 6.43,-4.457 10.46,-4.734 4.04,-0.277 8.03,0.89 11.13,3.252 3.1,2.361 5.07,5.731 5.47,9.389"
           id="path1307"
           inkscape:connector-curvature="0"
           style="fill:none;stroke:#ffffff;stroke-width:10.60441685;stroke-linecap:round;stroke-linejoin:round;stroke-miterlimit:4;stroke-dasharray:none;stroke-opacity:1" />
      </g>
      <g
         id="path1048"
         style="fill:none;stroke:#ffffff;stroke-width:10.60441685;stroke-miterlimit:4;stroke-dasharray:none;stroke-opacity:1">
        <path
           d="m 1027.01,206.937 176.31,1.566 z"
           id="path1310"
           inkscape:connector-curvature="0"
           style="fill:none;stroke:#ffffff;stroke-width:10.60441685;stroke-miterlimit:4;stroke-dasharray:none;stroke-opacity:1" />
        <path
           d="m 1027.01,206.937 176.31,1.566"
           id="path1312"
           inkscape:connector-curvature="0"
           style="fill:none;stroke:#ffffff;stroke-width:10.60441685;stroke-linecap:round;stroke-miterlimit:4;stroke-dasharray:none;stroke-opacity:1" />
      </g>
      <path
         id="path1050"
         d="m 1155.98,202.441 v -67.348 l 18.17,-1.769 22.85,37.792 1.21,37.387 c -17.63,-0.91 -26.45,-23.803 -42.23,-6.062 z"
         inkscape:connector-curvature="0"
         style="fill:none;stroke:#ffffff;stroke-width:10.60441685;stroke-miterlimit:4;stroke-dasharray:none;stroke-opacity:1" />
      <path
         id="path1052"
         d="m 1162.51,172.682 -1.42,-27.786 13.06,-1.769 12.63,27.989 z"
         inkscape:connector-curvature="0"
         style="fill:none;stroke:#ffffff;stroke-width:10.60441685;stroke-linejoin:round;stroke-miterlimit:4;stroke-dasharray:none;stroke-opacity:1" />
    </g>
    <g
       id="ubicacion"
       transform="matrix(1.0640947,0,0,0.11542625,616.26598,0.33681247)"
       style="fill:#ffffff;fill-opacity:1">
      <path
         id="path1054"
         d="m 1425.78,283.166 c 0,0 54.84,-76.17 58.53,-120.262 7.72,-91.9862 -116.8,-115.1663 -119.02,2.562 -0.73,38.518 60.49,117.7 60.49,117.7 z"
         inkscape:connector-curvature="0"
         style="fill:none;fill-opacity:1;stroke:#f8fbfd;stroke-width:12.44569969;stroke-linecap:round;stroke-opacity:1" />
      <g
         id="path1056"
         style="fill:#ffffff;fill-opacity:1;stroke:none">
        <path
           d="m 1457.63,150.202 c 0,8.517 -3.47,16.698 -9.68,22.795 -6.2,6.098 -14.65,9.631 -23.53,9.845 -8.88,0.214 -17.5,-2.907 -24.02,-8.699 -6.51,-5.791 -10.41,-13.794 -10.86,-22.3 -0.45,-8.507 2.59,-16.844 8.47,-23.233 5.88,-6.389 14.13,-10.324 22.99,-10.966 8.86,-0.642 17.63,2.061 24.44,7.531 6.81,5.47 11.13,13.275 12.02,21.75"
           id="path1319"
           inkscape:connector-curvature="0"
           style="fill:#ffffff;fill-opacity:1;stroke:none" />
        <path
           d="m 1457.63,150.202 c 0,8.517 -3.47,16.698 -9.68,22.795 -6.2,6.098 -14.65,9.631 -23.53,9.845 -8.88,0.214 -17.5,-2.907 -24.02,-8.699 -6.51,-5.791 -10.41,-13.794 -10.86,-22.3 -0.45,-8.507 2.59,-16.844 8.47,-23.233 5.88,-6.389 14.13,-10.324 22.99,-10.966 8.86,-0.642 17.63,2.061 24.44,7.531 6.81,5.47 11.13,13.275 12.02,21.75"
           id="path1321"
           inkscape:connector-curvature="0"
           style="fill:#ffffff;fill-opacity:1;stroke:none;stroke-width:10.5770998;stroke-linecap:round;stroke-linejoin:round" />
      </g>
    </g>
    <g
       id="calendario"
       transform="matrix(0.7551748,0,0,0.15011992,1991.8633,45.109238)"
       style="fill:none;stroke:#ffffff;stroke-opacity:1">
      <path
         id="rect1058"
         d="m 1790.8935,105.14968 h -101.427 c -18.3457,0 -33.2163,10.36999 -33.2163,23.16182 v 68.26541 c 0,12.79107 14.8706,23.16106 33.2163,23.16106 h 101.427 c 18.3457,0 33.2163,-10.36999 33.2163,-23.16106 V 128.3115 c 0,-12.79183 -14.8706,-23.16182 -33.2163,-23.16182 z"
         inkscape:connector-curvature="0"
         style="fill:none;stroke:#ffffff;stroke-width:9.13838196;stroke-linecap:round;stroke-linejoin:round;stroke-opacity:1" />
      <g
         id="text1062"
         style="fill:none;stroke:#ffffff;stroke-opacity:1">
        <path
           d="m 1697.81,140.967 v 29.091 h -3.53 V 144.66 h -0.17 l -7.1,4.716 v -3.58 l 7.27,-4.829 z m 17.45,29.488 c -1.66,0 -3.16,-0.331 -4.5,-0.994 -1.33,-0.663 -2.4,-1.572 -3.21,-2.727 -0.8,-1.156 -1.24,-2.472 -1.32,-3.949 h 3.41 c 0.13,1.316 0.73,2.405 1.79,3.267 1.07,0.852 2.35,1.278 3.83,1.278 1.2,0 2.26,-0.279 3.19,-0.838 0.93,-0.559 1.67,-1.326 2.2,-2.301 0.54,-0.985 0.81,-2.097 0.81,-3.338 0,-1.269 -0.28,-2.401 -0.84,-3.395 -0.55,-1.004 -1.31,-1.794 -2.27,-2.372 -0.97,-0.578 -2.07,-0.871 -3.31,-0.881 -0.89,-0.009 -1.81,0.128 -2.74,0.412 -0.94,0.275 -1.71,0.63 -2.32,1.066 l -3.3,-0.398 1.77,-14.318 h 15.11 v 3.125 h -12.16 l -1.02,8.579 h 0.17 c 0.59,-0.473 1.34,-0.866 2.24,-1.179 0.9,-0.312 1.84,-0.469 2.81,-0.469 1.79,0 3.37,0.427 4.76,1.279 1.4,0.843 2.5,1.998 3.3,3.466 0.8,1.468 1.21,3.144 1.21,5.028 0,1.856 -0.42,3.513 -1.25,4.972 -0.83,1.449 -1.96,2.594 -3.41,3.437 -1.45,0.834 -3.1,1.25 -4.95,1.25 z"
           id="path1326"
           inkscape:connector-curvature="0"
           style="fill:none;stroke:#ffffff;stroke-opacity:1" />
        <path
           d="m 1697.81,140.967 h 2.8 v -2.804 h -2.8 z m 0,29.091 v 2.803 h 2.8 v -2.803 z m -3.53,0 h -2.8 v 2.803 h 2.8 z m 0,-25.398 h 2.81 v -2.804 h -2.81 z m -0.17,0 v -2.804 h -0.84 l -0.71,0.468 z m -7.1,4.716 h -2.8 v 5.226 l 4.35,-2.891 z m 0,-3.58 -1.55,-2.335 -1.25,0.832 v 1.503 z m 7.27,-4.829 v -2.804 h -0.84 l -0.71,0.468 z m 0.72,0 v 29.091 h 5.61 v -29.091 z m 2.81,26.287 h -3.53 v 5.607 h 3.53 z m -0.72,2.804 V 144.66 h -5.61 v 25.398 z m -2.81,-28.202 h -0.17 v 5.607 h 0.17 z m -1.72,0.468 -7.1,4.716 3.1,4.671 7.1,-4.716 z m -2.75,7.052 v -3.58 h -5.6 v 3.58 z m -1.25,-1.244 7.27,-4.83 -3.1,-4.671 -7.27,4.83 z m 5.72,-4.362 h 3.53 v -5.607 h -3.53 z m 16.48,25.691 -1.25,2.511 v 0 z m -3.21,-2.727 2.3,-1.603 v 0 z m -1.32,-3.949 v -2.804 h -2.95 l 0.15,2.947 z m 3.41,0 2.79,-0.281 -0.26,-2.523 h -2.53 z m 1.79,3.267 -1.77,2.176 0.01,0.008 0.01,0.009 z m 7.02,0.44 -1.44,-2.408 -0.01,0.006 z m 2.2,-2.301 -2.46,-1.347 -0.01,0.008 z m -0.03,-6.733 -2.46,1.346 0.01,0.014 v 0.013 z m -5.58,-3.253 -0.03,2.804 h 0.01 z m -2.74,0.412 0.78,2.691 0.02,-0.004 0.01,-0.004 z m -2.32,1.066 -0.34,2.783 1.09,0.131 0.89,-0.638 z m -3.3,-0.398 -2.78,-0.342 -0.34,2.788 2.79,0.337 z m 1.77,-14.318 v -2.804 h -2.48 l -0.31,2.461 z m 15.11,0 h 2.8 v -2.804 h -2.8 z m 0,3.125 v 2.803 h 2.8 v -2.803 z m -12.16,0 v -2.804 h -2.49 l -0.29,2.472 z m -1.02,8.579 -2.79,-0.332 -0.37,3.136 h 3.16 z m 0.17,0 v 2.804 h 0.98 l 0.76,-0.608 z m 9.81,-0.369 -1.46,2.391 0.01,0.006 0.01,0.005 z m 3.3,3.466 -2.47,1.336 0.01,0.012 z m -0.04,10 -2.44,-1.391 v 0.005 z m -3.41,3.437 1.39,2.43 0.02,-0.006 z m -4.95,-1.553 c -1.28,0 -2.35,-0.253 -3.25,-0.702 l -2.5,5.022 c 1.77,0.877 3.71,1.287 5.75,1.287 z m -3.25,-0.702 c -0.94,-0.466 -1.64,-1.073 -2.16,-1.819 l -4.6,3.205 c 1.09,1.565 2.53,2.776 4.26,3.636 z m -2.16,-1.819 c -0.49,-0.703 -0.77,-1.508 -0.82,-2.49 l -5.6,0.287 c 0.1,1.973 0.7,3.801 1.82,5.408 z m -3.62,0.457 h 3.41 v -5.607 h -3.41 z m 0.62,-2.522 c 0.21,2.085 1.19,3.847 2.81,5.162 l 3.54,-4.352 c -0.51,-0.409 -0.72,-0.825 -0.77,-1.372 z m 2.83,5.179 c 1.61,1.282 3.52,1.889 5.58,1.889 v -5.607 c -0.91,0 -1.56,-0.246 -2.08,-0.668 z m 5.58,1.889 c 1.65,0 3.22,-0.392 4.63,-1.24 L 1717,164.09 c -0.45,0.27 -1,0.437 -1.74,0.437 z m 4.62,-1.234 c 1.38,-0.821 2.46,-1.96 3.23,-3.37 l -4.93,-2.678 c -0.29,0.541 -0.67,0.936 -1.17,1.232 z m 3.23,-3.362 c 0.79,-1.439 1.15,-3.024 1.15,-4.685 h -5.61 c 0,0.82 -0.17,1.461 -0.46,1.991 z m 1.15,-4.685 c 0,-1.695 -0.38,-3.309 -1.2,-4.768 l -4.89,2.746 c 0.3,0.53 0.48,1.179 0.48,2.022 z m -1.18,-4.741 c -0.79,-1.434 -1.89,-2.594 -3.29,-3.432 l -2.88,4.812 c 0.53,0.317 0.94,0.738 1.25,1.312 z m -3.29,-3.432 c -1.44,-0.86 -3.04,-1.265 -4.73,-1.278 l -0.04,5.607 c 0.79,0.006 1.39,0.187 1.89,0.483 z m -4.72,-1.278 c -1.21,-0.013 -2.4,0.174 -3.59,0.532 l 1.63,5.366 c 0.69,-0.209 1.32,-0.298 1.9,-0.291 z m -3.56,0.525 c -1.16,0.337 -2.24,0.811 -3.17,1.479 l 3.28,4.553 c 0.28,-0.204 0.74,-0.44 1.46,-0.651 z m -1.19,0.972 -3.3,-0.397 -0.67,5.566 3.29,0.398 z m -0.85,2.728 1.76,-14.318 -5.57,-0.685 -1.76,14.319 z m -1.02,-11.857 h 15.11 v -5.607 h -15.11 z m 12.31,-2.803 v 3.125 h 5.6 v -3.125 z m 2.8,0.321 h -12.16 v 5.607 h 12.16 z m -14.94,2.472 -1.03,8.579 5.57,0.664 1.02,-8.58 z m 1.76,11.715 h 0.17 v -5.607 h -0.17 z m 1.91,-0.608 c 0.3,-0.235 0.75,-0.493 1.42,-0.727 l -1.84,-5.296 c -1.12,0.391 -2.17,0.92 -3.06,1.631 z m 1.42,-0.727 c 0.6,-0.207 1.22,-0.313 1.89,-0.313 v -5.607 c -1.28,0 -2.52,0.206 -3.73,0.624 z m 1.89,-0.313 c 1.32,0 2.39,0.308 3.3,0.866 l 2.93,-4.782 c -1.88,-1.146 -3.98,-1.691 -6.23,-1.691 z m 3.32,0.877 c 0.96,0.58 1.71,1.362 2.27,2.4 l 4.93,-2.672 c -1.03,-1.899 -2.47,-3.426 -4.31,-4.533 z m 2.28,2.412 c 0.55,1.005 0.86,2.207 0.86,3.68 h 5.61 c 0,-2.295 -0.49,-4.446 -1.55,-6.376 z m 0.86,3.68 c 0,1.421 -0.31,2.589 -0.88,3.581 l 4.87,2.782 c 1.1,-1.926 1.62,-4.071 1.62,-6.363 z m -0.88,3.586 c -0.58,1.016 -1.36,1.805 -2.38,2.4 l 2.82,4.847 c 1.87,-1.091 3.36,-2.594 4.43,-4.475 z m -2.37,2.393 c -0.98,0.564 -2.14,0.877 -3.55,0.877 v 5.607 c 2.29,0 4.43,-0.521 6.34,-1.624 z"
           id="path1328"
           inkscape:connector-curvature="0"
           style="fill:none;stroke:#ffffff;stroke-opacity:1" />
      </g>
      <path
         id="path1064"
         d="m 1679.6,130.195 119.43,1.603"
         inkscape:connector-curvature="0"
         style="fill:none;stroke:#ffffff;stroke-width:5.21408987;stroke-opacity:1" />
      <path
         id="path1066"
         d="m 1689.98,91.4508 0.45,23.6872"
         inkscape:connector-curvature="0"
         style="fill:none;stroke:#ffffff;stroke-width:8.71903038;stroke-linecap:round;stroke-opacity:1" />
      <path
         id="path1066-3"
         d="m 1712.26,90.8809 0.45,23.6881"
         inkscape:connector-curvature="0"
         style="fill:none;stroke:#ffffff;stroke-width:8.71903038;stroke-linecap:round;stroke-opacity:1" />
      <path
         id="path1066-0"
         d="m 1740.71,89.5622 0.45,23.6878"
         inkscape:connector-curvature="0"
         style="fill:none;stroke:#ffffff;stroke-width:8.71903038;stroke-linecap:round;stroke-opacity:1" />
      <path
         id="path1066-3-1"
         d="m 1762.99,88.9923 0.45,23.6877"
         inkscape:connector-curvature="0"
         style="fill:none;stroke:#ffffff;stroke-width:8.71903038;stroke-linecap:round;stroke-opacity:1" />
      <path
         id="path1066-3-1-4"
         d="m 1784.96,90.8809 0.45,23.6881"
         inkscape:connector-curvature="0"
         style="fill:none;stroke:#ffffff;stroke-width:8.71903038;stroke-linecap:round;stroke-opacity:1" />
    </g>
    <g
       id="adn"
       transform="matrix(0.68250242,0,0,0.19990865,630.10264,244.80558)"
       style="fill:none;fill-opacity:1;stroke:#ffffff;stroke-width:11.11051369;stroke-miterlimit:4;stroke-dasharray:none;stroke-opacity:1">
      <g
         id="g1158"
         style="fill:none;fill-opacity:1;stroke:#ffffff;stroke-width:11.11051369;stroke-miterlimit:4;stroke-dasharray:none;stroke-opacity:1">
        <path
           id="path912"
           d="m 415.737,233.149 c -0.828,-105.838 89.36,-98.355 149.685,-109.286"
           inkscape:connector-curvature="0"
           style="fill:none;fill-opacity:1;stroke:#ffffff;stroke-width:11.11051369;stroke-miterlimit:4;stroke-dasharray:none;stroke-opacity:1" />
        <path
           id="path912-7"
           d="m 520.767,137.336 c -15.382,63.839 -26.759,60.04 -98.611,72.888"
           inkscape:connector-curvature="0"
           style="fill:none;fill-opacity:1;stroke:#ffffff;stroke-width:11.11051369;stroke-miterlimit:4;stroke-dasharray:none;stroke-opacity:1" />
        <path
           id="path944"
           d="M 458.876,202.519 429.841,175.484"
           inkscape:connector-curvature="0"
           style="fill:none;fill-opacity:1;stroke:#ffffff;stroke-width:11.11051369;stroke-miterlimit:4;stroke-dasharray:none;stroke-opacity:1" />
        <path
           id="path946"
           d="M 482.876,198.519 442.772,158.118"
           inkscape:connector-curvature="0"
           style="fill:none;fill-opacity:1;stroke:#ffffff;stroke-width:11.11051369;stroke-miterlimit:4;stroke-dasharray:none;stroke-opacity:1" />
        <path
           id="path946-2"
           d="M 500.513,184.08 462.149,145.716"
           inkscape:connector-curvature="0"
           style="fill:none;fill-opacity:1;stroke:#ffffff;stroke-width:11.11051369;stroke-miterlimit:4;stroke-dasharray:none;stroke-opacity:1" />
        <path
           id="path944-5"
           d="M 510.954,165.938 482.809,137.793"
           inkscape:connector-curvature="0"
           style="fill:none;fill-opacity:1;stroke:#ffffff;stroke-width:11.11051369;stroke-miterlimit:4;stroke-dasharray:none;stroke-opacity:1" />
      </g>
      <path
         id="path1171"
         d="m 522.767,123.336 c 6.849,-23.288 6.849,-23.288 6.849,-23.288"
         inkscape:connector-curvature="0"
         style="fill:none;fill-opacity:1;stroke:#ffffff;stroke-width:11.11051369;stroke-linejoin:bevel;stroke-miterlimit:4;stroke-dasharray:none;stroke-opacity:1" />
      <path
         id="path1173"
         d="m 412.156,206.224 -24.725,14.949"
         inkscape:connector-curvature="0"
         style="fill:none;fill-opacity:1;stroke:#ffffff;stroke-width:11.11051369;stroke-miterlimit:4;stroke-dasharray:none;stroke-opacity:1" />
    </g>
    <g
       id="inicio"
       transform="matrix(1.7057932,0,0,0.24522284,-4208.3386,111.14367)"
       style="fill:#ffffff;fill-opacity:1;stroke:none">
      <path
         d="m 3763.9,257.363 c 0,11.834 -4.63,23.199 -12.91,31.672 -8.28,8.472 -19.54,13.38 -31.4,13.677 -11.85,0.298 -23.35,-4.039 -32.04,-12.085 -8.7,-8.047 -13.9,-19.165 -14.49,-30.984 -0.6,-11.819 3.46,-23.402 11.3,-32.279 7.84,-8.876 18.84,-14.343 30.67,-15.235 11.82,-0.892 23.52,2.863 32.61,10.463 9.09,7.6 14.84,18.444 16.03,30.218"
         id="path1353"
         inkscape:connector-curvature="0"
         style="fill:#ffffff;fill-opacity:1;stroke:none" />
      <path
         d="m 3763.9,257.363 c 0,11.834 -4.63,23.199 -12.91,31.672 -8.28,8.472 -19.54,13.38 -31.4,13.677 -11.85,0.298 -23.35,-4.039 -32.04,-12.085 -8.7,-8.047 -13.9,-19.165 -14.49,-30.984 -0.6,-11.819 3.46,-23.402 11.3,-32.279 7.84,-8.876 18.84,-14.343 30.67,-15.235 11.82,-0.892 23.52,2.863 32.61,10.463 9.09,7.6 14.84,18.444 16.03,30.218"
         id="path1355"
         inkscape:connector-curvature="0"
         style="fill:#ffffff;fill-opacity:1;stroke:none;stroke-width:14.40089989;stroke-linecap:round;stroke-linejoin:round" />
    </g>
    <g
       style="fill:none;fill-opacity:1;stroke:#ffffff;stroke-opacity:1"
       id="medicamentos"
       transform="matrix(1,0,0,0.1666835,1345.5509,294.77291)">
      <path
         id="path978"
         d="m 785.27,173.945 85.01,0.221 c -1.844,-18.888 -14.557,-40.724 -40.432,-40.432 -25.874,0.292 -42.923,20.829 -44.578,40.211 z"
         inkscape:connector-curvature="0"
         style="fill:#ffffff;fill-opacity:1;stroke:#ffffff;stroke-width:7;stroke-opacity:1" />
      <path
         id="path978-1"
         d="m 785.27,185.946 85.01,-0.221 c -1.823,19.984 -20.903,39.929 -40.432,40.432 -19.529,0.502 -42.923,-20.829 -44.578,-40.211 z"
         inkscape:connector-curvature="0"
         style="fill:#ffffff;fill-opacity:1;stroke:#ffffff;stroke-width:7;stroke-opacity:1" />
      <path
         id="path995"
         d="m 725.679,171.699 47.208,0.64 c 2.018,29.694 4.863,61.196 -21.729,61.515 -26.592,0.32 -27.771,-29.152 -25.479,-62.155 z"
         inkscape:connector-curvature="0"
         style="fill:none;fill-opacity:1;stroke:#ffffff;stroke-width:7;stroke-opacity:1" />
      <path
         id="path995-2"
         d="m 725.131,172.349 47.208,-0.639 c 1.379,-36.865 5.503,-60.276 -21.728,-61.516 -27.231,-1.24 -27.771,17.649 -25.48,62.155 z"
         inkscape:connector-curvature="0"
         style="fill:#ffffff;fill-opacity:1;stroke:#ffffff;stroke-width:7;stroke-opacity:1" />
    </g>
  </g>
  <defs
     id="defs1362">
    <clipPath
       id="clip0_1_2">
      <rect
         width="3771.3101"
         height="352.15201"
         id="rect1359"
         x="0"
         y="0"
         style="fill:#ffffff" />
    </clipPath>
  </defs>
  <path
     d="m 573.67756,830.50038 c 0,50.8872 -18.8051,99.7577 -52.4348,136.1924 -33.6298,36.43032 -79.363,57.53522 -127.5331,58.81232 -48.1295,1.2814 -94.8375,-17.3681 -130.1325,-51.96662 -35.3356,-34.6028 -56.4557,-82.4112 -58.8521,-133.2339 -2.4369,-50.8228 14.0531,-100.6307 45.8957,-138.80265 31.8427,-38.1675 76.5199,-61.67607 124.5681,-65.51177 48.0077,-3.8357 95.528,12.3111 132.4476,44.99177 36.9196,32.6807 61.2078,98.88915 66.0411,149.51845"
     id="path1355-9-4"
     inkscape:connector-curvature="0"
     style="fill:none;fill-opacity:1;stroke:#ffffff;stroke-width:15.87900066;stroke-linecap:round;stroke-linejoin:round;stroke-miterlimit:4;stroke-dasharray:none;stroke-opacity:1"
     sodipodi:nodetypes="cccccccsc" />
  <path
     d="m 2059.7808,349.5433 c 0,50.8872 -18.8051,99.7577 -52.4348,136.1924 -33.6298,36.4303 -79.363,57.5352 -127.5331,58.8123 -48.1295,1.2814 -94.8375,-17.3681 -130.1325,-51.9666 -35.3356,-34.6028 -56.4557,-82.4112 -58.8521,-133.2339 -2.4369,-50.8228 14.0531,-100.6307 45.8957,-138.8026 31.8427,-38.1675 76.5199,-61.6761 124.5681,-65.5118 48.0077,-3.8357 95.528,12.3111 132.4476,44.9918 36.9196,32.6807 61.2078,98.8891 66.0411,149.5184"
     id="path1355-9-4-4"
     inkscape:connector-curvature="0"
     style="fill:none;fill-opacity:1;stroke:#ffffff;stroke-width:15.87900066;stroke-linecap:round;stroke-linejoin:round;stroke-miterlimit:4;stroke-dasharray:none;stroke-opacity:1"
     sodipodi:nodetypes="cccccccsc" />
  <path
     style="fill:none;stroke:#f8fbfd;stroke-width:15;stroke-linecap:butt;stroke-linejoin:miter;stroke-miterlimit:4;stroke-dasharray:none;stroke-opacity:1"
     d="m 1869.788,549.49264 c 5.404,1351.00286 5.404,1345.59886 5.404,1345.59886"
     id="path2001"
     inkscape:connector-curvature="0" />
  <path
     style="fill:none;stroke:#f8fbfd;stroke-width:15;stroke-linecap:butt;stroke-linejoin:miter;stroke-miterlimit:4;stroke-dasharray:none;stroke-opacity:1"
     d="M 545.33866,947.07168 C 1820.9128,1917.673 1815.8309,1913.7831 1815.8309,1913.7831"
     id="path2001-5"
     inkscape:connector-curvature="0" />
  <path
     style="fill:none;stroke:#f8fbfd;stroke-width:15;stroke-linecap:butt;stroke-linejoin:miter;stroke-miterlimit:4;stroke-dasharray:none;stroke-opacity:1"
     d="M 3212.9542,968.56478 C 1937.3801,1939.1661 1942.462,1935.2762 1942.462,1935.2762"
     id="path2001-5-0"
     inkscape:connector-curvature="0" />
  <path
     d="m 3545.8839,835.90438 c 0,50.8872 -18.8051,99.7577 -52.4348,136.1924 -33.6298,36.43032 -79.363,57.53522 -127.5331,58.81232 -48.1295,1.2814 -94.8375,-17.3681 -130.1325,-51.96662 -35.3356,-34.6028 -56.4557,-82.4112 -58.8521,-133.2339 -2.4369,-50.8228 14.0531,-100.6307 45.8957,-138.80262 31.8427,-38.1675 76.5199,-61.6761 124.5681,-65.5118 48.0077,-3.8357 95.528,12.3111 132.4476,44.9918 36.9196,32.68072 61.2078,98.88912 66.0411,149.51842"
     id="path1355-9-4-4-4"
     inkscape:connector-curvature="0"
     style="fill:none;fill-opacity:1;stroke:#ffffff;stroke-width:15.87900066;stroke-linecap:round;stroke-linejoin:round;stroke-miterlimit:4;stroke-dasharray:none;stroke-opacity:1"
     sodipodi:nodetypes="cccccccsc" />
  <path
     style="fill:none;stroke:#f8fbfd;stroke-width:15;stroke-linecap:butt;stroke-linejoin:miter;stroke-miterlimit:4;stroke-dasharray:none;stroke-opacity:1"
     d="m 1872.6415,3413.1764 c 5.404,-1351.0027 5.404,-1345.5987 5.404,-1345.5987"
     id="path2001-4"
     inkscape:connector-curvature="0" />
  <path
     style="fill:none;stroke:#f8fbfd;stroke-width:15;stroke-linecap:butt;stroke-linejoin:miter;stroke-miterlimit:4;stroke-dasharray:none;stroke-opacity:1"
     d="M 548.19216,3015.5974 C 1823.7663,2044.9962 1818.6844,2048.8861 1818.6844,2048.8861"
     id="path2001-5-04"
     inkscape:connector-curvature="0" />
  <path
     style="fill:none;stroke:#f8fbfd;stroke-width:15;stroke-linecap:butt;stroke-linejoin:miter;stroke-miterlimit:4;stroke-dasharray:none;stroke-opacity:1"
     d="M 3215.8077,2994.1043 C 1940.2336,2023.5031 1945.3155,2027.393 1945.3155,2027.393"
     id="path2001-5-0-8"
     inkscape:connector-curvature="0" />
  <path
     d="m 573.67756,3100.1852 c 0,50.8872 -18.8051,99.7577 -52.4348,136.1924 -33.6298,36.4303 -79.363,57.5352 -127.5331,58.8123 -48.1295,1.2814 -94.8375,-17.3681 -130.1325,-51.9666 -35.3356,-34.6028 -56.4557,-82.4112 -58.8521,-133.2339 -2.4369,-50.8228 14.0531,-100.6307 45.8957,-138.8027 31.8427,-38.1675 76.5199,-61.676 124.5681,-65.5117 48.0077,-3.8357 95.528,12.3111 132.4476,44.9917 36.9196,32.6807 61.2078,98.8892 66.0411,149.5185"
     id="path1355-9-4-7"
     inkscape:connector-curvature="0"
     style="fill:none;fill-opacity:1;stroke:#ffffff;stroke-width:15.87900066;stroke-linecap:round;stroke-linejoin:round;stroke-miterlimit:4;stroke-dasharray:none;stroke-opacity:1"
     sodipodi:nodetypes="cccccccsc" />
  <path
     d="m 2054.3767,3597.3542 c 0,50.8872 -18.8051,99.7577 -52.4348,136.1924 -33.6298,36.4303 -79.363,57.5352 -127.5331,58.8123 -48.1295,1.2814 -94.8375,-17.3681 -130.1325,-51.9666 -35.3356,-34.6028 -56.4557,-82.4112 -58.8521,-133.2339 -2.4369,-50.8228 14.0531,-100.6307 45.8957,-138.8027 31.8427,-38.1675 76.5199,-61.676 124.5681,-65.5117 48.0077,-3.8357 95.528,12.3111 132.4476,44.9917 36.9196,32.6807 61.2078,98.8892 66.0411,149.5185"
     id="path1355-9-4-7-4"
     inkscape:connector-curvature="0"
     style="fill:none;fill-opacity:1;stroke:#ffffff;stroke-width:15.87900066;stroke-linecap:round;stroke-linejoin:round;stroke-miterlimit:4;stroke-dasharray:none;stroke-opacity:1"
     sodipodi:nodetypes="cccccccsc" />
  <path
     d="m 3551.2879,3100.1851 c 0,50.8872 -18.8051,99.7577 -52.4348,136.1924 -33.6298,36.4303 -79.363,57.5352 -127.5331,58.8123 -48.1295,1.2814 -94.8375,-17.3681 -130.1325,-51.9666 -35.3356,-34.6028 -56.4557,-82.4112 -58.8521,-133.2339 -2.4369,-50.8228 14.0531,-100.6307 45.8957,-138.8026 31.8427,-38.1675 76.5199,-61.6761 124.5681,-65.5118 48.0077,-3.8357 95.528,12.3111 132.4476,44.9918 36.9196,32.6807 61.2078,98.8891 66.0411,149.5184"
     id="path1355-9-4-4-9"
     inkscape:connector-curvature="0"
     style="fill:none;fill-opacity:1;stroke:#ffffff;stroke-width:15.87900066;stroke-linecap:round;stroke-linejoin:round;stroke-miterlimit:4;stroke-dasharray:none;stroke-opacity:1"
     sodipodi:nodetypes="cccccccsc" />
  <text
     xml:space="preserve"
     style="font-style:normal;font-weight:normal;font-size:89.73927307px;line-height:1.25;font-family:sans-serif;letter-spacing:0px;word-spacing:0px;fill:#ffffff;fill-opacity:1;stroke:#ffffff;stroke-width:2.24348187;stroke-opacity:1"
     x="3446.406"
     y="2993.6399"
     id="text2187"
     transform="scale(0.94190526,1.0616779)"><tspan
       sodipodi:role="line"
       id="tspan2185"
       x="3446.406"
       y="2993.6399"
       style="font-style:normal;font-variant:normal;font-weight:normal;font-stretch:normal;font-size:430.75048828px;font-family:'Adobe Arabic';-inkscape-font-specification:'Adobe Arabic, Normal';font-variant-ligatures:normal;font-variant-caps:normal;font-variant-numeric:normal;font-feature-settings:normal;text-align:start;writing-mode:lr-tb;text-anchor:start;fill:#ffffff;fill-opacity:1;stroke:#ffffff;stroke-width:2.24348187;stroke-opacity:1">@</tspan></text>
</svg>
