<svg width="1086" height="85" viewBox="0 0 1066 85" fill="none" xmlns="http://www.w3.org/2000/svg">
<path id="efectividad" d="M44.3 46.08C44.9 45.84 45.4 45.72 45.8 45.72C46.44 45.72 46.92 45.96 47.24 46.44C47.56 46.92 47.72 47.54 47.72 48.3C47.72 49.5 47.42 50.52 46.82 51.36C46.26 52.2 45.28 52.96 43.88 53.64C41.52 54.76 38.46 55.66 34.7 56.34C30.94 56.98 27.24 57.3 23.6 57.3C18.56 57.3 14.34 56.74 10.94 55.62C7.54 54.46 5 52.88 3.32 50.88C1.68 48.88 0.86 46.62 0.86 44.1C0.86 40.66 1.96 37.74 4.16 35.34C6.4 32.9 9.68 31.14 14 30.06C11.64 29.38 9.82 28.18 8.54 26.46C7.3 24.74 6.68 22.82 6.68 20.7C6.68 17.82 7.58 15.28 9.38 13.08C11.22 10.84 13.68 9.12 16.76 7.92C19.84 6.72 23.22 6.12 26.9 6.12C31.86 6.12 35.58 7.2 38.06 9.36C40.54 11.48 41.78 14.24 41.78 17.64C41.78 20 41.34 21.92 40.46 23.4C39.62 24.84 38.4 25.56 36.8 25.56C35.68 25.56 34.8 25.32 34.16 24.84C33.52 24.32 33.2 23.56 33.2 22.56C33.2 21.88 33.3 21.14 33.5 20.34C33.7 19.02 33.8 18.12 33.8 17.64C33.8 16.2 33.26 15.04 32.18 14.16C31.1 13.24 29.3 12.78 26.78 12.78C23.38 12.78 20.66 13.5 18.62 14.94C16.58 16.38 15.56 18.32 15.56 20.76C15.56 22.64 16.32 24.2 17.84 25.44C19.4 26.64 21.92 27.3 25.4 27.42C26.28 27.46 26.9 27.66 27.26 28.02C27.62 28.38 27.8 28.98 27.8 29.82C27.8 32.46 26.6 33.8 24.2 33.84C20.88 33.92 18.12 34.38 15.92 35.22C13.76 36.06 12.18 37.14 11.18 38.46C10.22 39.74 9.74 41.12 9.74 42.6C9.74 45.08 10.9 46.96 13.22 48.24C15.54 49.48 19.22 50.1 24.26 50.1C27.58 50.1 31.08 49.72 34.76 48.96C38.48 48.16 41.66 47.2 44.3 46.08ZM66.9528 40.2C68.0728 40.2 68.6328 41.04 68.6328 42.72C68.6328 45.88 66.1528 47.46 61.1928 47.46C60.2328 47.46 58.8528 47.28 57.0528 46.92C57.5728 49.4 57.9928 52.16 58.3128 55.2C58.6728 58.2 58.8528 60.68 58.8528 62.64C58.8528 66.96 58.1528 70.26 56.7528 72.54C55.3528 74.82 53.5128 75.96 51.2328 75.96C48.3528 75.96 46.2928 73.92 45.0528 69.84C43.8528 65.76 43.2528 59.6 43.2528 51.36C43.2528 43.68 44.0728 35.9 45.7128 28.02C47.3928 20.1 49.6728 13.56 52.5528 8.4C55.4728 3.2 58.6728 0.599997 62.1528 0.599997C64.0328 0.599997 65.4928 1.44 66.5328 3.12C67.6128 4.8 68.1528 7.06 68.1528 9.9C68.1528 19.3 62.5328 29.54 51.2928 40.62C50.8928 44.54 50.6928 47.98 50.6928 50.94C50.6928 55.06 50.8328 59.28 51.1128 63.6C51.3928 67.96 51.8528 70.14 52.4928 70.14C53.6928 70.14 54.2928 68.06 54.2928 63.9C54.2928 60.78 54.0728 57.76 53.6328 54.84C53.2328 51.92 52.6728 48.84 51.9528 45.6C51.9128 45.08 52.0728 44.42 52.4328 43.62C52.8328 42.82 53.3128 42.12 53.8728 41.52C54.4328 40.92 54.9328 40.62 55.3728 40.62C56.1728 40.62 57.1328 40.66 58.2528 40.74C58.6128 40.78 59.0328 40.8 59.5128 40.8C61.1128 40.8 62.8928 40.66 64.8528 40.38C65.1728 40.34 65.5128 40.3 65.8728 40.26C66.2328 40.22 66.5928 40.2 66.9528 40.2ZM60.8928 6.54C60.1728 6.54 59.2728 7.76 58.1928 10.2C57.1528 12.64 56.1128 15.88 55.0728 19.92C54.0328 23.92 53.1328 28.16 52.3728 32.64C55.5728 29 58.0328 25.22 59.7528 21.3C61.4728 17.34 62.3528 13.64 62.3928 10.2C62.3928 7.76 61.8928 6.54 60.8928 6.54ZM90.8666 43.62C91.3866 43.62 91.7866 43.86 92.0666 44.34C92.3866 44.82 92.5466 45.48 92.5466 46.32C92.5466 47.92 92.1666 49.16 91.4066 50.04C89.9266 51.84 87.8266 53.5 85.1066 55.02C82.4266 56.54 79.5466 57.3 76.4666 57.3C72.2666 57.3 69.0066 56.16 66.6866 53.88C64.3666 51.6 63.2066 48.48 63.2066 44.52C63.2066 41.76 63.7866 39.2 64.9466 36.84C66.1066 34.44 67.7066 32.54 69.7466 31.14C71.8266 29.74 74.1666 29.04 76.7666 29.04C79.0866 29.04 80.9466 29.74 82.3466 31.14C83.7466 32.5 84.4466 34.36 84.4466 36.72C84.4466 39.48 83.4466 41.86 81.4466 43.86C79.4866 45.82 76.1466 47.38 71.4266 48.54C72.4266 50.38 74.3266 51.3 77.1266 51.3C78.9266 51.3 80.9666 50.68 83.2466 49.44C85.5666 48.16 87.5666 46.5 89.2466 44.46C89.7266 43.9 90.2666 43.62 90.8666 43.62ZM75.7466 34.92C74.2666 34.92 73.0066 35.78 71.9666 37.5C70.9666 39.22 70.4666 41.3 70.4666 43.74V43.86C72.8266 43.3 74.6866 42.46 76.0466 41.34C77.4066 40.22 78.0866 38.92 78.0866 37.44C78.0866 36.68 77.8666 36.08 77.4266 35.64C77.0266 35.16 76.4666 34.92 75.7466 34.92ZM99.1213 57.3C95.2013 57.3 92.1413 56.2 89.9413 54C87.7813 51.76 86.7013 48.82 86.7013 45.18C86.7013 41.94 87.3413 39.1 88.6213 36.66C89.9013 34.22 91.5613 32.34 93.6012 31.02C95.6413 29.7 97.7813 29.04 100.021 29.04C102.221 29.04 103.921 29.7 105.121 31.02C106.361 32.3 106.981 33.96 106.981 36C106.981 37.68 106.601 39.1 105.841 40.26C105.121 41.42 104.161 42 102.961 42C102.201 42 101.581 41.82 101.101 41.46C100.661 41.1 100.441 40.6 100.441 39.96C100.441 39.68 100.481 39.36 100.561 39C100.641 38.64 100.701 38.38 100.741 38.22C100.941 37.62 101.041 37.06 101.041 36.54C101.041 36.02 100.901 35.62 100.621 35.34C100.381 35.06 100.021 34.92 99.5413 34.92C98.6213 34.92 97.7613 35.34 96.9613 36.18C96.1613 36.98 95.5213 38.08 95.0413 39.48C94.5613 40.88 94.3213 42.42 94.3213 44.1C94.3213 48.74 96.3413 51.06 100.381 51.06C102.021 51.06 103.781 50.52 105.661 49.44C107.581 48.32 109.461 46.66 111.301 44.46C111.781 43.9 112.321 43.62 112.921 43.62C113.441 43.62 113.841 43.86 114.121 44.34C114.441 44.82 114.601 45.48 114.601 46.32C114.601 47.84 114.221 49.08 113.461 50.04C111.581 52.36 109.321 54.16 106.681 55.44C104.081 56.68 101.561 57.3 99.1213 57.3ZM136.804 43.62C137.324 43.62 137.724 43.86 138.004 44.34C138.324 44.82 138.484 45.48 138.484 46.32C138.484 47.92 138.104 49.16 137.344 50.04C135.624 52.16 133.744 53.9 131.704 55.26C129.664 56.62 127.324 57.3 124.684 57.3C116.524 57.3 112.444 51.56 112.444 40.08C112.444 38.32 112.504 36.54 112.624 34.74H110.284C109.084 34.74 108.264 34.52 107.824 34.08C107.424 33.64 107.224 32.94 107.224 31.98C107.224 29.74 108.124 28.62 109.924 28.62H113.344C114.024 24.22 115.064 20.2 116.464 16.56C117.864 12.92 119.544 10.02 121.504 7.86C123.504 5.7 125.644 4.62 127.924 4.62C129.604 4.62 130.924 5.36 131.884 6.84C132.844 8.32 133.324 10.18 133.324 12.42C133.324 18.62 130.724 24.02 125.524 28.62H132.244C132.884 28.62 133.344 28.76 133.624 29.04C133.904 29.32 134.044 29.84 134.044 30.6C134.044 33.36 131.784 34.74 127.264 34.74H119.944C119.864 36.74 119.824 38.3 119.824 39.42C119.824 43.58 120.304 46.5 121.264 48.18C122.264 49.86 123.824 50.7 125.944 50.7C127.664 50.7 129.184 50.18 130.504 49.14C131.824 48.1 133.384 46.54 135.184 44.46C135.664 43.9 136.204 43.62 136.804 43.62ZM126.304 10.38C125.704 10.38 125.024 11.14 124.264 12.66C123.544 14.14 122.844 16.22 122.164 18.9C121.524 21.54 120.984 24.48 120.544 27.72C122.904 25.68 124.664 23.4 125.824 20.88C127.024 18.32 127.624 16 127.624 13.92C127.624 11.56 127.184 10.38 126.304 10.38ZM141.459 25.08C139.779 25.08 138.519 24.7 137.679 23.94C136.839 23.14 136.419 22.04 136.419 20.64C136.419 19.24 136.959 18.08 138.039 17.16C139.159 16.2 140.539 15.72 142.179 15.72C143.659 15.72 144.859 16.08 145.779 16.8C146.699 17.52 147.159 18.54 147.159 19.86C147.159 21.46 146.639 22.74 145.599 23.7C144.559 24.62 143.179 25.08 141.459 25.08ZM140.979 57.3C138.379 57.3 136.479 56.38 135.279 54.54C134.119 52.7 133.539 50.26 133.539 47.22C133.539 45.42 133.759 43.12 134.199 40.32C134.679 37.48 135.279 34.84 135.999 32.4C136.359 31.12 136.839 30.24 137.439 29.76C138.039 29.28 138.999 29.04 140.319 29.04C142.359 29.04 143.379 29.72 143.379 31.08C143.379 32.08 142.999 34.4 142.239 38.04C141.279 42.44 140.799 45.42 140.799 46.98C140.799 48.18 140.959 49.1 141.279 49.74C141.599 50.38 142.139 50.7 142.899 50.7C143.619 50.7 144.519 50.2 145.599 49.2C146.679 48.2 148.119 46.62 149.919 44.46C150.399 43.9 150.939 43.62 151.539 43.62C152.059 43.62 152.459 43.86 152.739 44.34C153.059 44.82 153.219 45.48 153.219 46.32C153.219 47.92 152.839 49.16 152.079 50.04C148.119 54.88 144.419 57.3 140.979 57.3ZM178.65 38.76C178.77 38.72 178.97 38.7 179.25 38.7C179.85 38.7 180.31 38.9 180.63 39.3C180.95 39.7 181.11 40.24 181.11 40.92C181.11 42.16 180.87 43.14 180.39 43.86C179.91 44.54 179.19 45.04 178.23 45.36C176.39 45.96 174.43 46.26 172.35 46.26C170.59 46.26 168.93 46.02 167.37 45.54C166.21 47.42 164.93 49.36 163.53 51.36C161.93 53.64 160.55 55.2 159.39 56.04C158.23 56.88 156.91 57.3 155.43 57.3C153.79 57.3 152.49 56.66 151.53 55.38C150.61 54.1 150.03 52.08 149.79 49.32C149.31 43.72 149.07 38.82 149.07 34.62V32.52C149.11 31.2 149.47 30.28 150.15 29.76C150.83 29.24 151.85 28.98 153.21 28.98C154.25 28.98 155.01 29.22 155.49 29.7C156.01 30.14 156.27 30.9 156.27 31.98C156.27 36.58 156.55 42.56 157.11 49.92C159.51 46.36 161.31 43.52 162.51 41.4C161.91 40.24 161.61 38.86 161.61 37.26C161.61 35.9 161.91 34.58 162.51 33.3C163.11 32.02 163.93 30.98 164.97 30.18C166.01 29.38 167.19 28.98 168.51 28.98C169.67 28.98 170.61 29.4 171.33 30.24C172.05 31.04 172.41 32.22 172.41 33.78C172.41 35.58 171.93 37.64 170.97 39.96C172.49 39.88 174.51 39.58 177.03 39.06L178.65 38.76ZM183.763 25.08C182.083 25.08 180.823 24.7 179.983 23.94C179.143 23.14 178.723 22.04 178.723 20.64C178.723 19.24 179.263 18.08 180.343 17.16C181.463 16.2 182.843 15.72 184.483 15.72C185.963 15.72 187.163 16.08 188.083 16.8C189.003 17.52 189.463 18.54 189.463 19.86C189.463 21.46 188.943 22.74 187.903 23.7C186.863 24.62 185.483 25.08 183.763 25.08ZM183.283 57.3C180.683 57.3 178.783 56.38 177.583 54.54C176.423 52.7 175.843 50.26 175.843 47.22C175.843 45.42 176.063 43.12 176.503 40.32C176.983 37.48 177.583 34.84 178.303 32.4C178.663 31.12 179.143 30.24 179.743 29.76C180.343 29.28 181.303 29.04 182.623 29.04C184.663 29.04 185.683 29.72 185.683 31.08C185.683 32.08 185.303 34.4 184.543 38.04C183.583 42.44 183.103 45.42 183.103 46.98C183.103 48.18 183.263 49.1 183.583 49.74C183.903 50.38 184.443 50.7 185.203 50.7C185.923 50.7 186.823 50.2 187.903 49.2C188.983 48.2 190.423 46.62 192.223 44.46C192.703 43.9 193.243 43.62 193.843 43.62C194.363 43.62 194.763 43.86 195.043 44.34C195.363 44.82 195.523 45.48 195.523 46.32C195.523 47.92 195.143 49.16 194.383 50.04C190.423 54.88 186.723 57.3 183.283 57.3ZM224.749 43.62C225.269 43.62 225.669 43.86 225.949 44.34C226.269 44.82 226.429 45.48 226.429 46.32C226.429 47.92 226.049 49.16 225.289 50.04C223.649 52.04 221.849 53.76 219.889 55.2C217.929 56.6 215.989 57.3 214.069 57.3C211.029 57.3 208.709 55.52 207.109 51.96C205.429 54.08 203.949 55.5 202.669 56.22C201.429 56.94 199.969 57.3 198.289 57.3C195.849 57.3 193.829 56.4 192.229 54.6C190.669 52.76 189.889 50.38 189.889 47.46C189.889 44.26 190.569 41.3 191.929 38.58C193.289 35.82 195.149 33.58 197.509 31.86C199.909 30.1 202.589 29.06 205.549 28.74C206.309 20.98 207.749 14.36 209.869 8.88C212.029 3.36 214.849 0.599997 218.329 0.599997C220.049 0.599997 221.469 1.38 222.589 2.94C223.749 4.5 224.329 6.86 224.329 10.02C224.329 14.5 223.229 19.74 221.029 25.74C218.829 31.74 215.889 37.9 212.209 44.22C212.369 46.54 212.709 48.2 213.229 49.2C213.789 50.2 214.489 50.7 215.329 50.7C216.409 50.7 217.509 50.22 218.629 49.26C219.749 48.3 221.249 46.7 223.129 44.46C223.609 43.9 224.149 43.62 224.749 43.62ZM217.669 6.48C216.909 6.48 216.149 7.84 215.389 10.56C214.629 13.24 213.969 16.76 213.409 21.12C212.889 25.48 212.509 30.04 212.269 34.8C216.749 25.04 218.989 17.2 218.989 11.28C218.989 9.76 218.849 8.58 218.569 7.74C218.329 6.9 218.029 6.48 217.669 6.48ZM200.389 51.24C201.149 51.24 201.909 50.94 202.669 50.34C203.429 49.7 204.389 48.54 205.549 46.86C205.149 44.7 204.949 42.28 204.949 39.6C204.949 38.64 204.989 37.08 205.069 34.92C202.869 35.6 201.029 37.08 199.549 39.36C198.109 41.6 197.389 44.1 197.389 46.86C197.389 49.78 198.389 51.24 200.389 51.24ZM228.342 57.3C225.862 57.3 223.882 56.4 222.402 54.6C220.922 52.8 220.182 50.44 220.182 47.52C220.182 44.32 220.922 41.3 222.402 38.46C223.882 35.58 225.842 33.28 228.282 31.56C230.762 29.8 233.382 28.92 236.142 28.92C237.022 28.92 237.602 29.1 237.882 29.46C238.202 29.78 238.462 30.38 238.662 31.26C239.502 31.1 240.382 31.02 241.302 31.02C243.262 31.02 244.242 31.72 244.242 33.12C244.242 33.96 243.942 35.96 243.342 39.12C242.422 43.72 241.962 46.92 241.962 48.72C241.962 49.32 242.102 49.8 242.382 50.16C242.702 50.52 243.102 50.7 243.582 50.7C244.342 50.7 245.262 50.22 246.342 49.26C247.422 48.26 248.882 46.66 250.722 44.46C251.202 43.9 251.742 43.62 252.342 43.62C252.862 43.62 253.262 43.86 253.542 44.34C253.862 44.82 254.022 45.48 254.022 46.32C254.022 47.92 253.642 49.16 252.882 50.04C251.242 52.08 249.502 53.8 247.662 55.2C245.822 56.6 244.042 57.3 242.322 57.3C241.002 57.3 239.782 56.86 238.662 55.98C237.582 55.06 236.762 53.82 236.202 52.26C234.122 55.62 231.502 57.3 228.342 57.3ZM230.502 51.24C231.382 51.24 232.222 50.72 233.022 49.68C233.822 48.64 234.402 47.26 234.762 45.54L236.982 34.5C235.302 34.54 233.742 35.18 232.302 36.42C230.902 37.62 229.782 39.22 228.942 41.22C228.102 43.22 227.682 45.34 227.682 47.58C227.682 48.82 227.922 49.74 228.402 50.34C228.922 50.94 229.622 51.24 230.502 51.24ZM270.986 43.62C271.426 46.9 272.066 50.14 272.906 53.34C273.066 53.86 273.146 54.4 273.146 54.96C273.146 56.76 272.046 57.66 269.846 57.66C268.606 57.66 267.646 57.32 266.966 56.64C266.326 55.96 265.726 54.68 265.166 52.8L265.106 52.56C263.586 54.44 262.206 55.7 260.966 56.34C259.766 56.98 258.366 57.3 256.766 57.3C254.326 57.3 252.306 56.4 250.706 54.6C249.146 52.76 248.366 50.38 248.366 47.46C248.366 44.26 249.046 41.3 250.406 38.58C251.766 35.86 253.626 33.64 255.986 31.92C258.346 30.16 260.986 29.1 263.906 28.74C264.666 21.18 266.106 14.6 268.226 9C270.386 3.4 273.246 0.599997 276.806 0.599997C278.526 0.599997 279.946 1.38 281.066 2.94C282.226 4.5 282.806 6.86 282.806 10.02C282.806 14.42 281.726 19.56 279.566 25.44C277.406 31.32 274.546 37.38 270.986 43.62ZM276.146 6.48C274.986 6.48 273.886 9.44 272.846 15.36C271.846 21.28 271.166 27.72 270.806 34.68C275.246 25.08 277.466 17.28 277.466 11.28C277.466 9.76 277.326 8.58 277.046 7.74C276.806 6.9 276.506 6.48 276.146 6.48ZM258.866 51.24C259.666 51.24 260.426 50.94 261.146 50.34C261.906 49.74 262.866 48.58 264.026 46.86C263.626 43.94 263.426 40.92 263.426 37.8C263.426 36.56 263.446 35.6 263.486 34.92C261.286 35.56 259.466 37.02 258.026 39.3C256.586 41.58 255.866 44.1 255.866 46.86C255.866 49.78 256.866 51.24 258.866 51.24ZM315.614 29.04C316.534 29.04 317.174 29.16 317.534 29.4C317.894 29.64 318.074 30.04 318.074 30.6C318.074 31.56 317.554 34.98 316.514 40.86C315.594 46.5 315.054 49.84 314.894 50.88C313.414 61.16 311.374 69.3 308.774 75.3C306.174 81.3 302.714 84.3 298.394 84.3C296.354 84.3 294.694 83.66 293.414 82.38C292.134 81.14 291.494 79.5 291.494 77.46C291.494 75.58 291.914 73.66 292.754 71.7C293.634 69.74 295.234 67.48 297.554 64.92C299.914 62.4 303.234 59.5 307.514 56.22L307.694 54.84C307.974 53.36 308.294 51.24 308.654 48.48C307.854 51.36 306.734 53.56 305.294 55.08C303.854 56.56 302.334 57.3 300.734 57.3C298.934 57.3 297.454 56.48 296.294 54.84C295.174 53.16 294.614 51.08 294.614 48.6C294.614 45.6 294.814 42.86 295.214 40.38C295.614 37.86 296.274 35.2 297.194 32.4C297.594 31.2 298.154 30.34 298.874 29.82C299.594 29.3 300.734 29.04 302.294 29.04C303.174 29.04 303.774 29.18 304.094 29.46C304.454 29.74 304.634 30.16 304.634 30.72C304.634 31.04 304.414 32.12 303.974 33.96C303.574 35.44 303.254 36.78 303.014 37.98C302.694 39.62 302.414 41.2 302.174 42.72C301.934 44.2 301.814 45.42 301.814 46.38C301.814 47.9 302.234 48.66 303.074 48.66C303.674 48.66 304.414 48.06 305.294 46.86C306.214 45.66 307.174 43.84 308.174 41.4C309.214 38.96 310.214 35.96 311.174 32.4C311.494 31.2 311.974 30.34 312.614 29.82C313.294 29.3 314.294 29.04 315.614 29.04ZM299.054 78.48C300.054 78.48 301.174 77.32 302.414 75C303.654 72.68 304.894 68.82 306.134 63.42C303.054 66.02 300.814 68.38 299.414 70.5C298.054 72.66 297.374 74.54 297.374 76.14C297.374 76.82 297.494 77.38 297.734 77.82C298.014 78.26 298.454 78.48 299.054 78.48ZM348.906 57.3C344.986 57.3 341.926 56.2 339.726 54C337.566 51.76 336.486 48.82 336.486 45.18C336.486 41.94 337.126 39.1 338.406 36.66C339.686 34.22 341.346 32.34 343.386 31.02C345.426 29.7 347.566 29.04 349.806 29.04C352.006 29.04 353.706 29.7 354.906 31.02C356.146 32.3 356.766 33.96 356.766 36C356.766 37.68 356.386 39.1 355.626 40.26C354.906 41.42 353.946 42 352.746 42C351.986 42 351.366 41.82 350.886 41.46C350.446 41.1 350.226 40.6 350.226 39.96C350.226 39.68 350.266 39.36 350.346 39C350.426 38.64 350.486 38.38 350.526 38.22C350.726 37.62 350.826 37.06 350.826 36.54C350.826 36.02 350.686 35.62 350.406 35.34C350.166 35.06 349.806 34.92 349.326 34.92C348.406 34.92 347.546 35.34 346.746 36.18C345.946 36.98 345.306 38.08 344.826 39.48C344.346 40.88 344.106 42.42 344.106 44.1C344.106 48.74 346.126 51.06 350.166 51.06C351.806 51.06 353.566 50.52 355.446 49.44C357.366 48.32 359.246 46.66 361.086 44.46C361.566 43.9 362.106 43.62 362.706 43.62C363.226 43.62 363.626 43.86 363.906 44.34C364.226 44.82 364.386 45.48 364.386 46.32C364.386 47.84 364.006 49.08 363.246 50.04C361.366 52.36 359.106 54.16 356.466 55.44C353.866 56.68 351.346 57.3 348.906 57.3ZM366.33 57.3C363.85 57.3 361.87 56.4 360.39 54.6C358.91 52.8 358.17 50.44 358.17 47.52C358.17 44.32 358.91 41.3 360.39 38.46C361.87 35.58 363.83 33.28 366.27 31.56C368.75 29.8 371.37 28.92 374.13 28.92C375.01 28.92 375.59 29.1 375.87 29.46C376.19 29.78 376.45 30.38 376.65 31.26C377.49 31.1 378.37 31.02 379.29 31.02C381.25 31.02 382.23 31.72 382.23 33.12C382.23 33.96 381.93 35.96 381.33 39.12C380.41 43.72 379.95 46.92 379.95 48.72C379.95 49.32 380.09 49.8 380.37 50.16C380.69 50.52 381.09 50.7 381.57 50.7C382.33 50.7 383.25 50.22 384.33 49.26C385.41 48.26 386.87 46.66 388.71 44.46C389.19 43.9 389.73 43.62 390.33 43.62C390.85 43.62 391.25 43.86 391.53 44.34C391.85 44.82 392.01 45.48 392.01 46.32C392.01 47.92 391.63 49.16 390.87 50.04C389.23 52.08 387.49 53.8 385.65 55.2C383.81 56.6 382.03 57.3 380.31 57.3C378.99 57.3 377.77 56.86 376.65 55.98C375.57 55.06 374.75 53.82 374.19 52.26C372.11 55.62 369.49 57.3 366.33 57.3ZM368.49 51.24C369.37 51.24 370.21 50.72 371.01 49.68C371.81 48.64 372.39 47.26 372.75 45.54L374.97 34.5C373.29 34.54 371.73 35.18 370.29 36.42C368.89 37.62 367.77 39.22 366.93 41.22C366.09 43.22 365.67 45.34 365.67 47.58C365.67 48.82 365.91 49.74 366.39 50.34C366.91 50.94 367.61 51.24 368.49 51.24ZM409.874 43.62C410.394 43.62 410.794 43.86 411.074 44.34C411.394 44.82 411.554 45.48 411.554 46.32C411.554 47.92 411.174 49.16 410.414 50.04C408.694 52.16 406.814 53.9 404.774 55.26C402.774 56.62 400.494 57.3 397.934 57.3C394.414 57.3 391.794 55.7 390.074 52.5C388.394 49.3 387.554 45.16 387.554 40.08C387.554 35.2 388.174 29.64 389.414 23.4C390.694 17.16 392.554 11.8 394.994 7.32C397.474 2.84 400.414 0.599997 403.814 0.599997C405.734 0.599997 407.234 1.5 408.314 3.3C409.434 5.06 409.994 7.6 409.994 10.92C409.994 15.68 408.674 21.2 406.034 27.48C403.394 33.76 399.814 39.98 395.294 46.14C395.574 47.78 396.034 48.96 396.674 49.68C397.314 50.36 398.154 50.7 399.194 50.7C400.834 50.7 402.274 50.24 403.514 49.32C404.754 48.36 406.334 46.74 408.254 44.46C408.734 43.9 409.274 43.62 409.874 43.62ZM402.494 6.54C401.574 6.54 400.534 8.2 399.374 11.52C398.214 14.84 397.194 18.96 396.314 23.88C395.434 28.8 394.954 33.52 394.874 38.04C397.714 33.36 399.974 28.68 401.654 24C403.334 19.28 404.174 14.98 404.174 11.1C404.174 8.06 403.614 6.54 402.494 6.54ZM414.564 25.08C412.884 25.08 411.624 24.7 410.784 23.94C409.944 23.14 409.524 22.04 409.524 20.64C409.524 19.24 410.064 18.08 411.144 17.16C412.264 16.2 413.644 15.72 415.284 15.72C416.764 15.72 417.964 16.08 418.884 16.8C419.804 17.52 420.264 18.54 420.264 19.86C420.264 21.46 419.744 22.74 418.704 23.7C417.664 24.62 416.284 25.08 414.564 25.08ZM414.084 57.3C411.484 57.3 409.584 56.38 408.384 54.54C407.224 52.7 406.644 50.26 406.644 47.22C406.644 45.42 406.864 43.12 407.304 40.32C407.784 37.48 408.384 34.84 409.104 32.4C409.464 31.12 409.944 30.24 410.544 29.76C411.144 29.28 412.104 29.04 413.424 29.04C415.464 29.04 416.484 29.72 416.484 31.08C416.484 32.08 416.104 34.4 415.344 38.04C414.384 42.44 413.904 45.42 413.904 46.98C413.904 48.18 414.064 49.1 414.384 49.74C414.704 50.38 415.244 50.7 416.004 50.7C416.724 50.7 417.624 50.2 418.704 49.2C419.784 48.2 421.224 46.62 423.024 44.46C423.504 43.9 424.044 43.62 424.644 43.62C425.164 43.62 425.564 43.86 425.844 44.34C426.164 44.82 426.324 45.48 426.324 46.32C426.324 47.92 425.944 49.16 425.184 50.04C421.224 54.88 417.524 57.3 414.084 57.3ZM455.55 43.62C456.07 43.62 456.47 43.86 456.75 44.34C457.07 44.82 457.23 45.48 457.23 46.32C457.23 47.92 456.85 49.16 456.09 50.04C454.45 52.04 452.65 53.76 450.69 55.2C448.73 56.6 446.79 57.3 444.87 57.3C441.83 57.3 439.51 55.52 437.91 51.96C436.23 54.08 434.75 55.5 433.47 56.22C432.23 56.94 430.77 57.3 429.09 57.3C426.65 57.3 424.63 56.4 423.03 54.6C421.47 52.76 420.69 50.38 420.69 47.46C420.69 44.26 421.37 41.3 422.73 38.58C424.09 35.82 425.95 33.58 428.31 31.86C430.71 30.1 433.39 29.06 436.35 28.74C437.11 20.98 438.55 14.36 440.67 8.88C442.83 3.36 445.65 0.599997 449.13 0.599997C450.85 0.599997 452.27 1.38 453.39 2.94C454.55 4.5 455.13 6.86 455.13 10.02C455.13 14.5 454.03 19.74 451.83 25.74C449.63 31.74 446.69 37.9 443.01 44.22C443.17 46.54 443.51 48.2 444.03 49.2C444.59 50.2 445.29 50.7 446.13 50.7C447.21 50.7 448.31 50.22 449.43 49.26C450.55 48.3 452.05 46.7 453.93 44.46C454.41 43.9 454.95 43.62 455.55 43.62ZM448.47 6.48C447.71 6.48 446.95 7.84 446.19 10.56C445.43 13.24 444.77 16.76 444.21 21.12C443.69 25.48 443.31 30.04 443.07 34.8C447.55 25.04 449.79 17.2 449.79 11.28C449.79 9.76 449.65 8.58 449.37 7.74C449.13 6.9 448.83 6.48 448.47 6.48ZM431.19 51.24C431.95 51.24 432.71 50.94 433.47 50.34C434.23 49.7 435.19 48.54 436.35 46.86C435.95 44.7 435.75 42.28 435.75 39.6C435.75 38.64 435.79 37.08 435.87 34.92C433.67 35.6 431.83 37.08 430.35 39.36C428.91 41.6 428.19 44.1 428.19 46.86C428.19 49.78 429.19 51.24 431.19 51.24ZM459.143 57.3C456.663 57.3 454.683 56.4 453.203 54.6C451.723 52.8 450.983 50.44 450.983 47.52C450.983 44.32 451.723 41.3 453.203 38.46C454.683 35.58 456.643 33.28 459.083 31.56C461.563 29.8 464.183 28.92 466.943 28.92C467.823 28.92 468.403 29.1 468.683 29.46C469.003 29.78 469.263 30.38 469.463 31.26C470.303 31.1 471.183 31.02 472.103 31.02C474.063 31.02 475.043 31.72 475.043 33.12C475.043 33.96 474.743 35.96 474.143 39.12C473.223 43.72 472.763 46.92 472.763 48.72C472.763 49.32 472.903 49.8 473.183 50.16C473.503 50.52 473.903 50.7 474.383 50.7C475.143 50.7 476.063 50.22 477.143 49.26C478.223 48.26 479.683 46.66 481.523 44.46C482.003 43.9 482.543 43.62 483.143 43.62C483.663 43.62 484.063 43.86 484.343 44.34C484.663 44.82 484.823 45.48 484.823 46.32C484.823 47.92 484.443 49.16 483.683 50.04C482.043 52.08 480.303 53.8 478.463 55.2C476.623 56.6 474.843 57.3 473.123 57.3C471.803 57.3 470.583 56.86 469.463 55.98C468.383 55.06 467.563 53.82 467.003 52.26C464.923 55.62 462.303 57.3 459.143 57.3ZM461.303 51.24C462.183 51.24 463.023 50.72 463.823 49.68C464.623 48.64 465.203 47.26 465.563 45.54L467.783 34.5C466.103 34.54 464.543 35.18 463.103 36.42C461.703 37.62 460.583 39.22 459.743 41.22C458.903 43.22 458.483 45.34 458.483 47.58C458.483 48.82 458.723 49.74 459.203 50.34C459.723 50.94 460.423 51.24 461.303 51.24ZM501.786 43.62C502.226 46.9 502.866 50.14 503.706 53.34C503.866 53.86 503.946 54.4 503.946 54.96C503.946 56.76 502.846 57.66 500.646 57.66C499.406 57.66 498.446 57.32 497.766 56.64C497.126 55.96 496.526 54.68 495.966 52.8L495.906 52.56C494.386 54.44 493.006 55.7 491.766 56.34C490.566 56.98 489.166 57.3 487.566 57.3C485.126 57.3 483.106 56.4 481.506 54.6C479.946 52.76 479.166 50.38 479.166 47.46C479.166 44.26 479.846 41.3 481.206 38.58C482.566 35.86 484.426 33.64 486.786 31.92C489.146 30.16 491.786 29.1 494.706 28.74C495.466 21.18 496.906 14.6 499.026 9C501.186 3.4 504.046 0.599997 507.606 0.599997C509.326 0.599997 510.746 1.38 511.866 2.94C513.026 4.5 513.606 6.86 513.606 10.02C513.606 14.42 512.526 19.56 510.366 25.44C508.206 31.32 505.346 37.38 501.786 43.62ZM506.946 6.48C505.786 6.48 504.686 9.44 503.646 15.36C502.646 21.28 501.966 27.72 501.606 34.68C506.046 25.08 508.266 17.28 508.266 11.28C508.266 9.76 508.126 8.58 507.846 7.74C507.606 6.9 507.306 6.48 506.946 6.48ZM489.666 51.24C490.466 51.24 491.226 50.94 491.946 50.34C492.706 49.74 493.666 48.58 494.826 46.86C494.426 43.94 494.226 40.92 494.226 37.8C494.226 36.56 494.246 35.6 494.286 34.92C492.086 35.56 490.266 37.02 488.826 39.3C487.386 41.58 486.666 44.1 486.666 46.86C486.666 49.78 487.666 51.24 489.666 51.24ZM532.795 57.3C530.315 57.3 528.335 56.4 526.855 54.6C525.375 52.8 524.635 50.44 524.635 47.52C524.635 44.32 525.375 41.3 526.855 38.46C528.335 35.58 530.295 33.28 532.735 31.56C535.215 29.8 537.835 28.92 540.595 28.92C541.475 28.92 542.055 29.1 542.335 29.46C542.655 29.78 542.915 30.38 543.115 31.26C543.955 31.1 544.835 31.02 545.755 31.02C547.715 31.02 548.695 31.72 548.695 33.12C548.695 33.96 548.395 35.96 547.795 39.12C546.875 43.72 546.415 46.92 546.415 48.72C546.415 49.32 546.555 49.8 546.835 50.16C547.155 50.52 547.555 50.7 548.035 50.7C548.795 50.7 549.715 50.22 550.795 49.26C551.875 48.26 553.335 46.66 555.175 44.46C555.655 43.9 556.195 43.62 556.795 43.62C557.315 43.62 557.715 43.86 557.995 44.34C558.315 44.82 558.475 45.48 558.475 46.32C558.475 47.92 558.095 49.16 557.335 50.04C555.695 52.08 553.955 53.8 552.115 55.2C550.275 56.6 548.495 57.3 546.775 57.3C545.455 57.3 544.235 56.86 543.115 55.98C542.035 55.06 541.215 53.82 540.655 52.26C538.575 55.62 535.955 57.3 532.795 57.3ZM534.955 51.24C535.835 51.24 536.675 50.72 537.475 49.68C538.275 48.64 538.855 47.26 539.215 45.54L541.435 34.5C539.755 34.54 538.195 35.18 536.755 36.42C535.355 37.62 534.235 39.22 533.395 41.22C532.555 43.22 532.135 45.34 532.135 47.58C532.135 48.82 532.375 49.74 532.855 50.34C533.375 50.94 534.075 51.24 534.955 51.24ZM570.939 48.54C571.379 48.14 571.819 47.94 572.259 47.94C572.739 47.94 573.119 48.22 573.399 48.78C573.719 49.3 573.879 49.94 573.879 50.7C573.879 52.38 573.279 53.72 572.079 54.72C569.999 56.44 567.639 57.3 564.999 57.3C561.199 57.3 558.419 55.72 556.659 52.56C554.899 49.36 554.019 45.2 554.019 40.08C554.019 35.2 554.639 29.64 555.879 23.4C557.159 17.16 559.019 11.8 561.459 7.32C563.939 2.84 566.879 0.599997 570.279 0.599997C572.199 0.599997 573.699 1.5 574.779 3.3C575.899 5.06 576.459 7.6 576.459 10.92C576.459 15.68 575.139 21.2 572.499 27.48C569.899 33.76 566.339 39.96 561.819 46.08C562.099 47.72 562.599 48.9 563.319 49.62C564.039 50.34 565.019 50.7 566.259 50.7C566.939 50.7 567.699 50.5 568.539 50.1C569.419 49.7 570.219 49.18 570.939 48.54ZM568.959 6.54C568.039 6.54 566.999 8.2 565.839 11.52C564.679 14.84 563.659 18.96 562.779 23.88C561.899 28.8 561.419 33.52 561.339 38.04C564.179 33.36 566.439 28.68 568.119 24C569.799 19.28 570.639 14.98 570.639 11.1C570.639 8.06 570.079 6.54 568.959 6.54ZM602.728 58.62C600.648 58.62 599.048 58.14 597.928 57.18C596.848 56.22 596.308 55.14 596.308 53.94C596.308 52.9 596.688 52 597.448 51.24C598.208 50.48 599.328 50.1 600.808 50.1C601.328 50.1 601.928 50.16 602.608 50.28C603.328 50.36 603.868 50.42 604.228 50.46C604.188 49.42 603.948 48.44 603.508 47.52C603.108 46.6 602.588 45.72 601.948 44.88C601.308 44 600.708 43.24 600.148 42.6C598.908 44.96 597.668 46.92 596.428 48.48C595.228 50.04 593.908 51.52 592.468 52.92C591.748 53.64 590.988 54 590.188 54C589.548 54 589.028 53.78 588.627 53.34C588.227 52.86 588.027 52.28 588.027 51.6C588.027 50.8 588.307 50.06 588.868 49.38L589.648 48.42C591.848 45.7 593.508 43.46 594.628 41.7C595.308 40.54 596.108 39 597.028 37.08C597.948 35.12 598.848 33.1 599.728 31.02C600.488 29.26 602.068 28.38 604.468 28.38C605.588 28.38 606.368 28.48 606.808 28.68C607.248 28.88 607.468 29.2 607.468 29.64C607.468 29.88 607.388 30.26 607.228 30.78C607.068 31.3 606.848 31.82 606.568 32.34C605.848 33.78 605.488 35 605.488 36C605.488 36.6 605.688 37.26 606.088 37.98C606.528 38.7 607.188 39.6 608.068 40.68C609.348 42.36 610.308 43.8 610.948 45C611.628 46.16 611.968 47.44 611.968 48.84C611.968 49.24 611.928 49.8 611.848 50.52C613.808 49.76 616.108 47.74 618.748 44.46C619.228 43.9 619.768 43.62 620.367 43.62C620.888 43.62 621.288 43.86 621.568 44.34C621.888 44.82 622.048 45.48 622.048 46.32C622.048 47.84 621.668 49.08 620.908 50.04C618.908 52.52 616.988 54.22 615.148 55.14C613.348 56.02 611.108 56.5 608.428 56.58C606.828 57.94 604.928 58.62 602.728 58.62ZM643.933 43.62C644.453 43.62 644.853 43.86 645.133 44.34C645.453 44.82 645.613 45.48 645.613 46.32C645.613 47.92 645.233 49.16 644.473 50.04C642.993 51.84 640.893 53.5 638.173 55.02C635.493 56.54 632.613 57.3 629.533 57.3C625.333 57.3 622.073 56.16 619.753 53.88C617.433 51.6 616.273 48.48 616.273 44.52C616.273 41.76 616.853 39.2 618.013 36.84C619.173 34.44 620.773 32.54 622.813 31.14C624.893 29.74 627.233 29.04 629.833 29.04C632.153 29.04 634.013 29.74 635.413 31.14C636.813 32.5 637.513 34.36 637.513 36.72C637.513 39.48 636.513 41.86 634.513 43.86C632.553 45.82 629.213 47.38 624.493 48.54C625.493 50.38 627.393 51.3 630.193 51.3C631.993 51.3 634.033 50.68 636.313 49.44C638.633 48.16 640.633 46.5 642.313 44.46C642.793 43.9 643.333 43.62 643.933 43.62ZM628.813 34.92C627.333 34.92 626.073 35.78 625.033 37.5C624.033 39.22 623.533 41.3 623.533 43.74V43.86C625.893 43.3 627.753 42.46 629.113 41.34C630.473 40.22 631.153 38.92 631.153 37.44C631.153 36.68 630.933 36.08 630.493 35.64C630.093 35.16 629.533 34.92 628.813 34.92ZM644.988 57.3C643.468 57.3 642.388 56.5 641.748 54.9C641.148 53.3 640.848 50.74 640.848 47.22C640.848 42.02 641.588 37.08 643.068 32.4C643.428 31.24 644.008 30.4 644.808 29.88C645.648 29.32 646.808 29.04 648.288 29.04C649.088 29.04 649.648 29.14 649.968 29.34C650.288 29.54 650.448 29.92 650.448 30.48C650.448 31.12 650.148 32.56 649.548 34.8C649.148 36.4 648.828 37.8 648.588 39C648.348 40.2 648.148 41.68 647.988 43.44C649.308 40 650.788 37.2 652.428 35.04C654.068 32.88 655.668 31.34 657.228 30.42C658.828 29.5 660.288 29.04 661.608 29.04C664.208 29.04 665.508 30.34 665.508 32.94C665.508 33.46 665.328 34.72 664.968 36.72C664.648 38.32 664.488 39.32 664.488 39.72C664.488 41.12 664.988 41.82 665.988 41.82C667.108 41.82 668.548 40.94 670.308 39.18C670.828 38.66 671.368 38.4 671.928 38.4C672.448 38.4 672.848 38.64 673.128 39.12C673.448 39.56 673.608 40.16 673.608 40.92C673.608 42.4 673.208 43.56 672.408 44.4C671.288 45.56 669.968 46.56 668.448 47.4C666.968 48.2 665.388 48.6 663.708 48.6C661.588 48.6 659.968 48.06 658.848 46.98C657.768 45.9 657.228 44.44 657.228 42.6C657.228 42 657.288 41.4 657.408 40.8C657.488 40 657.528 39.46 657.528 39.18C657.528 38.54 657.308 38.22 656.868 38.22C656.268 38.22 655.468 38.9 654.468 40.26C653.508 41.58 652.548 43.34 651.588 45.54C650.628 47.74 649.848 50.06 649.248 52.5C648.808 54.38 648.288 55.66 647.688 56.34C647.128 56.98 646.228 57.3 644.988 57.3ZM700.135 38.76C700.255 38.72 700.455 38.7 700.735 38.7C701.335 38.7 701.795 38.9 702.115 39.3C702.435 39.7 702.595 40.24 702.595 40.92C702.595 42.16 702.355 43.14 701.875 43.86C701.395 44.54 700.675 45.04 699.715 45.36C697.875 45.96 695.915 46.26 693.835 46.26C692.075 46.26 690.415 46.02 688.855 45.54C687.695 47.42 686.415 49.36 685.015 51.36C683.415 53.64 682.035 55.2 680.875 56.04C679.715 56.88 678.395 57.3 676.915 57.3C675.275 57.3 673.975 56.66 673.015 55.38C672.095 54.1 671.515 52.08 671.275 49.32C670.795 43.72 670.555 38.82 670.555 34.62V32.52C670.595 31.2 670.955 30.28 671.635 29.76C672.315 29.24 673.335 28.98 674.695 28.98C675.735 28.98 676.495 29.22 676.975 29.7C677.495 30.14 677.755 30.9 677.755 31.98C677.755 36.58 678.035 42.56 678.595 49.92C680.995 46.36 682.795 43.52 683.995 41.4C683.395 40.24 683.095 38.86 683.095 37.26C683.095 35.9 683.395 34.58 683.995 33.3C684.595 32.02 685.415 30.98 686.455 30.18C687.495 29.38 688.675 28.98 689.995 28.98C691.155 28.98 692.095 29.4 692.815 30.24C693.535 31.04 693.895 32.22 693.895 33.78C693.895 35.58 693.415 37.64 692.455 39.96C693.975 39.88 695.995 39.58 698.515 39.06L700.135 38.76ZM705.248 25.08C703.568 25.08 702.308 24.7 701.468 23.94C700.628 23.14 700.208 22.04 700.208 20.64C700.208 19.24 700.748 18.08 701.828 17.16C702.948 16.2 704.328 15.72 705.968 15.72C707.448 15.72 708.648 16.08 709.568 16.8C710.488 17.52 710.948 18.54 710.948 19.86C710.948 21.46 710.428 22.74 709.388 23.7C708.348 24.62 706.968 25.08 705.248 25.08ZM704.768 57.3C702.168 57.3 700.268 56.38 699.068 54.54C697.908 52.7 697.328 50.26 697.328 47.22C697.328 45.42 697.548 43.12 697.988 40.32C698.468 37.48 699.068 34.84 699.788 32.4C700.148 31.12 700.628 30.24 701.228 29.76C701.828 29.28 702.788 29.04 704.108 29.04C706.148 29.04 707.168 29.72 707.168 31.08C707.168 32.08 706.788 34.4 706.028 38.04C705.068 42.44 704.588 45.42 704.588 46.98C704.588 48.18 704.748 49.1 705.068 49.74C705.388 50.38 705.928 50.7 706.688 50.7C707.408 50.7 708.308 50.2 709.388 49.2C710.468 48.2 711.908 46.62 713.708 44.46C714.188 43.9 714.728 43.62 715.328 43.62C715.848 43.62 716.248 43.86 716.528 44.34C716.848 44.82 717.008 45.48 717.008 46.32C717.008 47.92 716.628 49.16 715.868 50.04C711.908 54.88 708.208 57.3 704.768 57.3ZM723.613 57.3C719.693 57.3 716.633 56.2 714.433 54C712.273 51.76 711.193 48.82 711.193 45.18C711.193 41.94 711.833 39.1 713.113 36.66C714.393 34.22 716.053 32.34 718.093 31.02C720.133 29.7 722.273 29.04 724.513 29.04C726.713 29.04 728.413 29.7 729.613 31.02C730.853 32.3 731.473 33.96 731.473 36C731.473 37.68 731.093 39.1 730.333 40.26C729.613 41.42 728.653 42 727.453 42C726.693 42 726.073 41.82 725.593 41.46C725.153 41.1 724.933 40.6 724.933 39.96C724.933 39.68 724.973 39.36 725.053 39C725.133 38.64 725.193 38.38 725.233 38.22C725.433 37.62 725.533 37.06 725.533 36.54C725.533 36.02 725.393 35.62 725.113 35.34C724.873 35.06 724.513 34.92 724.033 34.92C723.113 34.92 722.253 35.34 721.453 36.18C720.653 36.98 720.013 38.08 719.533 39.48C719.053 40.88 718.813 42.42 718.813 44.1C718.813 48.74 720.833 51.06 724.873 51.06C726.513 51.06 728.273 50.52 730.153 49.44C732.073 48.32 733.953 46.66 735.793 44.46C736.273 43.9 736.813 43.62 737.413 43.62C737.933 43.62 738.333 43.86 738.613 44.34C738.933 44.82 739.093 45.48 739.093 46.32C739.093 47.84 738.713 49.08 737.953 50.04C736.073 52.36 733.813 54.16 731.173 55.44C728.573 56.68 726.053 57.3 723.613 57.3ZM742.103 25.08C740.423 25.08 739.163 24.7 738.323 23.94C737.483 23.14 737.063 22.04 737.063 20.64C737.063 19.24 737.603 18.08 738.683 17.16C739.803 16.2 741.183 15.72 742.823 15.72C744.303 15.72 745.503 16.08 746.423 16.8C747.343 17.52 747.803 18.54 747.803 19.86C747.803 21.46 747.283 22.74 746.243 23.7C745.203 24.62 743.823 25.08 742.103 25.08ZM741.623 57.3C739.023 57.3 737.123 56.38 735.923 54.54C734.763 52.7 734.183 50.26 734.183 47.22C734.183 45.42 734.403 43.12 734.843 40.32C735.323 37.48 735.923 34.84 736.643 32.4C737.003 31.12 737.483 30.24 738.083 29.76C738.683 29.28 739.643 29.04 740.963 29.04C743.003 29.04 744.023 29.72 744.023 31.08C744.023 32.08 743.643 34.4 742.883 38.04C741.923 42.44 741.443 45.42 741.443 46.98C741.443 48.18 741.603 49.1 741.923 49.74C742.243 50.38 742.783 50.7 743.543 50.7C744.263 50.7 745.163 50.2 746.243 49.2C747.323 48.2 748.763 46.62 750.563 44.46C751.043 43.9 751.583 43.62 752.183 43.62C752.703 43.62 753.103 43.86 753.383 44.34C753.703 44.82 753.863 45.48 753.863 46.32C753.863 47.92 753.483 49.16 752.723 50.04C748.763 54.88 745.063 57.3 741.623 57.3ZM759.149 57.3C756.789 57.3 754.769 56.72 753.089 55.56C751.449 54.36 750.209 52.8 749.369 50.88C748.529 48.96 748.109 46.9 748.109 44.7C748.109 41.66 748.669 38.96 749.789 36.6C750.949 34.2 752.509 32.34 754.469 31.02C756.429 29.66 758.629 28.98 761.069 28.98C763.429 28.98 765.449 29.58 767.129 30.78C768.809 31.94 770.069 33.48 770.909 35.4C771.749 37.32 772.169 39.38 772.169 41.58C772.169 44.62 771.589 47.34 770.429 49.74C769.269 52.1 767.689 53.96 765.689 55.32C763.729 56.64 761.549 57.3 759.149 57.3ZM759.809 50.82C761.169 50.82 762.309 50.08 763.229 48.6C764.189 47.12 764.669 44.96 764.669 42.12C764.669 39.92 764.269 38.26 763.469 37.14C762.669 36.02 761.709 35.46 760.589 35.46C759.149 35.46 757.949 36.2 756.989 37.68C756.069 39.12 755.609 41.28 755.609 44.16C755.609 46.44 756.009 48.12 756.809 49.2C757.609 50.28 758.609 50.82 759.809 50.82ZM826.155 43.62C826.675 43.62 827.075 43.86 827.355 44.34C827.675 44.82 827.835 45.48 827.835 46.32C827.835 47.92 827.455 49.16 826.695 50.04C825.055 52.04 823.255 53.76 821.295 55.2C819.335 56.6 817.395 57.3 815.475 57.3C812.435 57.3 810.115 55.52 808.515 51.96C806.835 54.08 805.355 55.5 804.075 56.22C802.835 56.94 801.375 57.3 799.695 57.3C797.255 57.3 795.235 56.4 793.635 54.6C792.075 52.76 791.295 50.38 791.295 47.46C791.295 44.26 791.975 41.3 793.335 38.58C794.695 35.82 796.555 33.58 798.915 31.86C801.315 30.1 803.995 29.06 806.955 28.74C807.715 20.98 809.155 14.36 811.275 8.88C813.435 3.36 816.255 0.599997 819.735 0.599997C821.455 0.599997 822.875 1.38 823.995 2.94C825.155 4.5 825.735 6.86 825.735 10.02C825.735 14.5 824.635 19.74 822.435 25.74C820.235 31.74 817.295 37.9 813.615 44.22C813.775 46.54 814.115 48.2 814.635 49.2C815.195 50.2 815.895 50.7 816.735 50.7C817.815 50.7 818.915 50.22 820.035 49.26C821.155 48.3 822.655 46.7 824.535 44.46C825.015 43.9 825.555 43.62 826.155 43.62ZM819.075 6.48C818.315 6.48 817.555 7.84 816.795 10.56C816.035 13.24 815.375 16.76 814.815 21.12C814.295 25.48 813.915 30.04 813.675 34.8C818.155 25.04 820.395 17.2 820.395 11.28C820.395 9.76 820.255 8.58 819.975 7.74C819.735 6.9 819.435 6.48 819.075 6.48ZM801.795 51.24C802.555 51.24 803.315 50.94 804.075 50.34C804.835 49.7 805.795 48.54 806.955 46.86C806.555 44.7 806.355 42.28 806.355 39.6C806.355 38.64 806.395 37.08 806.475 34.92C804.275 35.6 802.435 37.08 800.955 39.36C799.515 41.6 798.795 44.1 798.795 46.86C798.795 49.78 799.795 51.24 801.795 51.24ZM844.434 45.42C844.954 45.42 845.354 45.66 845.634 46.14C845.954 46.62 846.114 47.28 846.114 48.12C846.114 49.56 845.774 50.8 845.094 51.84C843.974 53.56 842.494 54.9 840.654 55.86C838.854 56.82 836.694 57.3 834.174 57.3C830.334 57.3 827.354 56.16 825.234 53.88C823.114 51.56 822.054 48.44 822.054 44.52C822.054 41.76 822.634 39.2 823.794 36.84C824.954 34.44 826.554 32.54 828.594 31.14C830.674 29.74 833.014 29.04 835.614 29.04C837.934 29.04 839.794 29.74 841.194 31.14C842.594 32.5 843.294 34.36 843.294 36.72C843.294 39.48 842.294 41.86 840.294 43.86C838.334 45.82 834.974 47.38 830.214 48.54C831.174 50.38 832.794 51.3 835.074 51.3C836.714 51.3 838.054 50.92 839.094 50.16C840.174 49.4 841.414 48.12 842.814 46.32C843.294 45.72 843.834 45.42 844.434 45.42ZM834.594 34.92C833.114 34.92 831.854 35.78 830.814 37.5C829.814 39.22 829.314 41.3 829.314 43.74V43.86C831.674 43.3 833.534 42.46 834.894 41.34C836.254 40.22 836.934 38.92 836.934 37.44C836.934 36.68 836.714 36.08 836.274 35.64C835.874 35.16 835.314 34.92 834.594 34.92ZM890.261 43.62C890.781 43.62 891.181 43.86 891.461 44.34C891.781 44.82 891.941 45.48 891.941 46.32C891.941 47.92 891.561 49.16 890.801 50.04C889.081 52.16 887.201 53.9 885.161 55.26C883.121 56.62 880.781 57.3 878.141 57.3C869.981 57.3 865.901 51.56 865.901 40.08C865.901 38.32 865.961 36.54 866.081 34.74H863.741C862.541 34.74 861.721 34.52 861.281 34.08C860.881 33.64 860.681 32.94 860.681 31.98C860.681 29.74 861.581 28.62 863.381 28.62H866.801C867.481 24.22 868.521 20.2 869.921 16.56C871.321 12.92 873.001 10.02 874.961 7.86C876.961 5.7 879.101 4.62 881.381 4.62C883.061 4.62 884.381 5.36 885.341 6.84C886.301 8.32 886.781 10.18 886.781 12.42C886.781 18.62 884.181 24.02 878.981 28.62H885.701C886.341 28.62 886.801 28.76 887.081 29.04C887.361 29.32 887.501 29.84 887.501 30.6C887.501 33.36 885.241 34.74 880.721 34.74H873.401C873.321 36.74 873.281 38.3 873.281 39.42C873.281 43.58 873.761 46.5 874.721 48.18C875.721 49.86 877.281 50.7 879.401 50.7C881.121 50.7 882.641 50.18 883.961 49.14C885.281 48.1 886.841 46.54 888.641 44.46C889.121 43.9 889.661 43.62 890.261 43.62ZM879.761 10.38C879.161 10.38 878.481 11.14 877.721 12.66C877.001 14.14 876.301 16.22 875.621 18.9C874.981 21.54 874.441 24.48 874.001 27.72C876.361 25.68 878.121 23.4 879.281 20.88C880.481 18.32 881.081 16 881.081 13.92C881.081 11.56 880.641 10.38 879.761 10.38ZM893.296 57.3C891.416 57.3 889.896 56.54 888.736 55.02C887.616 53.46 887.056 51.32 887.056 48.6C887.056 45.6 887.256 42.86 887.656 40.38C888.056 37.86 888.716 35.2 889.636 32.4C890.036 31.2 890.596 30.34 891.316 29.82C892.036 29.3 893.176 29.04 894.736 29.04C895.616 29.04 896.216 29.18 896.536 29.46C896.896 29.74 897.076 30.16 897.076 30.72C897.076 31.04 896.856 32.12 896.416 33.96C896.016 35.44 895.696 36.78 895.456 37.98C894.656 42.18 894.256 44.98 894.256 46.38C894.256 47.22 894.356 47.82 894.556 48.18C894.756 48.5 895.076 48.66 895.516 48.66C896.116 48.66 896.876 48.06 897.796 46.86C898.716 45.62 899.676 43.78 900.676 41.34C901.716 38.86 902.696 35.88 903.616 32.4C903.936 31.2 904.416 30.34 905.056 29.82C905.736 29.3 906.736 29.04 908.056 29.04C908.936 29.04 909.556 29.28 909.916 29.76C910.316 30.2 910.516 30.88 910.516 31.8C910.516 32.8 910.436 33.92 910.276 35.16C910.116 36.36 909.936 37.6 909.736 38.88C909.336 41.44 909.016 43.78 908.776 45.9C908.536 47.98 908.416 50.36 908.416 53.04C908.416 54.56 908.096 55.66 907.456 56.34C906.856 56.98 905.856 57.3 904.456 57.3C902.976 57.3 901.936 56.92 901.336 56.16C900.776 55.36 900.496 53.84 900.496 51.6C900.496 51.16 900.536 50.18 900.616 48.66C899.936 51.46 898.916 53.6 897.556 55.08C896.236 56.56 894.816 57.3 893.296 57.3ZM941.692 58.62C939.612 58.62 938.012 58.14 936.892 57.18C935.812 56.22 935.272 55.14 935.272 53.94C935.272 52.9 935.652 52 936.412 51.24C937.172 50.48 938.292 50.1 939.772 50.1C940.292 50.1 940.892 50.16 941.572 50.28C942.292 50.36 942.832 50.42 943.192 50.46C943.152 49.42 942.912 48.44 942.472 47.52C942.072 46.6 941.552 45.72 940.912 44.88C940.272 44 939.672 43.24 939.112 42.6C937.872 44.96 936.632 46.92 935.392 48.48C934.192 50.04 932.872 51.52 931.432 52.92C930.712 53.64 929.952 54 929.152 54C928.512 54 927.992 53.78 927.592 53.34C927.192 52.86 926.992 52.28 926.992 51.6C926.992 50.8 927.272 50.06 927.832 49.38L928.612 48.42C930.812 45.7 932.472 43.46 933.592 41.7C934.272 40.54 935.072 39 935.992 37.08C936.912 35.12 937.812 33.1 938.692 31.02C939.452 29.26 941.032 28.38 943.432 28.38C944.552 28.38 945.332 28.48 945.772 28.68C946.212 28.88 946.432 29.2 946.432 29.64C946.432 29.88 946.352 30.26 946.192 30.78C946.032 31.3 945.812 31.82 945.532 32.34C944.812 33.78 944.452 35 944.452 36C944.452 36.6 944.652 37.26 945.052 37.98C945.492 38.7 946.152 39.6 947.032 40.68C948.312 42.36 949.272 43.8 949.912 45C950.592 46.16 950.932 47.44 950.932 48.84C950.932 49.24 950.892 49.8 950.812 50.52C952.772 49.76 955.072 47.74 957.712 44.46C958.192 43.9 958.732 43.62 959.332 43.62C959.852 43.62 960.252 43.86 960.532 44.34C960.852 44.82 961.012 45.48 961.012 46.32C961.012 47.84 960.632 49.08 959.872 50.04C957.872 52.52 955.952 54.22 954.112 55.14C952.312 56.02 950.072 56.5 947.392 56.58C945.792 57.94 943.892 58.62 941.692 58.62ZM963.518 57.3C961.038 57.3 959.058 56.4 957.578 54.6C956.098 52.8 955.358 50.44 955.358 47.52C955.358 44.32 956.098 41.3 957.578 38.46C959.058 35.58 961.018 33.28 963.458 31.56C965.938 29.8 968.558 28.92 971.318 28.92C972.198 28.92 972.778 29.1 973.058 29.46C973.378 29.78 973.638 30.38 973.838 31.26C974.678 31.1 975.558 31.02 976.478 31.02C978.438 31.02 979.418 31.72 979.418 33.12C979.418 33.96 979.118 35.96 978.518 39.12C977.598 43.72 977.138 46.92 977.138 48.72C977.138 49.32 977.278 49.8 977.558 50.16C977.878 50.52 978.278 50.7 978.758 50.7C979.518 50.7 980.438 50.22 981.518 49.26C982.598 48.26 984.058 46.66 985.898 44.46C986.378 43.9 986.918 43.62 987.518 43.62C988.038 43.62 988.438 43.86 988.718 44.34C989.038 44.82 989.198 45.48 989.198 46.32C989.198 47.92 988.818 49.16 988.058 50.04C986.418 52.08 984.678 53.8 982.838 55.2C980.998 56.6 979.218 57.3 977.498 57.3C976.178 57.3 974.958 56.86 973.838 55.98C972.758 55.06 971.938 53.82 971.378 52.26C969.298 55.62 966.678 57.3 963.518 57.3ZM965.678 51.24C966.558 51.24 967.398 50.72 968.198 49.68C968.998 48.64 969.578 47.26 969.938 45.54L972.158 34.5C970.478 34.54 968.918 35.18 967.478 36.42C966.078 37.62 964.958 39.22 964.118 41.22C963.278 43.22 962.858 45.34 962.858 47.58C962.858 48.82 963.098 49.74 963.578 50.34C964.098 50.94 964.798 51.24 965.678 51.24ZM1007.06 43.62C1007.58 43.62 1007.98 43.86 1008.26 44.34C1008.58 44.82 1008.74 45.48 1008.74 46.32C1008.74 47.92 1008.36 49.16 1007.6 50.04C1005.88 52.16 1004 53.9 1001.96 55.26C999.961 56.62 997.681 57.3 995.121 57.3C991.601 57.3 988.981 55.7 987.261 52.5C985.581 49.3 984.741 45.16 984.741 40.08C984.741 35.2 985.361 29.64 986.601 23.4C987.881 17.16 989.741 11.8 992.181 7.32C994.661 2.84 997.601 0.599997 1001 0.599997C1002.92 0.599997 1004.42 1.5 1005.5 3.3C1006.62 5.06 1007.18 7.6 1007.18 10.92C1007.18 15.68 1005.86 21.2 1003.22 27.48C1000.58 33.76 997.001 39.98 992.481 46.14C992.761 47.78 993.221 48.96 993.861 49.68C994.501 50.36 995.341 50.7 996.381 50.7C998.021 50.7 999.461 50.24 1000.7 49.32C1001.94 48.36 1003.52 46.74 1005.44 44.46C1005.92 43.9 1006.46 43.62 1007.06 43.62ZM999.681 6.54C998.761 6.54 997.721 8.2 996.561 11.52C995.401 14.84 994.381 18.96 993.501 23.88C992.621 28.8 992.141 33.52 992.061 38.04C994.901 33.36 997.161 28.68 998.841 24C1000.52 19.28 1001.36 14.98 1001.36 11.1C1001.36 8.06 1000.8 6.54 999.681 6.54ZM1010.01 57.3C1008.21 57.3 1006.73 56.48 1005.57 54.84C1004.45 53.16 1003.89 51.08 1003.89 48.6C1003.89 45.6 1004.09 42.86 1004.49 40.38C1004.89 37.86 1005.55 35.2 1006.47 32.4C1006.87 31.2 1007.43 30.34 1008.15 29.82C1008.87 29.3 1010.01 29.04 1011.57 29.04C1012.45 29.04 1013.05 29.18 1013.37 29.46C1013.73 29.74 1013.91 30.16 1013.91 30.72C1013.91 31.04 1013.69 32.12 1013.25 33.96C1012.85 35.44 1012.53 36.78 1012.29 37.98C1011.49 42.18 1011.09 44.98 1011.09 46.38C1011.09 47.22 1011.19 47.82 1011.39 48.18C1011.59 48.5 1011.91 48.66 1012.35 48.66C1012.95 48.66 1013.69 48.06 1014.57 46.86C1015.49 45.66 1016.45 43.84 1017.45 41.4C1018.49 38.96 1019.49 35.96 1020.45 32.4C1020.77 31.2 1021.25 30.34 1021.89 29.82C1022.57 29.3 1023.57 29.04 1024.89 29.04C1025.81 29.04 1026.45 29.16 1026.81 29.4C1027.17 29.6 1027.35 30 1027.35 30.6C1027.35 31.6 1026.85 34.34 1025.85 38.82C1024.73 43.94 1024.17 47.1 1024.17 48.3C1024.17 49.06 1024.33 49.66 1024.65 50.1C1024.97 50.5 1025.39 50.7 1025.91 50.7C1026.71 50.7 1027.65 50.22 1028.73 49.26C1029.85 48.26 1031.33 46.66 1033.17 44.46C1033.65 43.9 1034.19 43.62 1034.79 43.62C1035.31 43.62 1035.71 43.86 1035.99 44.34C1036.31 44.82 1036.47 45.48 1036.47 46.32C1036.47 47.92 1036.09 49.16 1035.33 50.04C1033.61 52.16 1031.75 53.9 1029.75 55.26C1027.79 56.62 1025.55 57.3 1023.03 57.3C1021.11 57.3 1019.69 56.56 1018.77 55.08C1017.89 53.6 1017.45 51.52 1017.45 48.84C1016.77 51.56 1015.75 53.66 1014.39 55.14C1013.03 56.58 1011.57 57.3 1010.01 57.3ZM1053.45 43.62C1053.89 46.9 1054.53 50.14 1055.37 53.34C1055.53 53.86 1055.61 54.4 1055.61 54.96C1055.61 56.76 1054.51 57.66 1052.31 57.66C1051.07 57.66 1050.11 57.32 1049.43 56.64C1048.79 55.96 1048.19 54.68 1047.63 52.8L1047.57 52.56C1046.05 54.44 1044.67 55.7 1043.43 56.34C1042.23 56.98 1040.83 57.3 1039.23 57.3C1036.79 57.3 1034.77 56.4 1033.17 54.6C1031.61 52.76 1030.83 50.38 1030.83 47.46C1030.83 44.26 1031.51 41.3 1032.87 38.58C1034.23 35.86 1036.09 33.64 1038.45 31.92C1040.81 30.16 1043.45 29.1 1046.37 28.74C1047.13 21.18 1048.57 14.6 1050.69 9C1052.85 3.4 1055.71 0.599997 1059.27 0.599997C1060.99 0.599997 1062.41 1.38 1063.53 2.94C1064.69 4.5 1065.27 6.86 1065.27 10.02C1065.27 14.42 1064.19 19.56 1062.03 25.44C1059.87 31.32 1057.01 37.38 1053.45 43.62ZM1058.61 6.48C1057.45 6.48 1056.35 9.44 1055.31 15.36C1054.31 21.28 1053.63 27.72 1053.27 34.68C1057.71 25.08 1059.93 17.28 1059.93 11.28C1059.93 9.76 1059.79 8.58 1059.51 7.74C1059.27 6.9 1058.97 6.48 1058.61 6.48ZM1041.33 51.24C1042.13 51.24 1042.89 50.94 1043.61 50.34C1044.37 49.74 1045.33 48.58 1046.49 46.86C1046.09 43.94 1045.89 40.92 1045.89 37.8C1045.89 36.56 1045.91 35.6 1045.95 34.92C1043.75 35.56 1041.93 37.02 1040.49 39.3C1039.05 41.58 1038.33 44.1 1038.33 46.86C1038.33 49.78 1039.33 51.24 1041.33 51.24Z" fill="#7C1EB6"/>
</svg>
